<?xml version="1.0" standalone="no"?>
<!DOCTYPE svg PUBLIC "-//W3C//DTD SVG 1.1//EN" "http://www.w3.org/Graphics/SVG/1.1/DTD/svg11.dtd" >
<svg>
<metadata>
Created by FontForge 20120731 at Wed Jul 25 08:55:02 2018
 By www
Praxis-Light
</metadata>
<defs>
<font id="Praxis-Light" horiz-adv-x="500" >
  <font-face 
    font-family="Praxis-Light"
    font-weight="500"
    font-stretch="normal"
    units-per-em="1000"
    panose-1="0 0 0 0 0 0 0 0 0 0"
    ascent="800"
    descent="-200"
    x-height="498"
    cap-height="667"
    bbox="-142 -250 1032 857"
    underline-thickness="20"
    underline-position="-156"
    stemh="46"
    stemv="60"
    unicode-range="U+0020-FB02"
  />
<missing-glyph horiz-adv-x="280" 
 />
    <glyph glyph-name=".notdef" horiz-adv-x="280" 
 />
    <glyph glyph-name="space" unicode=" " horiz-adv-x="250" 
d="M0 0z" />
    <glyph glyph-name="exclam" unicode="!" horiz-adv-x="223" 
d="M132 143c-7 0 -13 6 -13 14l-8 513c0 8 6 14 14 14h34c7 0 13 -6 13 -14l-8 -513c0 -8 -6 -14 -13 -14h-19zM142 -12c-33 0 -51 18 -51 52c0 32 20 53 51 53c32 0 50 -19 50 -52c0 -34 -17 -53 -50 -53z" />
    <glyph glyph-name="quotedbl" unicode="&#x22;" horiz-adv-x="310" 
d="M122 667l-11 -269h-44l-11 269h66zM254 667l-11 -269h-44l-11 269h66z" />
    <glyph glyph-name="numbersign" unicode="#" horiz-adv-x="600" 
d="M429 268h112l-8 -56h-112l-33 -212h-61l32 212h-146l-32 -212h-61l32 212h-114l9 56h114l22 144h-114l8 55h114l31 200h61l-31 -200h146l31 200h61l-30 -200h111l-9 -55h-111zM368 268l22 144h-146l-22 -144h146z" />
    <glyph glyph-name="dollar" unicode="$" horiz-adv-x="446" 
d="M71 81c39 -29 70 -40 123 -42v287l-57 44c-66 53 -86 86 -86 143c0 90 61 150 160 158v39c0 8 4 13 13 13h10c8 0 12 -5 12 -13v-38c76 -1 139 -22 139 -46v-26c0 -10 -4 -14 -12 -14c-3 0 -6 1 -12 5c-36 24 -69 35 -103 35h-12v-254l56 -39c76 -52 103 -95 103 -164
c0 -98 -69 -167 -176 -177v-43c0 -8 -4 -12 -12 -12h-11c-8 0 -12 4 -12 12v42c-82 3 -153 28 -153 53v30c0 10 4 15 12 15c5 0 9 -2 18 -8zM229 304v-265h6c66 0 109 46 109 116c0 56 -19 84 -87 130zM211 397v227c-61 -6 -99 -44 -99 -101c0 -39 13 -59 64 -99z" />
    <glyph glyph-name="percent" unicode="%" horiz-adv-x="759" 
d="M197 331c-83 0 -131 64 -131 176c0 115 47 178 132 178c82 0 131 -66 131 -177s-50 -177 -132 -177zM166 12l398 665l1 3c2 3 3 4 7 4h15c8 0 11 -4 11 -10c0 -1 0 -4 -1 -6c0 0 -1 -2 -3 -4l-399 -666l-2 -3c-1 -3 -3 -3 -7 -3h-15c-7 0 -10 2 -10 7c0 3 0 4 5 13z
M561 -8c-83 0 -131 64 -131 176c0 115 47 178 132 178c83 0 132 -66 132 -177c-1 -111 -50 -177 -133 -177zM198 643c-55 0 -82 -44 -82 -134c0 -92 27 -136 82 -136s80 43 80 137c0 89 -26 133 -80 133zM563 304c-55 0 -82 -44 -82 -134c0 -92 27 -136 82 -136
s80 43 80 137c0 88 -26 133 -80 133z" />
    <glyph glyph-name="ampersand" unicode="&#x26;" horiz-adv-x="598" 
d="M577 237c0 -61 -26 -118 -66 -145l55 -60c10 -10 12 -13 12 -19c0 -8 -8 -13 -21 -13h-40c-3 0 -7 2 -9 5l-42 48c-51 -40 -122 -61 -199 -61c-141 0 -237 78 -237 194c0 86 56 155 146 179l-34 37c-47 51 -61 80 -61 125c0 87 67 148 165 148c95 0 159 -60 159 -149
c0 -76 -45 -128 -145 -166l216 -232c26 26 40 62 40 100v29c0 7 6 13 14 13h34c7 0 13 -6 13 -13v-20zM186 439l44 -51c77 33 114 79 114 140s-42 105 -101 105c-60 0 -101 -40 -101 -98c0 -33 13 -61 44 -96zM434 86l-229 251c-73 -28 -114 -79 -114 -144
c0 -90 77 -151 190 -151c57 0 109 15 153 44z" />
    <glyph glyph-name="quoteright" unicode="&#x2019;" horiz-adv-x="223" 
d="M82 495c27 28 40 59 40 90h-12c-31 0 -49 19 -49 51c0 35 19 55 54 55c45 0 67 -27 67 -82c0 -42 -19 -88 -50 -123c-17 -20 -23 -24 -36 -24h-12c-9 0 -14 5 -14 13c0 4 2 8 6 13z" />
    <glyph glyph-name="parenleft" unicode="(" horiz-adv-x="284" 
d="M198 -220l-5 7l-15 23c-25 40 -56 117 -73 178c-19 71 -34 190 -34 265c0 82 17 197 41 279c15 54 35 99 65 153c12 23 16 29 21 35c4 5 8 6 18 6h25c7 0 13 -4 13 -9c0 -3 -2 -7 -4 -11l-3 -4c0 -1 -1 -2 -2 -4s-4 -7 -10 -16c-64 -104 -103 -266 -103 -429
c0 -168 40 -328 113 -449c7 -12 9 -16 9 -21c0 -7 -6 -11 -15 -11h-25c-9 0 -13 2 -16 8z" />
    <glyph glyph-name="parenright" unicode=")" horiz-adv-x="284" 
d="M87 718l4 -7l15 -23c25 -40 56 -116 73 -178c19 -72 34 -189 34 -265c0 -82 -17 -197 -41 -279c-15 -54 -35 -99 -64 -153c-13 -23 -17 -29 -22 -35c-4 -5 -8 -6 -18 -6h-25c-7 0 -13 4 -13 9c0 3 2 7 4 11l3 4c0 1 1 2 2 4s4 7 10 16c64 104 103 266 103 429
c0 91 -11 176 -33 257c-18 66 -45 132 -71 178l-9 14c-7 13 -9 16 -9 21c0 7 6 11 15 11h25c9 0 13 -2 17 -8z" />
    <glyph glyph-name="asterisk" unicode="*" horiz-adv-x="339" 
d="M152 444l3 93l-76 -66c-2 -2 -5 -4 -8 -4s-7 2 -9 4l-8 8c-4 4 -5 6 -5 9c0 4 1 8 4 11l84 69l-104 -3c-7 0 -13 6 -13 14v7c0 7 6 13 13 13l104 -2l-84 67c-3 2 -4 6 -4 10c0 3 1 7 4 9l9 9c3 3 6 4 9 4s6 -1 9 -3l75 -66l-3 102c0 8 6 14 13 14h14c8 0 13 -6 13 -14
l-2 -102l76 66c2 2 5 3 8 3s7 -2 9 -4l9 -9c3 -2 4 -5 4 -9s-1 -8 -4 -10l-84 -67l103 2c7 0 13 -6 13 -13v-7c0 -8 -6 -14 -13 -14l-103 3l84 -70c3 -2 4 -6 4 -10c0 -3 -1 -7 -4 -9l-9 -9c-2 -2 -4 -3 -7 -3c-4 0 -8 2 -10 4l-76 66l2 -93c0 -8 -6 -14 -13 -14h-14
c-7 0 -13 6 -13 14z" />
    <glyph glyph-name="plus" unicode="+" 
d="M33 304v56h187v174h60v-174h187v-56h-187v-175h-60v175h-187z" />
    <glyph glyph-name="comma" unicode="," horiz-adv-x="223" 
d="M82 -103c26 28 40 59 40 90h-12c-31 0 -49 20 -49 51c0 36 19 55 54 55c45 0 67 -26 67 -81c0 -42 -19 -88 -50 -123c-17 -20 -23 -24 -36 -24h-12c-9 0 -14 5 -14 13c0 4 2 8 6 13z" />
    <glyph glyph-name="hyphen" unicode="-" horiz-adv-x="294" 
d="M44 236c-8 0 -14 6 -14 13v33c0 7 6 13 14 13h206c7 0 13 -6 13 -13v-33c0 -7 -6 -13 -13 -13h-206z" />
    <glyph glyph-name="period" unicode="." horiz-adv-x="263" 
d="M158 -13c-40 0 -57 16 -57 53c0 36 18 53 55 53s57 -18 57 -52c0 -36 -18 -54 -55 -54z" />
    <glyph glyph-name="slash" unicode="/" horiz-adv-x="299" 
d="M32 -193l1 7l177 866l2 8c2 11 4 12 16 12h25c10 0 14 -2 14 -8c0 -2 0 -4 -1 -6l-1 -6l-175 -866l-2 -11c-3 -12 -6 -14 -18 -14h-23c-12 0 -17 3 -17 10v2z" />
    <glyph glyph-name="zero" unicode="0" horiz-adv-x="537" 
d="M269 -17c-142 0 -229 132 -229 348c0 210 90 344 229 344c140 0 227 -133 227 -348c0 -213 -86 -344 -227 -344zM268 624c-109 0 -167 -102 -167 -296c0 -192 58 -294 167 -294c110 0 167 100 167 292c0 197 -56 298 -167 298z" />
    <glyph glyph-name="one" unicode="1" horiz-adv-x="537" 
d="M273 13v595c-40 -32 -93 -51 -142 -51h-6c-8 0 -14 6 -14 13v24c0 8 6 14 14 14h4c38 0 72 11 114 37l25 16l3 3l4 3c8 5 16 8 24 8h22c7 0 13 -6 13 -13v-649c0 -7 -6 -13 -13 -13h-34c-8 0 -14 6 -14 13z" />
    <glyph glyph-name="two" unicode="2" horiz-adv-x="537" 
d="M111 69v-10h352c7 0 13 -6 13 -13v-33c0 -7 -6 -13 -13 -13h-399c-7 0 -13 6 -13 13v41c0 57 20 99 67 135l30 23l170 133c63 49 87 88 87 143c0 87 -57 136 -159 136c-63 0 -103 -12 -165 -50c-13 -8 -16 -9 -21 -9c-6 0 -9 5 -9 13v31c0 12 8 21 28 30
c47 22 113 36 169 36c135 0 218 -69 218 -182c0 -38 -11 -76 -30 -107c-17 -28 -35 -47 -84 -84l-159 -125c-69 -54 -82 -71 -82 -108z" />
    <glyph glyph-name="three" unicode="3" horiz-adv-x="537" 
d="M379 377c-15 -10 -24 -14 -50 -23c56 -14 79 -26 106 -57c28 -31 41 -65 41 -108c0 -118 -98 -197 -245 -197c-57 0 -117 11 -162 32c-15 6 -18 10 -18 20v27c0 10 4 15 12 15c6 0 8 -1 15 -6c41 -25 90 -38 148 -38c63 0 104 12 139 42c33 27 50 64 50 105
c0 34 -12 64 -35 88c-31 32 -66 44 -131 44h-33c-8 0 -14 6 -14 13v24c0 7 6 13 14 13h16c89 0 153 56 153 134c0 72 -57 119 -143 119c-51 0 -96 -11 -142 -36c-9 -5 -12 -6 -18 -6c-8 0 -11 5 -11 14v27c0 27 80 52 163 52c127 0 212 -67 212 -168
c0 -52 -27 -103 -67 -130z" />
    <glyph glyph-name="four" unicode="4" horiz-adv-x="537" 
d="M354 13v173h-331c-7 0 -13 6 -13 13v38c0 1 0 2 1 4l2 4l332 425c3 3 7 5 11 5h48c7 0 11 -5 11 -13v-426h78c7 0 13 -6 13 -13v-24c0 -7 -6 -13 -13 -13h-78v-173c0 -7 -6 -13 -13 -13h-34c-8 0 -14 6 -14 13zM65 236h289v366z" />
    <glyph glyph-name="five" unicode="5" horiz-adv-x="537" 
d="M442 608h-310v-217h4c32 21 70 31 119 31c138 0 221 -77 221 -204c0 -137 -96 -226 -244 -226c-90 0 -171 26 -171 56v22c0 10 4 14 12 14c5 0 9 -1 17 -5c50 -25 94 -37 138 -37c116 0 187 65 187 173c0 98 -64 157 -170 157c-39 0 -74 -8 -101 -25
c-15 -9 -18 -9 -32 -9h-28c-7 0 -13 5 -13 13v302c0 8 6 14 13 14h358c8 0 14 -6 14 -14v-32c0 -7 -6 -13 -14 -13z" />
    <glyph glyph-name="six" unicode="6" horiz-adv-x="537" 
d="M121 478c-16 -59 -18 -73 -19 -157c45 65 100 93 180 93c129 0 214 -83 214 -208c0 -133 -89 -223 -222 -223c-154 0 -234 111 -234 323c0 241 92 369 263 369c83 0 153 -23 153 -49v-24c0 -7 -4 -13 -9 -13c-4 0 -8 2 -13 4c-1 1 -2 1 -5 3l-6 3c-34 16 -76 25 -118 25
c-61 0 -100 -15 -132 -51c-25 -28 -43 -61 -52 -95zM274 363c-100 0 -163 -65 -163 -167c0 -98 65 -162 163 -162s161 64 161 164c0 103 -60 165 -161 165z" />
    <glyph glyph-name="seven" unicode="7" horiz-adv-x="537" 
d="M431 608v4h-372c-7 0 -13 6 -13 13v28c0 8 5 14 13 14h419c7 0 13 -6 13 -14v-17c0 -36 -5 -52 -42 -126l-127 -252c-41 -81 -54 -127 -54 -194v-51c0 -7 -6 -13 -13 -13h-44c-8 0 -14 6 -14 13v48c0 57 18 124 47 178l24 46l137 259c20 37 26 53 26 64z" />
    <glyph glyph-name="eight" unicode="8" horiz-adv-x="537" 
d="M456 518c0 -69 -49 -132 -124 -159c3 -2 6 -3 7 -4c65 -31 76 -39 102 -68c30 -34 45 -74 45 -119c0 -108 -92 -185 -219 -185c-126 0 -216 77 -216 184c0 84 62 159 154 185c-90 44 -124 86 -124 156c0 99 79 167 192 167c107 0 183 -65 183 -157zM223 415l68 -36
c71 36 104 79 104 133c0 68 -50 112 -127 112c-74 0 -126 -42 -126 -102c0 -46 24 -78 81 -107zM310 299l-67 34c-83 -32 -132 -91 -132 -160c0 -86 62 -139 160 -139c92 0 154 51 154 126c0 57 -34 98 -115 139z" />
    <glyph glyph-name="nine" unicode="9" horiz-adv-x="537" 
d="M436 320v14c-51 -62 -107 -89 -183 -89c-127 0 -213 84 -213 210c0 131 90 220 221 220c153 0 235 -112 235 -319c0 -236 -92 -364 -261 -364c-46 0 -85 7 -134 26c-16 6 -20 10 -20 21v24c0 8 4 14 11 14c3 0 8 -1 13 -4c45 -21 86 -31 133 -31c126 0 198 100 198 278z
M263 626c-100 0 -162 -63 -162 -166c0 -102 60 -165 159 -165c102 0 165 63 165 165c0 101 -63 166 -162 166z" />
    <glyph glyph-name="colon" unicode=":" horiz-adv-x="263" 
d="M158 -13c-40 0 -57 16 -57 53c0 36 18 53 55 53s57 -18 57 -52c0 -36 -18 -54 -55 -54zM158 398c-40 0 -57 16 -57 53c0 36 18 52 55 52s57 -17 57 -51c0 -36 -18 -54 -55 -54z" />
    <glyph glyph-name="semicolon" unicode=";" horiz-adv-x="223" 
d="M82 -103c26 28 40 59 40 90h-12c-31 0 -49 20 -49 51c0 36 19 55 54 55c45 0 67 -26 67 -81c0 -42 -19 -88 -50 -123c-17 -20 -23 -24 -36 -24h-12c-9 0 -14 5 -14 13c0 4 2 8 6 13zM119 398c-40 0 -57 16 -57 53c0 36 17 52 55 52c37 0 56 -17 56 -51
c0 -36 -18 -54 -54 -54z" />
    <glyph glyph-name="less" unicode="&#x3c;" 
d="M33 356l434 199v-61l-369 -165l368 -165l1 -60l-434 199v53z" />
    <glyph glyph-name="equal" unicode="=" 
d="M33 389v54h434v-54h-434zM33 241v54h434v-54h-434z" />
    <glyph glyph-name="greater" unicode="&#x3e;" 
d="M467 303l-434 -199v60l369 165l-368 166l-1 60l434 -199v-53z" />
    <glyph glyph-name="question" unicode="?" horiz-adv-x="486" 
d="M216 143c-8 0 -13 6 -13 14v52c0 44 10 65 51 107l73 73c52 53 68 81 68 124c0 77 -62 128 -156 128c-55 0 -104 -12 -150 -37l-4 -2c-4 -2 -10 -4 -13 -4c-7 0 -11 5 -11 13v27c0 9 3 13 16 20c43 21 104 34 164 34c132 0 215 -70 215 -182c0 -55 -22 -98 -76 -152
l-46 -46c-17 -16 -28 -28 -36 -34c-28 -28 -35 -41 -35 -67v-54c0 -8 -6 -14 -13 -14h-34zM233 -12c-34 0 -51 18 -51 54c0 32 18 51 50 51c33 0 52 -19 52 -53s-18 -52 -51 -52z" />
    <glyph glyph-name="at" unicode="@" horiz-adv-x="733" 
d="M483 422l14 69h44l-41 -214c-4 -19 -7 -39 -7 -48c0 -29 17 -48 41 -48c63 0 120 94 120 197c0 149 -115 256 -274 256c-171 0 -303 -133 -303 -304c0 -126 72 -236 182 -280c37 -14 81 -22 131 -22c79 0 141 15 215 50l14 -40c-73 -35 -146 -51 -228 -51
c-210 0 -358 143 -358 344c0 194 151 344 346 344c181 0 316 -126 316 -296c0 -125 -77 -237 -163 -237c-42 0 -69 27 -72 69c-31 -47 -74 -72 -125 -72c-81 0 -140 67 -140 162c0 113 78 203 175 203c58 0 93 -26 113 -82zM344 184c69 0 121 73 121 171
c0 63 -36 103 -91 103c-71 0 -129 -70 -129 -156c0 -70 40 -118 99 -118z" />
    <glyph glyph-name="A" unicode="A" horiz-adv-x="557" 
d="M486 9l-89 253h-246l-87 -253c-3 -7 -5 -9 -13 -9h-23c-13 0 -18 4 -18 13c0 2 1 7 2 11l212 611l6 18c5 17 14 22 35 22h22c18 0 22 -1 27 -5c4 -4 7 -9 9 -15c2 -4 4 -11 8 -20l215 -612c1 -3 2 -8 2 -10c0 -9 -6 -13 -18 -13h-32c-7 0 -10 2 -12 9zM168 312h211
l-108 311z" />
    <glyph glyph-name="B" unicode="B" horiz-adv-x="496" 
d="M425 502c0 -68 -40 -125 -101 -143c89 -20 142 -84 142 -172c0 -58 -24 -108 -68 -143c-40 -31 -83 -44 -153 -44h-161c-7 0 -13 6 -13 13v640c0 8 6 14 13 14h162c62 0 99 -14 133 -49c31 -31 46 -70 46 -116zM132 616v-236h108c78 0 125 44 125 119
c0 76 -44 117 -125 117h-108zM132 329v-278h117c100 0 156 49 156 138c0 86 -59 140 -151 140h-122z" />
    <glyph glyph-name="C" unicode="C" horiz-adv-x="557" 
d="M536 89c6 0 11 -6 11 -14v-25c0 -31 -82 -58 -173 -58c-200 0 -334 132 -334 329c0 209 138 354 336 354c93 0 171 -26 171 -55v-27c0 -10 -4 -15 -12 -15c-5 0 -9 1 -19 8c-39 25 -88 38 -140 38c-163 0 -275 -124 -275 -306c0 -82 22 -142 70 -192
c51 -53 125 -84 202 -84c55 0 110 15 149 41c7 5 9 6 14 6z" />
    <glyph glyph-name="D" unicode="D" horiz-adv-x="648" 
d="M84 0c-7 0 -13 6 -13 13v640c0 8 6 14 13 14h198c113 0 183 -27 243 -93c55 -61 83 -137 83 -229c0 -100 -33 -186 -95 -250c-64 -68 -137 -95 -249 -95h-180zM132 616v-565h135c90 0 151 25 205 85c51 57 75 126 75 214c0 79 -21 137 -66 187c-50 55 -110 79 -201 79
h-148z" />
    <glyph glyph-name="E" unicode="E" horiz-adv-x="456" 
d="M402 616h-270v-236h219c8 0 14 -6 14 -13v-25c0 -7 -6 -13 -14 -13h-219v-278h290c8 0 13 -6 13 -14v-24c0 -7 -6 -13 -13 -13h-338c-7 0 -13 6 -13 13v640c0 8 6 14 13 14h318c7 0 13 -6 13 -14v-24c0 -7 -6 -13 -13 -13z" />
    <glyph glyph-name="F" unicode="F" horiz-adv-x="425" 
d="M402 616h-270v-236h219c8 0 14 -6 14 -13v-25c0 -7 -6 -13 -14 -13h-219v-316c0 -7 -6 -13 -14 -13h-34c-7 0 -13 6 -13 13v640c0 8 6 14 13 14h318c7 0 13 -6 13 -14v-24c0 -7 -6 -13 -13 -13z" />
    <glyph glyph-name="G" unicode="G" horiz-adv-x="618" 
d="M496 282c0 7 6 13 13 13h35c7 0 13 -6 13 -13v-228c0 -34 -84 -62 -187 -62c-197 0 -330 131 -330 327c0 211 139 356 342 356c93 0 175 -26 175 -55v-26c0 -11 -4 -17 -11 -17c-4 0 -8 2 -12 4l-4 3c-43 26 -95 40 -150 40c-166 0 -279 -123 -279 -305
c0 -171 110 -278 287 -278c71 0 108 11 108 32v209z" />
    <glyph glyph-name="H" unicode="H" horiz-adv-x="597" 
d="M132 653v-282h334v282c0 8 6 14 13 14h34c8 0 13 -6 13 -14v-640c0 -7 -5 -13 -13 -13h-34c-7 0 -13 6 -13 13v308h-334v-308c0 -7 -6 -13 -14 -13h-34c-7 0 -13 6 -13 13v640c0 8 6 14 13 14h34c8 0 14 -6 14 -14z" />
    <glyph glyph-name="I" unicode="I" horiz-adv-x="202" 
d="M84 0c-7 0 -13 6 -13 13v640c0 8 6 14 13 14h34c8 0 14 -6 14 -14v-640c0 -7 -6 -13 -14 -13h-34z" />
    <glyph glyph-name="J" unicode="J" horiz-adv-x="263" 
d="M142 653c0 8 6 14 13 14h34c8 0 14 -6 14 -14v-519c0 -58 -11 -87 -41 -112c-25 -20 -56 -30 -93 -30c-44 0 -69 10 -69 28v20c0 11 3 16 10 16c2 0 6 -2 10 -4c12 -7 24 -10 41 -10c54 0 81 30 81 91v520z" />
    <glyph glyph-name="K" unicode="K" horiz-adv-x="506" 
d="M132 653v-279h18l268 289l2 2l4 1l3 1h38c9 0 15 -5 15 -12c0 -5 -2 -8 -10 -16l-263 -274l288 -341c4 -4 6 -9 6 -13c0 -7 -5 -11 -14 -11h-50c-4 0 -7 2 -10 5l-279 333h-16v-325c0 -7 -6 -13 -14 -13h-34c-7 0 -13 6 -13 13v640c0 8 6 14 13 14h34c8 0 14 -6 14 -14z
" />
    <glyph glyph-name="L" unicode="L" horiz-adv-x="395" 
d="M132 653v-602h240c7 0 13 -6 13 -14v-24c0 -7 -6 -13 -13 -13h-288c-7 0 -13 6 -13 13v640c0 8 6 14 13 14h34c8 0 14 -6 14 -14z" />
    <glyph glyph-name="M" unicode="M" horiz-adv-x="739" 
d="M329 17l-209 565v-569c0 -7 -6 -13 -13 -13h-23c-7 0 -13 6 -13 13v640c0 8 6 14 13 14h46c17 0 23 -5 30 -23l214 -589l207 588c7 19 12 24 29 24h45c7 0 13 -6 13 -14v-640c0 -7 -6 -13 -13 -13h-34c-7 0 -13 6 -13 13v561l-199 -557c-5 -13 -13 -17 -32 -17h-23
c-14 0 -21 5 -25 17z" />
    <glyph glyph-name="N" unicode="N" horiz-adv-x="618" 
d="M469 18l-348 567v-572c0 -7 -5 -13 -13 -13h-24c-7 0 -13 6 -13 13v640c0 8 6 14 13 14h38c16 0 19 -2 28 -17l346 -567v570c0 8 6 14 13 14h25c7 0 13 -6 13 -14v-640c0 -7 -6 -13 -13 -13h-36c-15 0 -20 3 -29 18z" />
    <glyph glyph-name="O" unicode="O" horiz-adv-x="668" 
d="M334 -17c-187 0 -294 125 -294 345c0 221 107 347 296 347c188 0 292 -124 292 -350c0 -219 -106 -342 -294 -342zM336 624c-151 0 -235 -104 -235 -294c0 -191 83 -296 234 -296c150 0 232 105 232 295s-83 295 -231 295z" />
    <glyph glyph-name="P" unicode="P" horiz-adv-x="456" 
d="M210 278h-78v-265c0 -7 -6 -13 -14 -13h-34c-7 0 -13 6 -13 13v640c0 8 6 14 13 14h127c82 0 127 -13 168 -46c43 -36 66 -87 66 -150c0 -67 -20 -110 -66 -146c-44 -34 -91 -47 -169 -47zM132 616v-287h80c65 0 102 10 130 35c28 26 43 61 43 108c0 97 -56 144 -173 144
h-80z" />
    <glyph glyph-name="Q" unicode="Q" horiz-adv-x="668" 
d="M294 -11v4c-155 9 -254 143 -254 345c0 111 30 198 88 259c53 55 113 78 205 78c190 0 295 -120 295 -337c0 -168 -65 -284 -183 -329c-28 -10 -57 -16 -85 -16h-5v-2c0 -64 49 -102 132 -102c34 0 66 7 102 21l10 4c3 2 6 2 8 2c6 0 11 -5 11 -13v-26
c0 -21 -53 -37 -124 -37c-65 0 -116 14 -153 41c-34 26 -47 55 -47 108zM335 624c-151 0 -234 -103 -234 -292c0 -185 85 -290 233 -290c147 0 233 107 233 290c0 91 -24 173 -65 224c-37 44 -95 68 -167 68z" />
    <glyph glyph-name="R" unicode="R" horiz-adv-x="496" 
d="M237 321h-4l246 -294c3 -4 5 -6 5 -7c2 -2 2 -4 2 -7c0 -9 -7 -13 -21 -13h-38c-4 0 -8 2 -10 5l-264 316c-3 3 -5 5 -5 6c-2 1 -5 2 -8 2h-8v-316c0 -7 -6 -13 -14 -13h-34c-7 0 -13 6 -13 13v640c0 8 6 14 13 14h149c74 0 117 -14 152 -47c33 -32 50 -76 50 -125
c0 -107 -76 -174 -198 -174zM132 616v-245h101c89 0 142 46 142 124c0 77 -52 121 -142 121h-101z" />
    <glyph glyph-name="S" unicode="S" horiz-adv-x="446" 
d="M57 23c-13 5 -16 10 -16 21v30c0 10 4 16 13 16c4 0 7 -1 16 -8c37 -25 93 -42 141 -42c81 0 133 46 133 118c0 54 -14 75 -87 127l-120 85c-59 43 -86 87 -86 143c0 46 15 83 47 112c36 34 75 47 143 47c82 0 144 -20 144 -46v-26c0 -10 -4 -14 -12 -14c-3 0 -5 1 -12 5
c-33 20 -84 36 -122 36c-76 0 -128 -42 -128 -102c0 -39 20 -69 64 -101l127 -91c47 -33 56 -41 72 -64c21 -29 31 -62 31 -100c0 -106 -82 -177 -205 -177c-48 0 -101 11 -143 31z" />
    <glyph glyph-name="T" unicode="T" horiz-adv-x="486" 
d="M213 13v603h-190c-7 0 -13 6 -13 13v24c0 8 6 14 13 14h440c7 0 13 -6 13 -14v-24c0 -7 -6 -13 -13 -13h-190v-603c0 -7 -6 -13 -13 -13h-34c-7 0 -13 6 -13 13z" />
    <glyph glyph-name="U" unicode="U" horiz-adv-x="597" 
d="M61 653c0 8 6 14 13 14h34c8 0 13 -6 13 -14v-453c0 -110 63 -169 180 -169c53 0 98 13 130 37c39 30 55 68 55 132v453c0 8 6 14 13 14h24c8 0 14 -6 14 -14v-457c0 -133 -90 -213 -237 -213c-154 0 -239 76 -239 214v456z" />
    <glyph glyph-name="V" unicode="V" horiz-adv-x="557" 
d="M72 658l212 -613l206 613c2 4 8 9 13 9h29c8 0 14 -6 14 -13c0 -3 -1 -8 -3 -13l-214 -620c-8 -23 -14 -29 -30 -29h-29c-23 0 -30 5 -39 30l-217 616c-3 7 -4 13 -4 16c0 9 5 13 19 13h30c6 0 11 -4 13 -9z" />
    <glyph glyph-name="W" unicode="W" horiz-adv-x="861" 
d="M582 21l-150 578l-149 -577c-7 -26 -11 -30 -28 -30h-38c-17 0 -20 3 -29 30l-177 625c-1 3 -1 6 -1 8c0 8 6 12 18 12h33c8 0 11 -2 12 -7l2 -8l166 -596l152 598c5 17 11 21 31 21h25c19 0 25 -5 30 -21l155 -598l159 598c3 11 5 13 15 13h27c13 0 17 -3 17 -12
c0 -3 -1 -7 -2 -13l-176 -621c-8 -27 -11 -29 -25 -29h-40c-17 0 -20 3 -27 29z" />
    <glyph glyph-name="X" unicode="X" horiz-adv-x="527" 
d="M19 26l202 316l-205 299c-5 8 -6 11 -6 14c0 7 5 12 13 12h47c6 0 10 -2 13 -7l178 -268l169 267c3 6 6 8 12 8h34c9 0 13 -4 13 -12c0 -3 -1 -7 -5 -13l-191 -292l223 -325c3 -5 5 -10 5 -13c0 -8 -7 -12 -18 -12h-40c-6 0 -11 2 -15 8l-194 290l-182 -291
c-4 -5 -8 -7 -15 -7h-26c-11 0 -17 4 -17 12c0 4 2 9 5 14z" />
    <glyph glyph-name="Y" unicode="Y" horiz-adv-x="527" 
d="M233 13v273l-219 356c-3 6 -5 9 -5 12c0 9 5 13 15 13h40c5 0 10 -3 12 -7l192 -319l190 318c2 5 7 8 12 8h28c10 0 15 -4 15 -11c0 -3 -2 -8 -5 -14l-215 -349v-280c0 -7 -5 -13 -13 -13h-34c-7 0 -13 6 -13 13z" />
    <glyph glyph-name="Z" unicode="Z" horiz-adv-x="516" 
d="M477 602l-389 -551h395c7 0 13 -6 13 -14v-24c0 -7 -6 -13 -13 -13h-450c-7 0 -13 6 -13 13v38c0 9 1 11 9 22l384 543h-369c-8 0 -14 6 -14 13v24c0 8 6 14 14 14h429c7 0 13 -6 13 -14v-25c0 -11 -1 -14 -9 -26z" />
    <glyph glyph-name="bracketleft" unicode="[" horiz-adv-x="263" 
d="M149 678v-849h71c7 0 13 -6 13 -14v-21c0 -7 -6 -13 -13 -13h-116c-7 0 -13 6 -13 13v919c0 7 6 13 13 13h116c7 0 13 -6 13 -13v-22c0 -7 -6 -13 -13 -13h-71z" />
    <glyph glyph-name="backslash" unicode="\" 
d="M25 750h60l368 -833h-59z" />
    <glyph glyph-name="bracketright" unicode="]" horiz-adv-x="263" 
d="M44 -171h70v849h-70c-8 0 -14 6 -14 13v22c0 7 6 13 14 13h115c7 0 13 -6 13 -13v-919c0 -7 -6 -13 -13 -13h-115c-8 0 -14 6 -14 13v21c0 8 6 14 14 14z" />
    <glyph glyph-name="asciicircum" unicode="^" 
d="M249 621l-153 -249h-66l180 296h80l180 -296h-67z" />
    <glyph glyph-name="underscore" unicode="_" 
d="M0 -126v54h500v-54h-500z" />
    <glyph glyph-name="quoteleft" unicode="&#x2018;" horiz-adv-x="223" 
d="M140 659c-26 -28 -40 -60 -40 -90h13c30 0 49 -20 49 -52c0 -35 -20 -55 -54 -55c-46 0 -68 27 -68 82c0 42 19 89 50 123c18 20 24 24 37 24h12c8 0 14 -5 14 -13c0 -4 -2 -8 -7 -13z" />
    <glyph glyph-name="a" unicode="a" horiz-adv-x="466" 
d="M405 13c0 -7 -6 -13 -13 -13h-23c-10 0 -15 4 -15 13v6c0 4 -2 7 -8 7c-3 0 -7 -2 -20 -7c-54 -21 -84 -27 -121 -27c-102 0 -165 49 -165 131c0 69 41 109 149 148l123 44c26 9 32 18 32 44v18c0 60 -34 88 -106 88c-53 0 -96 -13 -145 -43c-4 -3 -9 -5 -12 -5
c-6 0 -10 6 -10 14v20c0 10 5 16 22 23c48 20 106 32 153 32c63 0 98 -10 126 -38c25 -25 33 -48 33 -97v-358zM344 96v183l-112 -38c-97 -34 -131 -64 -131 -119c0 -53 44 -88 109 -88c86 0 134 22 134 62z" />
    <glyph glyph-name="b" unicode="b" horiz-adv-x="537" 
d="M84 0c-7 0 -13 6 -13 13v683c0 7 6 13 13 13h34c8 0 14 -6 14 -13v-214c0 -7 2 -10 7 -10c1 0 4 1 6 3l7 4c28 17 71 27 112 27c141 0 232 -99 232 -253c0 -158 -94 -261 -239 -261c-45 0 -62 4 -117 30c-5 3 -8 3 -10 3c-6 0 -9 -3 -9 -8v-6c0 -7 -4 -11 -11 -11h-26z
M242 460c-71 0 -110 -24 -110 -66v-290c0 -47 39 -70 118 -70c115 0 185 81 185 213c0 137 -69 213 -193 213z" />
    <glyph glyph-name="c" unicode="c" horiz-adv-x="456" 
d="M426 68c6 0 9 -4 9 -11v-21c0 -25 -68 -45 -151 -45c-152 0 -244 95 -244 251c0 162 95 265 243 265c83 0 152 -23 152 -51v-17c0 -8 -4 -13 -11 -13c-3 0 -5 1 -15 6c-47 24 -79 32 -121 32c-115 0 -187 -83 -187 -218c0 -133 71 -212 192 -212c43 0 87 11 123 30
c4 2 8 4 10 4z" />
    <glyph glyph-name="d" unicode="d" horiz-adv-x="537" 
d="M453 709c7 0 13 -6 13 -13v-683c0 -7 -6 -13 -13 -13h-25c-9 0 -13 3 -13 11v7c0 5 -2 7 -7 7c-3 0 -4 0 -14 -5c-44 -20 -78 -28 -123 -28c-137 0 -231 102 -231 252c0 155 96 262 235 262c42 0 83 -10 113 -29c6 -4 8 -4 10 -4c5 0 7 3 7 9v214c0 7 6 13 13 13h35z
M286 34c74 0 119 25 119 66v298c0 38 -47 63 -119 63c-116 0 -185 -79 -185 -212c0 -135 70 -215 185 -215z" />
    <glyph glyph-name="e" unicode="e" horiz-adv-x="496" 
d="M453 262h-351c1 -83 9 -119 36 -158c15 -22 36 -39 58 -50c27 -14 59 -20 92 -20c43 0 92 14 120 35c7 4 14 8 18 8c6 0 9 -5 9 -13v-18c0 -28 -73 -54 -152 -54c-149 0 -243 98 -243 254c0 153 93 260 224 260c115 0 202 -87 202 -205v-26c0 -8 -6 -13 -13 -13zM259 464
c-84 0 -148 -66 -157 -160h303c-3 98 -59 160 -146 160z" />
    <glyph glyph-name="f" unicode="f" horiz-adv-x="294" 
d="M101 13v443h-68c-7 0 -13 6 -13 13v16c0 7 6 13 13 13h68v88c0 81 40 123 120 123c43 0 63 -7 63 -22v-20c0 -6 -3 -10 -8 -10c-3 0 -8 1 -13 3c-11 4 -25 7 -36 7c-49 0 -65 -20 -65 -78v-91h108c8 0 14 -6 14 -13v-16c0 -7 -6 -13 -14 -13h-108v-443
c0 -7 -6 -13 -13 -13h-35c-7 0 -13 6 -13 13z" />
    <glyph glyph-name="g" unicode="g" horiz-adv-x="537" 
d="M91 -132l9 -6l6 -3c40 -24 86 -36 134 -36c105 0 165 47 165 129v61c0 9 -2 13 -7 13c-2 0 -4 -1 -8 -3c-43 -23 -78 -31 -122 -31c-135 0 -228 102 -228 250c0 156 96 264 235 264c39 0 69 -7 117 -28c12 -5 15 -6 18 -6s5 2 5 6v9c0 7 4 11 12 11h26c7 0 13 -6 13 -13
v-497c0 -88 -14 -127 -59 -161c-41 -31 -95 -46 -161 -46c-57 0 -113 12 -154 32c-19 10 -21 12 -21 23v20c0 9 4 14 11 14c3 0 6 -1 9 -2zM286 34c68 0 119 27 119 65v287c0 51 -42 78 -119 78c-113 0 -185 -85 -185 -219c0 -72 16 -117 55 -157c35 -35 81 -54 130 -54z
" />
    <glyph glyph-name="h" unicode="h" horiz-adv-x="516" 
d="M84 0c-7 0 -13 6 -13 13v674c0 7 6 13 13 13h34c8 0 14 -5 14 -13v-205c0 -8 2 -11 7 -11c3 0 6 1 12 5c41 22 74 30 124 30c58 0 105 -17 137 -50c32 -34 44 -72 44 -140v-303c0 -7 -6 -13 -14 -13h-34c-7 0 -13 6 -13 13v304c0 57 -5 78 -24 103c-24 31 -57 44 -109 44
c-81 0 -130 -24 -130 -64v-387c0 -7 -6 -13 -14 -13h-34z" />
    <glyph glyph-name="i" unicode="i" horiz-adv-x="202" 
d="M84 0c-7 0 -13 6 -13 13v472c0 7 6 13 13 13h34c8 0 14 -6 14 -13v-472c0 -7 -6 -13 -14 -13h-34zM61 648v5c1 28 13 39 40 39c31 0 41 -11 41 -42c0 -30 -12 -42 -41 -42s-40 11 -40 40z" />
    <glyph glyph-name="j" unicode="j" horiz-adv-x="203" 
d="M129 498c7 0 13 -6 13 -13v-557c0 -111 -29 -156 -99 -156h-15c-12 0 -18 6 -18 17v13c0 9 4 12 14 12h7c39 0 50 22 50 100v571c0 7 6 13 13 13h35zM111 608c-29 0 -40 11 -40 41s13 43 40 43c29 0 41 -12 41 -41c0 -32 -11 -43 -41 -43z" />
    <glyph glyph-name="k" unicode="k" horiz-adv-x="425" 
d="M84 0c-7 0 -13 6 -13 13v683c0 7 6 13 13 13h34c8 0 14 -6 14 -13v-390c0 -8 1 -11 6 -11c3 0 7 2 10 6l195 193c3 3 6 4 10 4h40c8 0 12 -4 12 -11c0 -4 -2 -9 -6 -12l-189 -182c-6 -6 -8 -9 -8 -12s1 -6 6 -12l192 -232c11 -13 15 -20 15 -25c0 -7 -5 -12 -13 -12h-49
c-3 0 -7 2 -10 5l-195 241c-5 6 -7 7 -10 7c-4 0 -6 -3 -6 -9v-231c0 -7 -6 -13 -14 -13h-34z" />
    <glyph glyph-name="l" unicode="l" horiz-adv-x="202" 
d="M84 0c-7 0 -13 6 -13 13v683c0 7 6 13 13 13h34c8 0 14 -6 14 -13v-683c0 -7 -6 -13 -14 -13h-34z" />
    <glyph glyph-name="m" unicode="m" horiz-adv-x="820" 
d="M84 0c-7 0 -13 6 -13 13v472c0 7 6 13 13 13h26c9 0 11 -3 11 -12v-6c0 -5 3 -8 9 -8c5 0 8 1 22 8c32 17 76 26 118 26c57 0 92 -12 127 -47c8 -7 12 -10 16 -10c8 0 10 1 23 10c47 33 92 47 145 47c56 0 98 -15 130 -48c37 -37 48 -74 48 -157v-288
c0 -7 -5 -13 -13 -13h-34c-7 0 -13 6 -13 13v304c0 100 -45 147 -141 147c-70 0 -112 -27 -112 -72v-379c0 -7 -6 -13 -14 -13h-34c-7 0 -13 6 -13 13v299c0 84 -22 124 -77 143c-19 6 -38 9 -59 9c-79 0 -117 -22 -117 -67v-384c0 -7 -6 -13 -14 -13h-34z" />
    <glyph glyph-name="n" unicode="n" horiz-adv-x="516" 
d="M84 0c-7 0 -13 6 -13 13v472c0 7 6 13 13 13h25c8 0 12 -4 12 -12v-7c0 -3 4 -6 8 -6c2 0 5 0 8 2l11 5c42 18 81 26 123 26c57 0 106 -16 136 -45c35 -34 49 -77 49 -156v-292c0 -7 -6 -13 -14 -13h-34c-7 0 -13 6 -13 13v306c0 98 -43 145 -134 145
c-78 0 -129 -26 -129 -66v-385c0 -7 -6 -13 -14 -13h-34z" />
    <glyph glyph-name="o" unicode="o" horiz-adv-x="527" 
d="M263 -17c-144 0 -223 93 -223 261c0 169 79 262 222 262c142 0 224 -94 224 -257c0 -174 -77 -266 -223 -266zM264 464c-104 0 -163 -79 -163 -219c0 -139 60 -220 163 -220c102 0 161 80 161 217c0 142 -57 222 -161 222z" />
    <glyph glyph-name="p" unicode="p" horiz-adv-x="537" 
d="M178 9l-27 12l-7 3c-3 1 -4 1 -5 1c-6 0 -7 -3 -7 -12v-211c0 -7 -6 -13 -14 -13h-34c-7 0 -13 6 -13 13v683c0 7 6 13 13 13h26c8 0 11 -3 11 -12v-5c0 -5 3 -8 7 -8s6 0 15 5c34 19 73 28 117 28c142 0 236 -100 236 -252c0 -150 -98 -262 -229 -262
c-30 0 -67 7 -89 17zM251 464c-75 0 -119 -24 -119 -65v-296c0 -44 45 -69 125 -69c109 0 178 84 178 217c0 131 -71 213 -184 213z" />
    <glyph glyph-name="q" unicode="q" horiz-adv-x="537" 
d="M418 -211c-7 0 -13 6 -13 13v213c0 8 -2 11 -7 11c-2 0 -5 -1 -9 -4c-34 -20 -74 -31 -118 -31c-138 0 -231 102 -231 253c0 153 99 262 236 262c42 0 75 -8 118 -30c7 -4 9 -5 12 -5c6 0 9 3 9 9v6c0 9 3 12 11 12h27c7 0 13 -6 13 -13v-683c0 -7 -6 -13 -13 -13h-35z
M283 34c75 0 122 26 122 67v286c0 50 -42 77 -122 77c-112 0 -182 -82 -182 -213c0 -85 16 -130 62 -173c33 -31 69 -44 120 -44z" />
    <glyph glyph-name="r" unicode="r" horiz-adv-x="314" 
d="M84 0c-7 0 -13 6 -13 13v472c0 7 6 13 13 13h25c8 0 12 -4 12 -11v-11c0 -8 3 -12 9 -12c2 0 5 1 8 3c31 17 85 31 126 31h19c15 0 21 -5 21 -20v-22c0 -12 -5 -17 -15 -17c-3 0 -7 0 -11 1c-27 5 -57 9 -71 9c-53 0 -75 -22 -75 -72v-364c0 -7 -6 -13 -14 -13h-34z" />
    <glyph glyph-name="s" unicode="s" horiz-adv-x="365" 
d="M263 118c0 37 -13 55 -62 88l-69 47c-63 41 -82 69 -82 121c0 82 56 132 146 132c60 0 118 -23 118 -47v-18c0 -6 -4 -11 -9 -11c-4 0 -8 2 -16 6l-7 4c-32 16 -61 24 -88 24c-56 0 -93 -30 -93 -78c0 -33 9 -45 57 -78l85 -57c63 -42 81 -71 81 -125
c0 -81 -61 -135 -153 -135c-37 0 -86 12 -113 26l-5 3c-11 6 -12 8 -12 19v18c0 7 3 11 9 11c4 0 9 -2 15 -5c37 -21 64 -29 98 -29c62 0 100 32 100 84z" />
    <glyph glyph-name="t" unicode="t" horiz-adv-x="334" 
d="M301 456h-149v-339c0 -54 28 -83 78 -83c21 0 43 5 65 15c4 1 8 3 10 3c6 0 9 -4 9 -12v-13c0 -22 -39 -35 -98 -35c-79 0 -125 46 -125 126v338h-58c-7 0 -13 6 -13 13v16c0 7 6 13 13 13h58v130c0 7 6 13 13 13h35c7 0 13 -6 13 -13v-130h149c7 0 13 -6 13 -13v-16
c0 -7 -6 -13 -13 -13z" />
    <glyph glyph-name="u" unicode="u" horiz-adv-x="516" 
d="M108 498c8 0 13 -6 13 -13v-320c0 -84 48 -131 133 -131c86 0 131 24 131 72v379c0 7 6 13 13 13h34c8 0 14 -6 14 -13v-472c0 -7 -6 -13 -14 -13h-24c-9 0 -13 4 -13 11v6c0 5 -4 9 -9 9c-1 0 -3 0 -6 -1s-5 -2 -6 -2c-1 -1 -4 -1 -7 -3c-62 -21 -98 -28 -139 -28
c-47 0 -88 12 -117 36c-37 29 -50 65 -50 132v325c0 7 6 13 13 13h34z" />
    <glyph glyph-name="v" unicode="v" horiz-adv-x="425" 
d="M71 483l148 -420l141 415c6 19 8 20 22 20h20c11 0 15 -3 15 -10c0 -4 -1 -9 -3 -15l-162 -459c-7 -21 -9 -22 -20 -22h-38c-8 0 -11 2 -15 12l-4 11l-166 456c-3 8 -4 11 -4 13c0 8 8 14 18 14h25c14 0 19 -4 23 -15z" />
    <glyph glyph-name="w" unicode="w" horiz-adv-x="684" 
d="M445 26l-107 410l-103 -413l-4 -16c-3 -13 -5 -15 -16 -15h-43c-11 0 -13 2 -18 17l-6 18l-136 448c-1 3 -2 7 -2 10c0 9 4 13 14 13h32c12 0 14 -2 17 -12l126 -432l98 415c6 25 9 29 26 29h41c13 0 17 -2 20 -14c1 -2 2 -6 3 -11l109 -419l119 434c2 7 6 10 14 10h28
c9 0 12 -3 12 -10c0 -3 -1 -10 -3 -15l-128 -444l-5 -18c-3 -10 -6 -16 -8 -18c-2 -1 -6 -1 -11 -1h-44c-13 0 -16 2 -20 17z" />
    <glyph glyph-name="x" unicode="x" horiz-adv-x="410" 
d="M19 29l147 229l-147 215c-3 5 -6 11 -6 13c0 8 6 12 17 12h36c9 0 13 -2 17 -9l4 -7l118 -177l113 178l4 6c5 8 7 9 18 9h27c9 0 14 -3 14 -9c0 -3 -1 -7 -3 -10l-4 -6l-140 -213l156 -231c6 -9 8 -13 8 -18c0 -7 -6 -11 -16 -11h-35c-12 0 -16 3 -28 22l-123 192
l-118 -197l-5 -8c-4 -8 -7 -9 -15 -9h-33c-9 0 -15 5 -15 12c0 2 2 7 5 11c0 1 2 3 4 6z" />
    <glyph glyph-name="y" unicode="y" horiz-adv-x="425" 
d="M138 -129l57 142l-187 458c-2 5 -3 9 -3 13c0 9 5 14 15 14h28c16 0 19 -2 26 -20l146 -383l138 388c4 13 7 15 22 15h21c10 0 15 -4 15 -13c0 -3 -2 -9 -4 -14l-218 -598c-28 -75 -44 -92 -87 -92h-21c-12 0 -18 5 -18 15v26c0 12 5 18 16 18h9c24 0 36 8 45 31z" />
    <glyph glyph-name="z" unicode="z" horiz-adv-x="486" 
d="M51 62l314 394h-301c-7 0 -13 6 -13 13v16c0 7 5 13 13 13h358c7 0 13 -6 13 -13v-23c0 -6 -1 -12 -3 -15c-1 -2 -5 -7 -12 -16l-309 -389h321c8 0 14 -6 14 -13v-16c0 -7 -6 -13 -14 -13h-378c-8 0 -13 6 -13 13v22c0 11 2 18 10 27z" />
    <glyph glyph-name="braceleft" unicode="{" 
d="M268 359c0 -64 -15 -91 -61 -113c45 -24 61 -54 61 -117v-170c0 -74 20 -94 95 -95v-51h-19c-99 0 -136 41 -136 148v168c0 58 -15 83 -57 95v47c41 12 57 37 57 91v182c0 95 41 136 136 136c5 0 9 -1 19 -1v-50c-74 -2 -95 -22 -95 -91v-179z" />
    <glyph glyph-name="bar" unicode="|" 
d="M220 -250v1000h60v-1000h-60z" />
    <glyph glyph-name="braceright" unicode="}" 
d="M240 133c0 64 15 91 62 114c-46 23 -62 53 -62 116v171c0 74 -20 94 -95 95v50c10 0 15 1 19 1c99 0 136 -41 136 -149v-167c0 -58 15 -83 58 -95v-47c-42 -12 -58 -38 -58 -92v-181c0 -96 -40 -136 -135 -136h-20v51c75 2 95 21 95 91v178z" />
    <glyph glyph-name="asciitilde" unicode="~" horiz-adv-x="667" 
d="M223 662c-36 0 -62 -21 -93 -75l-36 24c40 80 77 110 134 110c27 0 58 -10 113 -36c59 -28 75 -34 100 -34c38 0 63 19 94 72l38 -23c-37 -73 -81 -107 -139 -107c-18 0 -56 10 -80 21l-59 27c-31 14 -53 21 -72 21z" />
    <glyph glyph-name="exclamdown" unicode="&#xa1;" horiz-adv-x="223" 
d="M59 515c0 8 5 13 13 13h18c8 0 13 -5 14 -13l7 -513c0 -8 -5 -14 -13 -14h-34c-7 0 -13 6 -13 14zM83 579c-33 0 -53 20 -53 53s18 52 50 52c34 0 52 -18 52 -53c0 -33 -19 -52 -49 -52z" />
    <glyph glyph-name="cent" unicode="&#xa2;" horiz-adv-x="456" 
d="M435 36c0 -23 -52 -39 -141 -45v-44c0 -9 -4 -13 -12 -13h-10c-8 0 -12 5 -12 13v42c-68 8 -108 25 -147 62c-48 46 -73 111 -73 191c0 153 89 260 220 264v45c0 9 4 13 12 13h10c8 0 12 -4 12 -13v-45h7c69 0 134 -25 134 -50v-17c0 -8 -4 -13 -11 -13c-3 0 -5 1 -15 6
c-46 23 -67 29 -115 30v-429c56 2 85 9 122 31c3 2 8 4 10 4c6 0 9 -4 9 -11v-21zM260 34v426c-101 -10 -159 -88 -159 -212c0 -123 65 -209 159 -214z" />
    <glyph glyph-name="sterling" unicode="&#xa3;" horiz-adv-x="486" 
d="M101 98v231h-47c-7 0 -13 6 -13 13v25c0 7 5 13 13 13h47v128c0 116 65 176 194 176c48 0 86 -10 123 -30c16 -9 17 -11 17 -22v-28c0 -9 -3 -14 -10 -14c-5 0 -9 2 -15 6l-4 2c-37 25 -71 35 -116 35c-89 0 -128 -39 -128 -127v-126h139c7 0 13 -6 13 -13v-25
c0 -7 -6 -13 -13 -13h-139v-169c0 -57 -8 -83 -36 -109h317c7 0 13 -6 13 -14v-24c0 -7 -6 -13 -13 -13h-389c-8 0 -13 6 -13 13v24c0 6 3 11 9 12l25 5c19 5 26 17 26 44z" />
    <glyph glyph-name="fraction" unicode="&#x2044;" horiz-adv-x="152" 
d="M-137 12l398 665l2 3c2 3 3 4 7 4h15c7 0 11 -4 11 -10c0 -2 -1 -4 -2 -6l-2 -4l-399 -666l-2 -3c-2 -3 -3 -3 -7 -3h-16c-7 0 -10 2 -10 6s1 5 5 14z" />
    <glyph glyph-name="yen" unicode="&#xa5;" horiz-adv-x="527" 
d="M125 286h108l-92 150h-96c-7 0 -13 6 -13 13v24c0 7 6 13 13 13h65l-96 156c-3 6 -5 9 -5 12c0 9 5 13 15 13h40c5 0 10 -3 12 -7l105 -174h174l103 173c2 5 7 8 12 8h28c10 0 15 -4 15 -11c0 -3 -2 -8 -5 -14l-96 -156h66c7 0 13 -6 13 -13v-24c0 -7 -6 -13 -13 -13h-97
l-88 -143v-7h105c7 0 13 -6 13 -13v-24c0 -7 -6 -13 -13 -13h-105v-223c0 -7 -5 -13 -13 -13h-34c-7 0 -13 6 -13 13v223h-108c-7 0 -13 6 -13 13v24c0 7 6 13 13 13zM324 436h-113l57 -95z" />
    <glyph glyph-name="florin" unicode="&#x192;" horiz-adv-x="440" 
d="M281 613l-22 -115h108c7 0 11 -5 11 -11v-2l-5 -25c-1 -7 -9 -13 -16 -13h-108l-101 -519c-13 -67 -22 -90 -45 -117c-23 -26 -50 -39 -84 -39h-15c-10 0 -15 4 -15 13v4l3 13c2 9 7 12 16 12h8c39 0 53 22 69 100l103 533h-81c-6 0 -11 5 -11 11v2l5 25c1 7 9 13 16 13
h81l22 112c16 82 64 123 144 123c37 0 58 -6 58 -17v-5l-4 -20c-1 -6 -5 -9 -10 -9c-3 0 -7 1 -12 3c-11 4 -23 6 -35 6c-49 0 -68 -19 -80 -78z" />
    <glyph glyph-name="section" unicode="&#xa7;" horiz-adv-x="446" 
d="M405 257c0 -86 -49 -150 -134 -175l7 -5c63 -39 87 -74 87 -129c0 -79 -64 -134 -155 -134c-60 0 -119 18 -119 37v27c0 7 6 12 14 12c3 0 6 0 9 -2l6 -3c23 -10 65 -20 89 -20c57 0 95 30 95 77c0 31 -16 55 -44 71l-25 13l-94 52c-69 39 -101 87 -101 155
c0 85 49 148 135 175c-72 47 -94 78 -94 132c0 83 60 135 154 135c66 0 119 -18 119 -39v-22c0 -10 -4 -15 -12 -15c-6 0 -8 1 -17 5l-7 3c-30 12 -55 17 -82 17c-57 0 -94 -30 -94 -77c0 -34 12 -53 50 -74l104 -59c82 -47 109 -86 109 -157zM172 134l57 -30
c72 22 115 73 115 138c0 55 -18 84 -71 112l-57 30c-65 -13 -115 -75 -115 -141c0 -46 25 -84 71 -109z" />
    <glyph glyph-name="currency" unicode="&#xa4;" horiz-adv-x="667" 
d="M97 85l-34 35l92 92c-36 45 -53 91 -53 144c0 52 16 94 52 142l-94 93l35 35l93 -93c50 38 92 53 146 53c53 0 95 -15 144 -53l93 92l34 -34l-92 -92c36 -49 51 -91 51 -143c0 -53 -15 -94 -51 -142l93 -94l-34 -35l-94 94c-45 -36 -91 -53 -144 -53
c-51 0 -94 16 -144 51zM509 355c0 98 -79 177 -176 177c-96 0 -175 -79 -175 -176s79 -176 175 -176c97 0 176 79 176 175z" />
    <glyph glyph-name="quotesingle" unicode="'" horiz-adv-x="178" 
d="M122 667l-11 -269h-44l-11 269h66z" />
    <glyph glyph-name="quotedblleft" unicode="&#x201c;" horiz-adv-x="375" 
d="M292 659c-26 -28 -39 -59 -40 -90h13c30 0 49 -20 49 -52c0 -35 -20 -55 -54 -55c-46 0 -68 27 -68 82c0 42 19 89 50 123c18 20 24 24 37 24h11c9 0 15 -5 15 -13c0 -4 -2 -8 -7 -13zM140 659c-26 -28 -40 -60 -40 -90h13c30 0 49 -20 49 -52c0 -35 -20 -55 -54 -55
c-46 0 -68 27 -68 82c0 42 19 89 50 123c18 20 24 24 37 24h12c8 0 14 -5 14 -13c0 -4 -2 -8 -7 -13z" />
    <glyph glyph-name="guillemotleft" unicode="&#xab;" horiz-adv-x="466" 
d="M378 452l-114 -191l117 -195c3 -6 4 -8 4 -12c0 -8 -4 -12 -16 -12h-22c-13 0 -16 2 -22 12l-6 8l-118 200l121 205c8 13 10 14 27 14h19c11 0 16 -4 16 -12c0 -4 -2 -9 -6 -17zM238 452l-114 -191l117 -195c3 -6 4 -8 4 -12c0 -8 -5 -12 -16 -12h-23c-12 0 -15 2 -21 12
l-6 8l-118 200l121 205c8 13 10 14 27 14h19c11 0 16 -4 16 -12c0 -5 -1 -9 -6 -17z" />
    <glyph glyph-name="guilsinglleft" unicode="&#x2039;" horiz-adv-x="324" 
d="M238 452l-114 -191l117 -195c3 -6 4 -8 4 -12c0 -8 -5 -12 -16 -12h-23c-12 0 -15 2 -21 12l-6 8l-118 200l121 205c8 13 10 14 27 14h19c11 0 16 -4 16 -12c0 -5 -1 -9 -6 -17z" />
    <glyph glyph-name="guilsinglright" unicode="&#x203a;" horiz-adv-x="324" 
d="M88 71l114 191l-116 195c-4 6 -5 8 -5 12c0 9 5 12 17 12h22c12 0 16 -2 21 -11l6 -9l118 -200l-121 -205c-8 -13 -9 -14 -27 -14h-18c-12 0 -17 4 -17 12c0 4 2 9 6 17z" />
    <glyph glyph-name="fi" unicode="&#xfb01;" horiz-adv-x="476" 
d="M101 13v443h-68c-7 0 -13 6 -13 13v16c0 7 6 13 13 13h68v36c0 69 16 109 53 138c32 25 73 37 124 37c81 0 137 -24 137 -58c0 -21 -14 -31 -42 -31c-22 0 -30 5 -37 22c-7 19 -18 25 -47 25c-92 0 -127 -33 -127 -120v-49h108c8 0 14 -6 14 -13v-16c0 -7 -6 -13 -14 -13
h-108v-443c0 -7 -6 -13 -13 -13h-35c-7 0 -13 6 -13 13zM358 0c-8 0 -14 6 -14 13v472c0 7 6 13 14 13h34c7 0 13 -6 13 -13v-472c0 -7 -6 -13 -13 -13h-34z" />
    <glyph glyph-name="fl" unicode="&#xfb02;" horiz-adv-x="476" 
d="M101 13v443h-68c-7 0 -13 6 -13 13v16c0 7 6 13 13 13h68v35c0 75 14 110 53 140c33 24 73 36 124 36c26 0 53 -3 76 -9h38c7 0 13 -6 13 -13v-674c0 -7 -6 -13 -13 -13h-34c-8 0 -14 6 -14 13v645c-17 6 -38 9 -60 9c-84 0 -122 -37 -122 -120v-49h108c8 0 14 -6 14 -13
v-16c0 -7 -6 -13 -14 -13h-108v-443c0 -7 -6 -13 -13 -13h-35c-7 0 -13 6 -13 13z" />
    <glyph glyph-name="endash" unicode="&#x2013;" 
d="M33 304v56h434v-56h-434z" />
    <glyph glyph-name="dagger" unicode="&#x2020;" horiz-adv-x="446" 
d="M422 458h-172v-664c0 -7 -6 -13 -13 -13h-29c-7 0 -13 6 -13 13v664h-172c-7 0 -13 6 -13 14v19c0 7 6 13 13 13h172v200c0 7 6 13 13 13h29c8 0 13 -6 13 -13v-200h172c7 0 13 -6 13 -13v-19c0 -8 -6 -14 -13 -14z" />
    <glyph glyph-name="daggerdbl" unicode="&#x2021;" horiz-adv-x="446" 
d="M422 458h-172v-418h172c7 0 13 -6 13 -14v-19c0 -7 -6 -13 -13 -13h-172v-200c0 -8 -5 -13 -13 -13h-29c-7 0 -13 5 -13 13v200h-172c-7 0 -13 6 -13 13v19c0 8 6 14 13 14h172v418h-172c-7 0 -13 6 -13 14v19c0 7 6 13 13 13h172v200c0 7 6 13 13 13h29
c8 0 13 -6 13 -13v-200h172c7 0 13 -6 13 -13v-19c0 -8 -6 -14 -13 -14z" />
    <glyph glyph-name="periodcentered" unicode="&#xb7;" horiz-adv-x="134" 
d="M68 290c-47 0 -68 19 -68 64c0 43 21 63 66 63s68 -21 68 -62c0 -43 -22 -65 -66 -65z" />
    <glyph glyph-name="paragraph" unicode="&#xb6;" horiz-adv-x="561" 
d="M272 -100h-53v413h-15c-108 0 -184 72 -184 175c0 75 42 140 107 162c31 11 70 17 111 17h254v-48h-57v-719h-53v719h-110v-719z" />
    <glyph glyph-name="bullet" unicode="&#x2022;" horiz-adv-x="667" 
d="M196 340c0 77 62 140 138 140c75 0 137 -63 137 -140s-62 -140 -137 -140c-76 0 -138 63 -138 140z" />
    <glyph glyph-name="quotesinglbase" unicode="&#x201a;" horiz-adv-x="223" 
d="M82 -103c27 29 40 59 40 90h-12c-31 0 -49 20 -49 51c0 36 19 55 54 55c45 0 67 -26 67 -82c0 -41 -19 -87 -50 -122c-17 -20 -23 -24 -36 -24h-12c-9 0 -14 5 -14 13c0 4 2 8 6 13z" />
    <glyph glyph-name="quotedblbase" unicode="&#x201e;" horiz-adv-x="375" 
d="M82 -103c26 28 40 59 40 90h-12c-31 0 -49 20 -49 51c0 36 19 55 54 55c45 0 67 -26 67 -81c0 -42 -19 -88 -50 -123c-17 -20 -23 -24 -36 -24h-12c-9 0 -14 5 -14 13c0 4 2 8 6 13zM234 -103c26 29 40 59 40 90h-12c-31 0 -50 20 -50 51c0 36 20 55 55 55
c45 0 67 -26 67 -82c0 -41 -19 -87 -50 -122c-17 -20 -23 -24 -36 -24h-12c-9 0 -14 5 -14 13c0 4 2 8 6 13z" />
    <glyph glyph-name="quotedblright" unicode="&#x201d;" horiz-adv-x="374" 
d="M82 495c26 27 40 59 40 90h-12c-31 0 -49 19 -49 51c0 35 19 55 54 55c45 0 67 -27 67 -82c0 -42 -19 -88 -50 -123c-17 -20 -23 -24 -36 -24h-12c-9 0 -14 5 -14 13c0 4 2 8 6 13zM234 495c26 28 40 59 40 90h-12c-31 0 -50 19 -50 51c0 35 20 55 55 55
c45 0 67 -27 67 -82c0 -42 -19 -88 -50 -123c-17 -20 -23 -24 -36 -24h-12c-9 0 -14 5 -14 13c0 4 2 8 6 13z" />
    <glyph glyph-name="guillemotright" unicode="&#xbb;" horiz-adv-x="466" 
d="M88 71l114 191l-116 195c-4 6 -5 8 -5 12c0 9 5 12 17 12h22c12 0 16 -2 21 -11l6 -9l118 -200l-121 -205c-8 -13 -9 -14 -27 -14h-18c-12 0 -17 4 -17 12c0 4 2 9 6 17zM229 71l114 191l-117 195c-4 6 -5 8 -5 12c0 9 5 12 17 12h22c12 0 16 -2 22 -11l5 -9l119 -200
l-122 -205c-8 -13 -9 -14 -27 -14h-18c-12 0 -17 4 -17 13c0 4 2 8 7 16z" />
    <glyph glyph-name="ellipsis" unicode="&#x2026;" horiz-adv-x="790" 
d="M158 -13c-40 0 -57 16 -57 53c0 36 18 53 55 53s57 -18 57 -52c0 -36 -18 -54 -55 -54zM421 -13c-39 0 -57 16 -57 53c0 36 18 53 55 53c38 0 57 -18 57 -52c0 -36 -18 -54 -55 -54zM685 -13c-40 0 -57 16 -57 53c0 36 17 53 55 53c37 0 56 -18 56 -52
c0 -36 -18 -54 -54 -54z" />
    <glyph glyph-name="perthousand" unicode="&#x2030;" horiz-adv-x="1099" 
d="M197 331c-83 0 -131 64 -131 176c0 115 47 178 132 178c82 0 131 -66 131 -177s-50 -177 -132 -177zM166 12l398 665l1 3c2 3 3 4 7 4h15c8 0 11 -4 11 -10c0 -1 0 -4 -1 -6c0 0 -1 -2 -3 -4l-399 -666l-2 -3c-1 -3 -3 -3 -7 -3h-15c-7 0 -10 2 -10 7c0 3 0 4 5 13z
M561 -8c-83 0 -131 64 -131 176c0 115 47 178 132 178c83 0 132 -66 132 -177c-1 -111 -50 -177 -133 -177zM900 -8c-83 0 -131 64 -131 176c0 115 47 178 132 178c82 0 131 -66 131 -177s-49 -177 -132 -177zM198 643c-55 0 -82 -44 -82 -134c0 -92 27 -136 82 -136
s80 43 80 137c0 89 -26 133 -80 133zM563 304c-55 0 -82 -44 -82 -134c0 -92 27 -136 82 -136s80 43 80 137c0 88 -26 133 -80 133zM902 304c-55 0 -82 -44 -82 -134c0 -92 26 -136 81 -136s81 43 81 137c0 88 -27 133 -80 133z" />
    <glyph glyph-name="questiondown" unicode="&#xbf;" horiz-adv-x="486" 
d="M270 537c8 0 14 -6 14 -13v-53c0 -43 -11 -65 -52 -106l-73 -74c-52 -52 -68 -81 -68 -124c0 -77 62 -128 156 -128c54 0 107 13 150 37l4 3c4 2 10 3 13 3c7 0 11 -4 11 -13v-27c0 -9 -3 -13 -16 -19c-43 -22 -104 -35 -164 -35c-132 0 -215 70 -215 182
c0 55 22 98 76 152l46 46c19 19 31 30 36 35c28 27 35 40 35 67v54c0 7 6 13 13 13h34zM253 692c34 0 51 -18 51 -53c0 -33 -18 -52 -51 -52c-32 0 -51 20 -51 53c0 34 18 52 51 52z" />
    <glyph glyph-name="grave" unicode="`" 
d="M277 566c-6 0 -7 0 -19 7l-115 64c-21 12 -27 19 -27 32c0 16 13 28 29 28c11 0 24 -6 37 -18l96 -82c9 -9 13 -14 13 -19c0 -6 -7 -12 -14 -12z" />
    <glyph glyph-name="acute" unicode="&#xb4;" 
d="M209 578c0 7 3 10 13 19l90 79c15 14 31 22 40 22s19 -6 26 -16c4 -6 6 -11 6 -15c0 -11 -8 -19 -35 -34l-113 -63c-5 -3 -11 -5 -14 -5c-7 0 -13 6 -13 13z" />
    <glyph glyph-name="circumflex" unicode="&#x2c6;" 
d="M358 568l-108 69l-109 -69c-2 -1 -4 -2 -7 -2c-4 0 -8 2 -11 6l-7 11c-2 2 -3 5 -3 7c0 4 2 8 5 11l124 101c2 2 5 3 8 3s6 -1 9 -3l123 -101c3 -3 5 -6 5 -10c0 -3 -1 -6 -3 -8l-8 -12c-3 -3 -7 -5 -11 -5c-2 0 -5 1 -7 2z" />
    <glyph glyph-name="tilde" unicode="&#x2dc;" 
d="M254 666l8 -8l5 -5l7 -7c5 -5 12 -8 19 -8c15 0 22 9 23 28c0 11 4 14 13 14h14c9 0 13 -4 13 -13v-8c0 -43 -26 -72 -66 -72c-24 0 -37 6 -55 26l-6 6c-6 7 -14 11 -22 11c-16 0 -23 -9 -23 -28c0 -10 -4 -14 -13 -14h-14c-9 0 -13 4 -13 13v5c0 44 30 74 72 74
c15 0 29 -5 38 -14z" />
    <glyph glyph-name="macron" unicode="&#xaf;" 
d="M132 608c-10 0 -14 4 -14 13v16c0 9 4 13 14 13h236c9 0 14 -4 14 -13v-16c0 -9 -5 -13 -14 -13h-236z" />
    <glyph glyph-name="breve" unicode="&#x2d8;" 
d="M117 648c0 2 3 6 7 10l11 11c1 1 2 1 3 2c3 3 4 4 6 4c3 0 5 -2 12 -8c26 -22 60 -35 94 -35c36 0 73 13 93 33c2 3 4 4 5 5c2 2 4 3 6 3v0c3 0 6 -1 8 -3l14 -12c5 -5 6 -7 6 -9c0 -3 -4 -10 -10 -18c-24 -31 -71 -50 -121 -50c-49 0 -98 19 -123 49c-6 7 -11 15 -11 18
z" />
    <glyph glyph-name="dotaccent" unicode="&#x2d9;" 
d="M209 630c0 2 0 3 1 5c1 28 12 39 40 39c30 0 41 -11 41 -43c0 -29 -13 -42 -41 -42c-29 0 -41 12 -41 41z" />
    <glyph glyph-name="dieresis" unicode="&#xa8;" 
d="M288 630c0 2 0 3 1 5c1 28 12 39 40 39c30 0 41 -11 41 -43c0 -29 -13 -42 -41 -42c-29 0 -41 12 -41 41zM130 630v5c2 28 13 39 41 39c30 0 40 -11 40 -43c0 -29 -12 -42 -40 -42c-29 0 -41 12 -41 41z" />
    <glyph glyph-name="ring" unicode="&#x2da;" 
d="M181 631v4c2 41 31 68 71 68s67 -28 67 -69c0 -42 -28 -70 -69 -70c-42 0 -69 26 -69 67zM252 678c-27 0 -44 -17 -44 -44l-1 -1c0 -27 17 -44 43 -44c27 0 44 17 44 45s-16 44 -42 44z" />
    <glyph glyph-name="cedilla" unicode="&#xb8;" 
d="M233 -55v55h40v-34c34 -11 51 -35 51 -71c0 -47 -41 -81 -99 -81h-9c-9 0 -13 5 -13 14v16c0 10 4 14 15 14l20 1c21 1 35 16 35 39c0 21 -4 25 -30 33c-8 3 -10 6 -10 14z" />
    <glyph glyph-name="hungarumlaut" unicode="&#x2dd;" 
d="M162 570c0 3 1 6 2 8l65 107c7 11 15 16 27 16c19 0 33 -14 33 -31c0 -10 -5 -20 -13 -26l-96 -80c-2 -2 -5 -3 -8 -3c-6 0 -10 4 -10 9zM303 570c0 3 0 5 2 7l61 107c7 11 16 17 28 17c20 0 35 -14 35 -32c0 -10 -4 -19 -11 -24l-98 -82c-2 -2 -5 -3 -8 -3
c-5 0 -9 5 -9 10z" />
    <glyph glyph-name="ogonek" unicode="&#x2db;" 
d="M286 -64c0 38 25 61 74 64v-9c-19 -15 -25 -25 -25 -44c0 -35 21 -52 64 -52h15c9 0 14 -5 14 -14v-7c0 -9 -5 -13 -14 -13h-12c-73 0 -116 28 -116 75z" />
    <glyph glyph-name="caron" unicode="&#x2c7;" 
d="M142 703l108 -70l109 70c2 1 4 2 7 2c4 0 8 -2 11 -6l8 -11c1 -2 2 -5 2 -8c0 -4 -2 -7 -5 -10l-124 -101c-2 -2 -5 -4 -8 -4s-6 2 -9 4l-123 101c-3 2 -5 6 -5 10c0 3 1 6 3 8l8 12c3 3 7 5 11 5c2 0 5 -1 7 -2z" />
    <glyph glyph-name="emdash" unicode="&#x2014;" horiz-adv-x="729" 
d="M13 236c-7 0 -13 6 -13 13v33c0 7 6 13 13 13h703c8 0 13 -5 13 -13v-33c0 -8 -5 -13 -13 -13h-703z" />
    <glyph glyph-name="AE" unicode="&#xc6;" horiz-adv-x="709" 
d="M405 12l-48 283h-178l-112 -286c-3 -7 -6 -9 -13 -9h-27c-12 0 -17 3 -17 9c0 3 0 4 5 16l241 607l7 17c5 13 15 18 42 18h350c7 0 13 -6 13 -14v-24c0 -7 -6 -13 -13 -13h-296l48 -262h197c8 0 14 -5 14 -13v-24c0 -7 -6 -13 -14 -13h-188l44 -253h215c8 0 13 -6 13 -14
v-24c0 -7 -5 -13 -13 -13h-256c-7 0 -13 5 -14 12zM199 346h148l-48 275z" />
    <glyph glyph-name="ordfeminine" unicode="&#xaa;" horiz-adv-x="358" 
d="M241 410v3v0h-1h-3c-1 -1 -3 -2 -7 -3l-16 -5c-17 -7 -33 -9 -50 -9c-57 0 -92 27 -92 72c0 37 23 59 82 79l66 23c13 4 16 8 16 20v9c0 29 -17 43 -54 43c-25 0 -50 -7 -70 -18l-7 -4c-3 -2 -6 -3 -8 -3c-5 0 -9 4 -9 11v10c0 7 4 11 14 15c27 11 58 17 84 17
c62 0 89 -22 89 -74v-186c0 -5 -4 -10 -10 -10h-13c-7 0 -11 3 -11 10zM75 330h200v-33h-200v33zM236 453v91l-56 -19c-51 -16 -69 -31 -69 -57c0 -27 21 -44 56 -44c43 0 69 11 69 29z" />
    <glyph glyph-name="Oslash" unicode="&#xd8;" horiz-adv-x="668" 
d="M335 675c75 0 103 -8 161 -44l30 48c4 6 5 7 9 7c2 0 6 -1 9 -3l9 -5c4 -3 7 -6 7 -11c0 -2 -1 -5 -3 -7l-31 -52c69 -61 102 -152 102 -279c0 -222 -105 -346 -291 -346c-63 0 -110 10 -161 35l-28 -46c-2 -4 -5 -5 -8 -5s-6 1 -9 3l-11 8c-3 2 -5 5 -5 9c0 2 1 3 4 8
l27 44c-50 49 -66 75 -84 138c-11 38 -17 78 -20 120c-1 17 -2 31 -2 45c0 100 34 195 90 256c47 51 116 77 205 77zM174 85l294 497c-39 32 -70 41 -130 41c-151 0 -234 -103 -234 -289c0 -111 25 -199 70 -249zM494 556l-290 -491c29 -23 71 -34 127 -34
c155 0 233 99 233 296c0 92 -19 168 -54 211c-3 4 -9 10 -16 18z" />
    <glyph glyph-name="OE" unicode="&#x152;" horiz-adv-x="871" 
d="M767 329h-220v-278h290c8 0 14 -6 14 -14v-24c0 -7 -6 -13 -14 -13h-351c-66 -7 -98 -10 -137 -10c-100 0 -170 25 -219 78c-60 64 -90 152 -89 264c0 169 71 293 189 329c34 10 71 15 115 15c17 0 34 -1 49 -2l53 -6l39 -1h331c8 0 13 -6 13 -14v-24
c0 -7 -5 -13 -13 -13h-270v-236h220c7 0 13 -6 13 -13v-25c0 -7 -6 -13 -13 -13zM486 62v527c-39 30 -80 43 -141 43c-81 0 -140 -27 -180 -81c-41 -56 -64 -133 -64 -217c0 -138 53 -242 142 -279c34 -14 70 -21 110 -21c53 0 87 7 133 28z" />
    <glyph glyph-name="ordmasculine" unicode="&#xba;" horiz-adv-x="358" 
d="M179 391c-80 0 -124 50 -124 139c0 90 44 140 123 140s125 -51 125 -137c0 -93 -43 -142 -124 -142zM59 330h240v-33h-240v33zM179 641c-54 0 -84 -39 -84 -110s31 -111 84 -111c54 0 84 40 84 109c0 72 -30 112 -84 112z" />
    <glyph glyph-name="ae" unicode="&#xe6;" horiz-adv-x="790" 
d="M746 262h-351c1 -81 8 -116 31 -152c16 -24 39 -44 66 -58c27 -13 58 -20 89 -20c42 0 81 12 121 37c6 4 13 7 17 7c6 0 10 -5 10 -12v-16c0 -31 -70 -56 -157 -56c-90 0 -162 40 -190 108c-18 -68 -86 -108 -182 -108c-98 0 -160 50 -160 129c0 39 15 73 41 95
s54 36 116 58l118 42c20 7 29 19 29 36v35c0 52 -35 77 -107 77c-49 0 -98 -14 -139 -40c-5 -4 -12 -6 -16 -6c-7 0 -11 6 -11 18v14c0 16 12 24 61 39c37 11 75 17 112 17c91 0 144 -31 147 -87c25 52 92 87 166 87c117 0 203 -86 203 -204v-27c0 -8 -6 -13 -14 -13z
M344 136v146l-126 -47c-89 -33 -117 -60 -117 -110c0 -57 42 -91 112 -91c78 0 131 42 131 102zM554 464c-85 0 -145 -60 -160 -160h305c-3 100 -58 160 -145 160z" />
    <glyph glyph-name="dotlessi" unicode="&#x131;" horiz-adv-x="202" 
d="M84 0c-7 0 -13 6 -13 13v472c0 7 6 13 13 13h34c8 0 14 -6 14 -13v-472c0 -7 -6 -13 -14 -13h-34z" />
    <glyph glyph-name="oslash" unicode="&#xf8;" horiz-adv-x="527" 
d="M261 506c53 0 71 -4 115 -28l29 47c3 5 7 8 10 8c2 0 5 -2 8 -4l14 -8c5 -3 7 -6 7 -9c0 -2 -1 -5 -3 -8l-29 -48c48 -41 74 -117 74 -214c0 -166 -79 -259 -221 -259c-49 0 -69 5 -118 28l-30 -47c-4 -6 -6 -8 -10 -8c-3 0 -6 1 -8 3l-13 8c-6 4 -8 6 -8 10c0 2 1 5 3 8
l32 50c-51 51 -73 115 -73 218c0 160 82 253 221 253zM141 84l211 352c-29 23 -43 28 -86 28c-108 0 -164 -73 -164 -215c0 -81 11 -128 39 -165zM382 406l-211 -351c36 -25 53 -30 93 -30c104 0 161 76 161 214c0 82 -13 133 -43 167z" />
    <glyph glyph-name="oe" unicode="&#x153;" horiz-adv-x="881" 
d="M837 262h-350c0 -84 8 -118 42 -162s81 -66 139 -66c38 0 85 13 124 36c7 4 14 6 18 6c7 0 10 -5 10 -14v-17c0 -13 -8 -20 -40 -32c-37 -14 -78 -21 -118 -21c-98 0 -172 44 -206 125c-29 -81 -98 -125 -192 -125c-142 0 -224 93 -224 256c0 165 81 258 224 258
c99 0 166 -44 195 -128c34 83 100 128 187 128c117 0 205 -87 205 -204v-27c0 -8 -6 -13 -14 -13zM262 464c-101 0 -161 -79 -161 -213c0 -138 59 -217 162 -217c102 0 162 78 162 208c0 78 -11 122 -41 162s-71 60 -122 60zM646 464c-87 0 -153 -67 -159 -160h303v6
c0 90 -60 154 -144 154z" />
    <glyph glyph-name="germandbls" unicode="&#xdf;" horiz-adv-x="527" 
d="M310 315l25 -15l60 -38c68 -42 91 -77 91 -137c0 -82 -59 -133 -155 -133c-43 0 -76 7 -110 22c-16 8 -18 11 -18 20v20c0 8 4 14 10 14c3 0 7 -2 12 -4l6 -3c41 -20 66 -27 99 -27c57 0 95 33 95 85c0 36 -15 58 -59 87l-66 43c-65 42 -88 77 -88 130c0 55 20 83 82 116
l15 9l25 13c27 14 41 36 41 67c0 52 -39 83 -105 83c-88 0 -138 -51 -138 -140v-514c0 -7 -6 -13 -14 -13h-34c-7 0 -13 6 -13 13v503c0 78 20 121 72 156c37 25 79 37 128 37c98 0 164 -53 164 -131c0 -53 -19 -76 -91 -108l-26 -12c-39 -17 -55 -38 -55 -71
c0 -29 15 -53 47 -72z" />
    <glyph glyph-name="Adieresis" unicode="&#xc4;" horiz-adv-x="557" 
d="M486 9l-89 253h-246l-87 -253c-3 -7 -5 -9 -13 -9h-23c-13 0 -18 4 -18 13c0 2 1 7 2 11l212 611l6 18c5 17 14 22 35 22h22c18 0 22 -1 27 -5c4 -4 7 -9 9 -15c2 -4 4 -11 8 -20l215 -612c1 -3 2 -8 2 -10c0 -9 -6 -13 -18 -13h-32c-7 0 -10 2 -12 9zM331 783v5
c2 28 13 38 40 38c31 0 41 -10 41 -41c0 -30 -12 -43 -40 -43c-29 0 -41 12 -41 41zM136 783v5c2 28 13 38 40 38c31 0 41 -10 41 -41c0 -30 -12 -43 -40 -43c-29 0 -41 12 -41 41zM168 312h211l-108 311z" />
    <glyph glyph-name="Aring" unicode="&#xc5;" horiz-adv-x="557" 
d="M486 9l-89 253h-246l-87 -253c-3 -7 -5 -9 -13 -9h-23c-13 0 -18 4 -18 13c0 2 1 7 2 11l212 611l6 18c5 17 14 22 35 22h22c18 0 22 -1 27 -5c4 -4 7 -9 9 -15c2 -4 4 -11 8 -20l215 -612c1 -3 2 -8 2 -10c0 -9 -6 -13 -18 -13h-32c-7 0 -10 2 -12 9zM207 782l1 4
c1 41 30 68 70 68c41 0 67 -27 67 -69s-27 -70 -68 -70c-43 0 -70 26 -70 67zM168 312h211l-108 311zM279 829c-27 0 -44 -16 -45 -43v-2c0 -27 16 -44 43 -44c26 0 43 18 43 45c0 28 -15 44 -41 44z" />
    <glyph glyph-name="Ccedilla" unicode="&#xc7;" horiz-adv-x="557" 
d="M547 50c0 -28 -60 -51 -148 -58v-26c33 -11 50 -35 50 -71c0 -47 -41 -81 -99 -81h-9c-9 0 -13 5 -13 14v16c0 10 4 14 15 14l20 1c21 1 36 16 36 39c0 21 -5 25 -30 33c-9 3 -11 6 -11 14v47c-194 9 -318 137 -318 329c0 209 138 354 336 354c93 0 171 -26 171 -55v-27
c0 -10 -4 -15 -12 -15c-5 0 -9 1 -19 8c-39 25 -88 38 -140 38c-163 0 -275 -124 -275 -306c0 -82 22 -142 70 -192c51 -53 125 -84 202 -84c55 0 110 15 149 41c7 5 9 6 14 6c6 0 11 -6 11 -14v-25z" />
    <glyph glyph-name="Eacute" unicode="&#xc9;" horiz-adv-x="456" 
d="M402 616h-270v-236h219c8 0 14 -6 14 -13v-25c0 -7 -6 -13 -14 -13h-219v-278h290c8 0 13 -6 13 -14v-24c0 -7 -6 -13 -13 -13h-338c-7 0 -13 6 -13 13v640c0 8 6 14 13 14h318c7 0 13 -6 13 -14v-24c0 -7 -6 -13 -13 -13zM193 731c0 7 2 10 12 19l90 79
c16 14 32 22 41 22c8 0 18 -6 25 -16c4 -6 6 -11 6 -15c0 -11 -8 -19 -35 -34l-113 -63c-5 -3 -10 -5 -13 -5c-7 0 -13 6 -13 13z" />
    <glyph glyph-name="Ntilde" unicode="&#xd1;" horiz-adv-x="618" 
d="M469 18l-348 567v-572c0 -7 -5 -13 -13 -13h-24c-7 0 -13 6 -13 13v640c0 8 6 14 13 14h38c16 0 19 -2 28 -17l346 -567v570c0 8 6 14 13 14h25c7 0 13 -6 13 -14v-640c0 -7 -6 -13 -13 -13h-36c-15 0 -20 3 -29 18zM313 817l8 -8l5 -5l7 -7c4 -5 12 -8 18 -8
c16 0 23 9 24 28c0 10 3 14 13 14h14c9 0 13 -4 13 -13v-8c0 -44 -26 -72 -67 -72c-23 0 -36 6 -55 26l-5 6c-6 7 -14 11 -22 11c-16 0 -23 -9 -23 -28c0 -11 -4 -15 -13 -15h-14c-9 0 -14 5 -14 14v5c0 43 30 74 73 74c15 0 29 -5 38 -14z" />
    <glyph glyph-name="Odieresis" unicode="&#xd6;" horiz-adv-x="668" 
d="M334 -17c-187 0 -294 125 -294 345c0 221 107 347 296 347c188 0 292 -124 292 -350c0 -219 -106 -342 -294 -342zM390 783v5c2 28 13 38 40 38c31 0 41 -10 41 -41c0 -30 -12 -43 -40 -43c-29 0 -41 12 -41 41zM195 783v5c2 28 13 38 40 38c31 0 41 -10 41 -41
c0 -30 -12 -43 -40 -43c-29 0 -41 12 -41 41zM336 624c-151 0 -235 -104 -235 -294c0 -191 83 -296 234 -296c150 0 232 105 232 295s-83 295 -231 295z" />
    <glyph glyph-name="Udieresis" unicode="&#xdc;" horiz-adv-x="597" 
d="M61 653c0 8 6 14 13 14h34c8 0 13 -6 13 -14v-453c0 -110 63 -169 180 -169c53 0 98 13 130 37c39 30 55 68 55 132v453c0 8 6 14 13 14h24c8 0 14 -6 14 -14v-457c0 -133 -90 -213 -237 -213c-154 0 -239 76 -239 214v456zM358 783v5c2 28 13 38 40 38
c31 0 41 -10 41 -41c0 -30 -12 -43 -40 -43c-29 0 -41 12 -41 41zM163 783v5c1 28 13 38 40 38c31 0 41 -10 41 -41c0 -30 -12 -43 -40 -43c-30 0 -41 12 -41 41z" />
    <glyph glyph-name="aacute" unicode="&#xe1;" horiz-adv-x="466" 
d="M405 13c0 -7 -6 -13 -13 -13h-23c-10 0 -15 4 -15 13v6c0 4 -2 7 -8 7c-3 0 -7 -2 -20 -7c-54 -21 -84 -27 -121 -27c-102 0 -165 49 -165 131c0 69 41 109 149 148l123 44c26 9 32 18 32 44v18c0 60 -34 88 -106 88c-53 0 -96 -13 -145 -43c-4 -3 -9 -5 -12 -5
c-6 0 -10 6 -10 14v20c0 10 5 16 22 23c48 20 106 32 153 32c63 0 98 -10 126 -38c25 -25 33 -48 33 -97v-358zM192 578c0 7 3 10 13 19l90 79c15 14 31 22 40 22s19 -6 26 -16c4 -6 6 -11 6 -15c0 -11 -9 -19 -35 -34l-113 -63c-6 -3 -11 -5 -14 -5c-7 0 -13 6 -13 13z
M344 96v183l-112 -38c-97 -34 -131 -64 -131 -119c0 -53 44 -88 109 -88c86 0 134 22 134 62z" />
    <glyph glyph-name="agrave" unicode="&#xe0;" horiz-adv-x="466" 
d="M405 13c0 -7 -6 -13 -13 -13h-23c-10 0 -15 4 -15 13v6c0 4 -2 7 -8 7c-3 0 -7 -2 -20 -7c-54 -21 -84 -27 -121 -27c-102 0 -165 49 -165 131c0 69 41 109 149 148l123 44c26 9 32 18 32 44v18c0 60 -34 88 -106 88c-53 0 -96 -13 -145 -43c-4 -3 -9 -5 -12 -5
c-6 0 -10 6 -10 14v20c0 10 5 16 22 23c48 20 106 32 153 32c63 0 98 -10 126 -38c25 -25 33 -48 33 -97v-358zM260 566c-6 0 -7 0 -19 7l-115 64c-21 12 -27 19 -27 32c0 16 13 28 29 28c11 0 24 -6 37 -18l96 -82c9 -9 13 -14 13 -19c0 -6 -7 -12 -14 -12zM344 96v183
l-112 -38c-97 -34 -131 -64 -131 -119c0 -53 44 -88 109 -88c86 0 134 22 134 62z" />
    <glyph glyph-name="acircumflex" unicode="&#xe2;" horiz-adv-x="466" 
d="M405 13c0 -7 -6 -13 -13 -13h-23c-10 0 -15 4 -15 13v6c0 4 -2 7 -8 7c-3 0 -7 -2 -20 -7c-54 -21 -84 -27 -121 -27c-102 0 -165 49 -165 131c0 69 41 109 149 148l123 44c26 9 32 18 32 44v18c0 60 -34 88 -106 88c-53 0 -96 -13 -145 -43c-4 -3 -9 -5 -12 -5
c-6 0 -10 6 -10 14v20c0 10 5 16 22 23c48 20 106 32 153 32c63 0 98 -10 126 -38c25 -25 33 -48 33 -97v-358zM341 568l-108 69l-109 -69c-2 -1 -4 -2 -7 -2c-4 0 -8 2 -11 6l-8 11c-1 2 -2 5 -2 7c0 4 2 8 5 11l124 101c2 2 5 3 8 3s6 -1 9 -3l123 -101c3 -3 5 -6 5 -10
c0 -3 -1 -6 -3 -8l-8 -12c-3 -3 -7 -5 -11 -5c-2 0 -5 1 -7 2zM344 96v183l-112 -38c-97 -34 -131 -64 -131 -119c0 -53 44 -88 109 -88c86 0 134 22 134 62z" />
    <glyph glyph-name="adieresis" unicode="&#xe4;" horiz-adv-x="466" 
d="M405 13c0 -7 -6 -13 -13 -13h-23c-10 0 -15 4 -15 13v6c0 4 -2 7 -8 7c-3 0 -7 -2 -20 -7c-54 -21 -84 -27 -121 -27c-102 0 -165 49 -165 131c0 69 41 109 149 148l123 44c26 9 32 18 32 44v18c0 60 -34 88 -106 88c-53 0 -96 -13 -145 -43c-4 -3 -9 -5 -12 -5
c-6 0 -10 6 -10 14v20c0 10 5 16 22 23c48 20 106 32 153 32c63 0 98 -10 126 -38c25 -25 33 -48 33 -97v-358zM271 630v5c2 28 13 39 41 39c30 0 41 -11 41 -43c0 -29 -13 -42 -41 -42c-29 0 -41 12 -41 41zM113 630v5c2 28 13 39 41 39c30 0 40 -11 40 -43
c0 -29 -12 -42 -40 -42c-29 0 -41 12 -41 41zM344 96v183l-112 -38c-97 -34 -131 -64 -131 -119c0 -53 44 -88 109 -88c86 0 134 22 134 62z" />
    <glyph glyph-name="atilde" unicode="&#xe3;" horiz-adv-x="466" 
d="M405 13c0 -7 -6 -13 -13 -13h-23c-10 0 -15 4 -15 13v6c0 4 -2 7 -8 7c-3 0 -7 -2 -20 -7c-54 -21 -84 -27 -121 -27c-102 0 -165 49 -165 131c0 69 41 109 149 148l123 44c26 9 32 18 32 44v18c0 60 -34 88 -106 88c-53 0 -96 -13 -145 -43c-4 -3 -9 -5 -12 -5
c-6 0 -10 6 -10 14v20c0 10 5 16 22 23c48 20 106 32 153 32c63 0 98 -10 126 -38c25 -25 33 -48 33 -97v-358zM237 666l8 -8l5 -5l7 -7c4 -5 12 -8 19 -8c15 0 22 9 23 28c0 11 3 14 13 14h14c9 0 13 -4 13 -13v-8c0 -43 -26 -72 -67 -72c-23 0 -36 6 -54 26l-6 6
c-6 7 -14 11 -22 11c-16 0 -23 -9 -23 -28c0 -10 -4 -14 -13 -14h-14c-9 0 -13 4 -13 13v5c0 44 29 74 72 74c15 0 29 -5 38 -14zM344 96v183l-112 -38c-97 -34 -131 -64 -131 -119c0 -53 44 -88 109 -88c86 0 134 22 134 62z" />
    <glyph glyph-name="aring" unicode="&#xe5;" horiz-adv-x="466" 
d="M168 631v4c2 41 30 68 71 68c40 0 66 -28 66 -69c0 -42 -27 -70 -68 -70c-43 0 -69 26 -69 67zM405 13c0 -7 -6 -13 -13 -13h-23c-10 0 -15 4 -15 13v6c0 4 -2 7 -8 7c-3 0 -6 -1 -15 -5l-5 -2c-58 -22 -83 -27 -121 -27c-102 0 -165 49 -165 131c0 69 41 109 149 148
l123 44c26 9 32 18 32 44v18c0 60 -34 88 -106 88c-49 0 -92 -12 -131 -36l-7 -4c-12 -7 -14 -8 -19 -8c-6 0 -10 6 -10 14v20c0 11 4 15 22 22c52 22 106 33 159 33c57 0 93 -11 120 -38c25 -25 33 -48 33 -97v-358zM239 678c-27 0 -44 -17 -45 -44v-1c0 -27 16 -44 43 -44
c26 0 43 17 43 45s-15 44 -41 44zM344 96v183l-112 -38c-97 -34 -131 -64 -131 -119c0 -54 44 -88 110 -88c35 0 79 8 104 20l8 3c16 8 21 18 21 39z" />
    <glyph glyph-name="ccedilla" unicode="&#xe7;" horiz-adv-x="456" 
d="M435 36c0 -23 -51 -40 -130 -44v-26c33 -11 50 -35 50 -71c0 -47 -41 -81 -99 -81h-9c-9 0 -13 5 -13 14v16c0 10 4 14 15 14l20 1c21 1 36 16 36 39c0 21 -4 25 -30 33c-9 3 -11 6 -11 14v47c-68 4 -111 21 -151 59c-48 46 -73 111 -73 191c0 162 95 265 243 265
c83 0 152 -23 152 -51v-17c0 -8 -4 -13 -11 -13c-3 0 -5 1 -15 6c-47 24 -79 32 -121 32c-115 0 -187 -83 -187 -218c0 -133 71 -212 192 -212c43 0 87 11 123 30c4 2 8 4 10 4c6 0 9 -4 9 -11v-21z" />
    <glyph glyph-name="eacute" unicode="&#xe9;" horiz-adv-x="496" 
d="M453 262h-351c1 -83 9 -119 36 -158c15 -22 36 -39 58 -50c27 -14 59 -20 92 -20c43 0 92 14 120 35c7 4 14 8 18 8c6 0 9 -5 9 -13v-18c0 -28 -73 -54 -152 -54c-149 0 -243 98 -243 254c0 153 93 260 224 260c115 0 202 -87 202 -205v-26c0 -8 -6 -13 -13 -13zM207 578
c0 7 3 10 13 19l90 79c16 14 31 22 40 22s19 -6 26 -16c4 -6 6 -11 6 -15c0 -11 -8 -19 -35 -34l-113 -63c-5 -3 -11 -5 -14 -5c-7 0 -13 6 -13 13zM259 464c-84 0 -148 -66 -157 -160h303c-3 98 -59 160 -146 160z" />
    <glyph glyph-name="egrave" unicode="&#xe8;" horiz-adv-x="496" 
d="M453 262h-351c1 -83 9 -119 36 -158c15 -22 36 -39 58 -50c27 -14 59 -20 92 -20c43 0 92 14 120 35c7 4 14 8 18 8c6 0 9 -5 9 -13v-18c0 -28 -73 -54 -152 -54c-149 0 -243 98 -243 254c0 153 93 260 224 260c115 0 202 -87 202 -205v-26c0 -8 -6 -13 -13 -13zM275 566
c-5 0 -7 0 -19 7l-115 64c-21 12 -27 19 -27 32c0 16 13 28 29 28c11 0 24 -6 37 -18l96 -82c9 -9 13 -14 13 -19c0 -6 -7 -12 -14 -12zM259 464c-84 0 -148 -66 -157 -160h303c-3 98 -59 160 -146 160z" />
    <glyph glyph-name="ecircumflex" unicode="&#xea;" horiz-adv-x="496" 
d="M453 262h-351c1 -83 9 -119 36 -158c15 -22 36 -39 58 -50c27 -14 59 -20 92 -20c43 0 92 14 120 35c7 4 14 8 18 8c6 0 9 -5 9 -13v-18c0 -28 -73 -54 -152 -54c-149 0 -243 98 -243 254c0 153 93 260 224 260c115 0 202 -87 202 -205v-26c0 -8 -6 -13 -13 -13zM363 568
l-108 69l-109 -69c-2 -1 -5 -2 -7 -2c-4 0 -8 2 -11 6l-8 11c-1 2 -2 5 -2 7c0 4 2 8 5 11l124 101c2 2 5 3 8 3s6 -1 8 -3l124 -101c3 -3 5 -6 5 -10c0 -3 -1 -6 -3 -8l-8 -12c-3 -3 -7 -5 -11 -5c-3 0 -5 1 -7 2zM259 464c-84 0 -148 -66 -157 -160h303
c-3 98 -59 160 -146 160z" />
    <glyph glyph-name="edieresis" unicode="&#xeb;" horiz-adv-x="496" 
d="M453 262h-351c1 -83 9 -119 36 -158c15 -22 36 -39 58 -50c27 -14 59 -20 92 -20c43 0 92 14 120 35c7 4 14 8 18 8c6 0 9 -5 9 -13v-18c0 -28 -73 -54 -152 -54c-149 0 -243 98 -243 254c0 153 93 260 224 260c115 0 202 -87 202 -205v-26c0 -8 -6 -13 -13 -13zM293 630
v5c2 28 13 39 41 39c30 0 40 -11 40 -43c0 -29 -12 -42 -40 -42c-29 0 -41 12 -41 41zM135 630v5c2 28 13 39 40 39c31 0 41 -11 41 -43c0 -29 -12 -42 -40 -42c-29 0 -41 12 -41 41zM259 464c-84 0 -148 -66 -157 -160h303c-3 98 -59 160 -146 160z" />
    <glyph glyph-name="iacute" unicode="&#xed;" horiz-adv-x="202" 
d="M84 0c-7 0 -13 6 -13 13v472c0 7 6 13 13 13h35c7 0 13 -6 13 -13v-472c0 -7 -6 -13 -13 -13h-35zM27 578c0 7 3 10 13 19l90 79c15 14 31 22 40 22s19 -6 26 -16c4 -6 6 -11 6 -15c0 -11 -9 -19 -35 -34l-113 -63c-6 -3 -11 -5 -14 -5c-7 0 -13 6 -13 13z" />
    <glyph glyph-name="igrave" unicode="&#xec;" horiz-adv-x="202" 
d="M84 0c-7 0 -13 6 -13 13v472c0 7 6 13 13 13h34c8 0 14 -6 14 -13v-472c0 -7 -6 -13 -14 -13h-34zM162 566c-6 0 -7 0 -19 7l-116 64c-21 12 -27 19 -27 32c0 16 13 28 30 28c10 0 24 -6 37 -18l95 -82c10 -9 13 -14 13 -19c0 -6 -6 -12 -13 -12z" />
    <glyph glyph-name="icircumflex" unicode="&#xee;" horiz-adv-x="202" 
d="M84 0c-7 0 -13 6 -13 13v472c0 7 6 13 13 13h34c8 0 14 -6 14 -13v-472c0 -7 -6 -13 -14 -13h-34zM180 571l-79 66l-78 -66c-2 -1 -4 -2 -6 -2c-3 0 -4 1 -8 6l-8 8c-2 3 -3 6 -3 10c0 2 1 4 4 8l93 101c2 2 4 3 6 3c3 0 5 -1 6 -3l94 -101c3 -4 4 -6 4 -8
c0 -4 -1 -7 -3 -10l-8 -8c-4 -5 -6 -6 -9 -6c-1 0 -4 1 -5 2z" />
    <glyph glyph-name="idieresis" unicode="&#xef;" horiz-adv-x="202" 
d="M84 0c-7 0 -13 6 -13 13v472c0 7 6 13 13 13h34c8 0 14 -6 14 -13v-472c0 -7 -6 -13 -14 -13h-34zM120 630v5c1 28 13 39 40 39c31 0 41 -11 41 -43c0 -29 -12 -42 -40 -42c-30 0 -41 12 -41 41zM1 630c0 2 0 3 1 5c1 28 12 39 40 39c30 0 41 -11 41 -43
c0 -29 -13 -42 -41 -42c-29 0 -41 12 -41 41z" />
    <glyph glyph-name="ntilde" unicode="&#xf1;" horiz-adv-x="516" 
d="M84 0c-7 0 -13 6 -13 13v472c0 7 6 13 13 13h25c8 0 12 -4 12 -12v-7c0 -3 4 -6 8 -6c2 0 5 0 8 2l11 5c42 18 81 26 123 26c57 0 106 -16 136 -45c35 -34 49 -77 49 -156v-292c0 -7 -6 -13 -14 -13h-34c-7 0 -13 6 -13 13v306c0 98 -43 145 -134 145
c-78 0 -129 -26 -129 -66v-385c0 -7 -6 -13 -14 -13h-34zM262 666l8 -8l5 -5l7 -7c5 -5 12 -8 19 -8c15 0 23 9 23 28c0 11 4 14 13 14h14c9 0 14 -4 14 -13v-8c0 -43 -27 -72 -67 -72c-24 0 -37 6 -55 26l-6 6c-6 7 -14 11 -22 11c-15 0 -23 -9 -23 -28
c0 -10 -3 -14 -13 -14h-14c-9 0 -13 4 -13 13v5c0 44 30 74 72 74c15 0 29 -5 38 -14z" />
    <glyph glyph-name="oacute" unicode="&#xf3;" horiz-adv-x="527" 
d="M263 -17c-144 0 -223 93 -223 261c0 169 79 262 222 262c142 0 224 -94 224 -257c0 -174 -77 -266 -223 -266zM223 578c0 7 2 10 12 19l91 79c15 14 31 22 40 22c8 0 18 -6 25 -16c4 -6 6 -11 6 -15c0 -11 -8 -19 -35 -34l-113 -63c-5 -3 -10 -5 -13 -5
c-7 0 -13 6 -13 13zM264 464c-104 0 -163 -79 -163 -219c0 -139 60 -220 163 -220c102 0 161 80 161 217c0 142 -57 222 -161 222z" />
    <glyph glyph-name="ograve" unicode="&#xf2;" horiz-adv-x="527" 
d="M263 -17c-144 0 -223 93 -223 261c0 169 79 262 222 262c142 0 224 -94 224 -257c0 -174 -77 -266 -223 -266zM291 566c-6 0 -8 0 -20 7l-115 64c-21 12 -27 19 -27 32c0 16 13 28 29 28c11 0 24 -6 38 -18l95 -82c9 -9 13 -14 13 -19c0 -6 -6 -12 -13 -12zM264 464
c-104 0 -163 -79 -163 -219c0 -139 60 -220 163 -220c102 0 161 80 161 217c0 142 -57 222 -161 222z" />
    <glyph glyph-name="ocircumflex" unicode="&#xf4;" horiz-adv-x="527" 
d="M263 -17c-144 0 -223 93 -223 261c0 169 79 262 222 262c142 0 224 -94 224 -257c0 -174 -77 -266 -223 -266zM371 568l-107 69l-109 -69c-2 -1 -5 -2 -8 -2c-4 0 -8 2 -10 6l-8 11c-2 2 -3 5 -3 7c0 4 2 8 5 11l124 101c3 2 6 3 9 3s6 -1 8 -3l124 -101c3 -3 4 -6 4 -10
c0 -3 -1 -6 -2 -8l-9 -12c-2 -3 -6 -5 -11 -5c-2 0 -5 1 -7 2zM264 464c-104 0 -163 -79 -163 -219c0 -139 60 -220 163 -220c102 0 161 80 161 217c0 142 -57 222 -161 222z" />
    <glyph glyph-name="odieresis" unicode="&#xf6;" horiz-adv-x="527" 
d="M263 -17c-144 0 -223 93 -223 261c0 169 79 262 222 262c142 0 224 -94 224 -257c0 -174 -77 -266 -223 -266zM302 630v5c1 28 13 39 40 39c31 0 41 -11 41 -43c0 -29 -12 -42 -40 -42c-30 0 -41 12 -41 41zM143 630c0 2 1 3 1 5c1 28 12 39 40 39c30 0 41 -11 41 -43
c0 -29 -13 -42 -41 -42c-29 0 -41 12 -41 41zM264 464c-104 0 -163 -79 -163 -219c0 -139 60 -220 163 -220c102 0 161 80 161 217c0 142 -57 222 -161 222z" />
    <glyph glyph-name="otilde" unicode="&#xf5;" horiz-adv-x="527" 
d="M263 -17c-144 0 -223 93 -223 261c0 169 79 262 222 262c142 0 224 -94 224 -257c0 -174 -77 -266 -223 -266zM267 666l8 -8l5 -5l7 -7c5 -5 12 -8 19 -8c15 0 23 9 23 28c0 11 4 14 13 14h14c10 0 14 -4 14 -13v-8c0 -43 -27 -72 -67 -72c-24 0 -37 6 -55 26l-5 6
c-7 7 -15 11 -23 11c-15 0 -22 -9 -22 -28c0 -10 -4 -14 -14 -14h-14c-9 0 -13 4 -13 13v5c0 44 30 74 72 74c16 0 29 -5 38 -14zM264 464c-104 0 -163 -79 -163 -219c0 -139 60 -220 163 -220c102 0 161 80 161 217c0 142 -57 222 -161 222z" />
    <glyph glyph-name="uacute" unicode="&#xfa;" horiz-adv-x="516" 
d="M108 498c8 0 13 -6 13 -13v-320c0 -84 48 -131 133 -131c86 0 131 24 131 72v379c0 7 6 13 13 13h34c8 0 14 -6 14 -13v-472c0 -7 -6 -13 -14 -13h-24c-9 0 -13 4 -13 11v6c0 5 -4 9 -9 9c-1 0 -3 0 -6 -1s-5 -2 -6 -2c-1 -1 -4 -1 -7 -3c-62 -21 -98 -28 -139 -28
c-47 0 -88 12 -117 36c-37 29 -50 65 -50 132v325c0 7 6 13 13 13h34zM217 578c0 7 3 10 13 19l90 79c16 14 31 22 40 22s19 -6 26 -16c4 -6 6 -11 6 -15c0 -11 -8 -19 -35 -34l-113 -63c-5 -3 -11 -5 -14 -5c-7 0 -13 6 -13 13z" />
    <glyph glyph-name="ugrave" unicode="&#xf9;" horiz-adv-x="516" 
d="M108 498c8 0 13 -6 13 -13v-320c0 -84 48 -131 133 -131c86 0 131 24 131 72v379c0 7 6 13 13 13h34c8 0 14 -6 14 -13v-472c0 -7 -6 -13 -14 -13h-24c-9 0 -13 4 -13 11v6c0 5 -4 9 -9 9c-1 0 -3 0 -6 -1s-5 -2 -6 -2c-1 -1 -4 -1 -7 -3c-62 -21 -98 -28 -139 -28
c-47 0 -88 12 -117 36c-37 29 -50 65 -50 132v325c0 7 6 13 13 13h34zM286 566c-6 0 -8 0 -20 7l-115 64c-21 12 -27 19 -27 32c0 16 13 28 29 28c11 0 24 -6 37 -18l96 -82c9 -9 13 -14 13 -19c0 -6 -7 -12 -13 -12z" />
    <glyph glyph-name="ucircumflex" unicode="&#xfb;" horiz-adv-x="516" 
d="M108 498c8 0 13 -6 13 -13v-320c0 -84 48 -131 133 -131c86 0 131 24 131 72v379c0 7 6 13 13 13h34c8 0 14 -6 14 -13v-472c0 -7 -6 -13 -14 -13h-24c-9 0 -13 4 -13 11v6c0 5 -4 9 -9 9c-1 0 -3 0 -6 -1s-5 -2 -6 -2c-1 -1 -4 -1 -7 -3c-62 -21 -98 -28 -139 -28
c-47 0 -88 12 -117 36c-37 29 -50 65 -50 132v325c0 7 6 13 13 13h34zM366 568l-108 69l-108 -69c-3 -1 -5 -2 -8 -2c-4 0 -8 2 -10 6l-8 11c-2 2 -3 5 -3 7c0 4 2 8 5 11l124 101c2 2 5 3 8 3c4 0 7 -1 9 -3l123 -101c3 -3 5 -6 5 -10c0 -3 -1 -6 -2 -8l-9 -12
c-2 -3 -7 -5 -11 -5c-2 0 -5 1 -7 2z" />
    <glyph glyph-name="udieresis" unicode="&#xfc;" horiz-adv-x="516" 
d="M108 498c8 0 13 -6 13 -13v-320c0 -84 48 -131 133 -131c86 0 131 24 131 72v379c0 7 6 13 13 13h34c8 0 14 -6 14 -13v-472c0 -7 -6 -13 -14 -13h-24c-9 0 -13 4 -13 11v6c0 5 -4 9 -9 9c-1 0 -3 0 -6 -1s-5 -2 -6 -2c-1 -1 -4 -1 -7 -3c-62 -21 -98 -28 -139 -28
c-47 0 -88 12 -117 36c-37 29 -50 65 -50 132v325c0 7 6 13 13 13h34zM297 630v5c1 28 13 39 40 39c31 0 41 -11 41 -43c0 -29 -12 -42 -40 -42c-30 0 -41 12 -41 41zM138 630c0 2 0 3 1 5c1 28 12 39 40 39c30 0 41 -11 41 -43c0 -29 -13 -42 -41 -42c-29 0 -41 12 -41 41z
" />
    <glyph glyph-name="degree" unicode="&#xb0;" 
d="M250 400c-77 0 -139 61 -139 136s62 135 139 135s139 -60 139 -135s-63 -136 -139 -136zM250 632c-54 0 -98 -43 -98 -96s44 -96 98 -96s98 43 98 96s-44 96 -98 96z" />
    <glyph glyph-name="registered" unicode="&#xae;" 
d="M250 763c111 0 200 -89 200 -200c0 -110 -90 -200 -200 -200s-200 90 -200 200c0 111 90 200 200 200zM250 389c96 0 174 78 174 174c0 97 -78 174 -174 174s-174 -78 -174 -174s78 -174 174 -174zM250 559l-1 1l76 -92c2 -2 2 -3 2 -4c0 -3 -2 -4 -6 -4h-12
c-1 0 -3 1 -3 1l-82 99c-1 1 -2 1 -2 1s0 1 -1 1h-1h-3v-98c0 -2 -2 -4 -4 -4h-11c-2 0 -4 2 -4 4v199c0 2 2 4 4 4h47c40 0 62 -19 62 -53s-23 -55 -61 -55zM217 651v-76h32c27 0 44 14 44 38s-16 38 -44 38h-32z" />
    <glyph glyph-name="copyright" unicode="&#xa9;" horiz-adv-x="799" 
d="M399 675c192 0 346 -155 346 -346s-155 -346 -346 -346s-346 155 -346 346s155 346 346 346zM399 18c170 0 308 139 308 311s-137 312 -308 312c-170 -1 -308 -140 -308 -312s138 -311 308 -311zM521 192c6 0 10 -4 10 -11v-15c0 -20 -49 -38 -109 -38
c-123 0 -206 80 -206 198c0 125 85 212 208 212c60 0 107 -16 107 -36v-15c0 -8 -4 -12 -10 -12c-4 0 -6 0 -14 5c-23 14 -52 22 -83 22c-98 0 -165 -72 -165 -177c0 -95 67 -160 163 -160c33 0 66 9 89 24c5 3 6 3 10 3z" />
    <glyph glyph-name="trademark" unicode="&#x2122;" horiz-adv-x="715" 
d="M130 294v344h-108c-5 0 -8 3 -8 7v14c0 4 3 8 8 8h250c4 0 8 -4 8 -8v-14c0 -4 -4 -7 -8 -7h-108v-344c0 -4 -3 -7 -7 -7h-20c-4 0 -7 3 -7 7zM473 296l-119 323v-325c0 -4 -4 -7 -8 -7h-13c-4 0 -7 3 -7 7v365c0 4 3 8 7 8h27c9 0 13 -3 17 -13l122 -336l118 335
c3 11 7 14 16 14h26c4 0 7 -4 7 -8v-365c0 -4 -3 -7 -7 -7h-20c-4 0 -7 3 -7 7v320l-113 -318c-3 -7 -8 -9 -18 -9h-14c-8 0 -12 2 -14 9z" />
    <glyph glyph-name="notequal" unicode="&#x2260;" 
d="M33 437h241l55 114h51l-55 -114h141l1 -55h-167l-46 -97h213v-54h-238l-56 -118h-51l56 118h-144v54h169l47 97h-217v55z" />
    <glyph glyph-name="infinity" unicode="&#x221e;" horiz-adv-x="667" 
d="M500 189c-65 0 -115 33 -165 110c-53 -76 -104 -110 -167 -110c-88 0 -149 62 -149 152c0 88 62 150 149 150c62 0 114 -34 164 -110c52 78 102 110 168 110c87 0 148 -62 148 -151s-61 -151 -148 -151zM493 437c-48 0 -82 -25 -129 -97c45 -69 82 -97 130 -97
c54 0 93 40 93 97s-40 97 -94 97zM174 243c47 0 81 25 129 97c-45 69 -82 97 -130 97c-54 0 -93 -40 -93 -97s39 -97 94 -97z" />
    <glyph glyph-name="plusminus" unicode="&#xb1;" 
d="M33 343v56h187v175h60v-175h187v-56h-187v-175h-60v175h-187zM33 70v56h434v-56h-434z" />
    <glyph glyph-name="lessequal" unicode="&#x2264;" 
d="M33 398l434 193v-57l-369 -163l368 -163l1 -57l-434 194v53zM33 121h434v-55h-434v55z" />
    <glyph glyph-name="greaterequal" unicode="&#x2265;" 
d="M467 344l-434 -193v57l369 163l-368 163l-1 57l434 -194v-53zM467 66h-434v55h434v-55z" />
    <glyph glyph-name="mu" unicode="&#xb5;" 
d="M111 -166h-60v645h60v-275c0 -83 14 -119 58 -148c21 -13 48 -21 75 -21c87 0 143 70 143 179v265h59v-479h-59v92c-34 -74 -77 -105 -145 -105c-58 0 -97 22 -131 76v-229z" />
    <glyph glyph-name="partialdiff" unicode="&#x2202;" 
d="M227 566c-51 31 -82 42 -146 51l8 54c68 -9 91 -15 134 -34c81 -35 146 -97 187 -178c32 -64 51 -143 51 -219c0 -149 -89 -251 -219 -251c-119 0 -218 101 -218 225c0 123 93 222 209 222c67 0 109 -22 153 -81c-3 7 -5 12 -6 15c-26 68 -34 84 -62 119
c-26 32 -51 53 -91 77zM397 218c0 98 -63 166 -152 166s-159 -76 -159 -172c0 -94 70 -169 157 -169c88 0 154 75 154 175z" />
    <glyph glyph-name="summation" unicode="&#x2211;" horiz-adv-x="667" 
d="M30 750h563v-222h-55l-5 168h-435l252 -426l-254 -466h447l3 167h57v-221h-573v62l249 459l-249 418v61z" />
    <glyph glyph-name="product" unicode="&#x220f;" horiz-adv-x="691" 
d="M36 696v54h619v-54h-78v-892h78v-54h-221v54h82v892h-341v-892h81v-54h-220v54h78v892h-78z" />
    <glyph glyph-name="pi" unicode="&#x3c0;" horiz-adv-x="561" 
d="M160 0h-61v459h-74v55h511v-55h-73v-459h-60v459h-243v-459z" />
    <glyph glyph-name="integral" unicode="&#x222b;" 
d="M158 -249c-22 0 -32 2 -52 10l14 53c20 -8 28 -10 43 -10c48 0 56 16 56 118v646c0 99 4 121 25 146c21 24 50 36 88 36c21 0 34 -2 62 -11l-14 -53c-20 8 -28 10 -43 10c-44 0 -56 -19 -56 -96v-47v-621c-1 -89 -3 -111 -18 -134c-18 -30 -57 -47 -105 -47z" />
    <glyph glyph-name="Omega" unicode="&#x3a9;" horiz-adv-x="667" 
d="M288 0h-260v54h189c-126 73 -189 175 -189 308c0 181 133 321 305 321s305 -140 305 -321c0 -132 -63 -236 -188 -308h188v-54h-259v49c66 38 100 66 133 111c43 57 64 123 64 195c0 153 -107 274 -241 274c-140 0 -245 -118 -245 -274c0 -131 65 -231 198 -306v-49z" />
    <glyph glyph-name="logicalnot" unicode="&#xac;" 
d="M467 0h-60v212h-374v55h434v-267z" />
    <glyph glyph-name="radical" unicode="&#x221a;" horiz-adv-x="667" 
d="M415 827h252v-55h-201l-226 -772h-72l-87 305h-81v55h129l41 -137c5 -14 8 -29 15 -62c8 -36 10 -46 17 -74h5l5 21l17 67l26 103l48 162z" />
    <glyph glyph-name="approxequal" unicode="&#x2248;" 
d="M140 419c-36 0 -64 -21 -93 -74l-37 24c37 76 78 109 134 109c28 0 58 -9 114 -36c59 -28 74 -33 99 -33c39 0 64 18 95 71l38 -22c-38 -74 -81 -108 -140 -108c-18 0 -55 10 -80 22l-59 27c-30 14 -53 20 -71 20zM140 260c-36 0 -63 -21 -93 -74l-37 24
c37 76 78 109 134 109c28 0 59 -10 114 -36c59 -28 74 -33 99 -33c39 0 64 19 95 71l38 -22c-38 -74 -82 -108 -140 -108c-18 0 -55 10 -80 22l-59 27c-30 14 -53 20 -71 20z" />
    <glyph glyph-name="Delta" unicode="&#x394;" horiz-adv-x="667" 
d="M637 0h-607l270 667h65zM333 594l-217 -539h433z" />
    <glyph glyph-name="nbspace" unicode="&#xa0;" horiz-adv-x="333" 
d="M0 0z" />
    <glyph glyph-name="Agrave" unicode="&#xc0;" horiz-adv-x="557" 
d="M486 9l-89 253h-246l-87 -253c-3 -7 -5 -9 -13 -9h-23c-13 0 -18 4 -18 13c0 2 1 7 2 11l212 611l6 18c5 17 14 22 35 22h22c18 0 22 -1 27 -5c4 -4 7 -9 9 -15c2 -4 4 -11 8 -20l215 -612c1 -3 2 -8 2 -10c0 -9 -6 -13 -18 -13h-32c-7 0 -10 2 -12 9zM318 715
c-6 0 -7 1 -19 7l-116 65c-21 12 -27 18 -27 31c0 16 13 28 30 28c10 0 24 -6 37 -18l95 -82c10 -8 13 -14 13 -19c0 -6 -6 -12 -13 -12zM168 312h211l-108 311z" />
    <glyph glyph-name="Atilde" unicode="&#xc3;" horiz-adv-x="557" 
d="M486 9l-89 253h-246l-87 -253c-3 -7 -5 -9 -13 -9h-23c-13 0 -18 4 -18 13c0 2 1 7 2 11l212 611l6 18c5 17 14 22 35 22h22c18 0 22 -1 27 -5c4 -4 7 -9 9 -15c2 -4 4 -11 8 -20l215 -612c1 -3 2 -8 2 -10c0 -9 -6 -13 -18 -13h-32c-7 0 -10 2 -12 9zM276 817l8 -8l5 -5
l7 -7c4 -5 12 -8 18 -8c16 0 23 9 24 28c0 10 3 14 13 14h14c9 0 13 -4 13 -13v-8c0 -44 -26 -72 -67 -72c-23 0 -36 6 -55 26l-5 6c-6 7 -14 11 -22 11c-16 0 -23 -9 -23 -28c0 -11 -4 -15 -13 -15h-14c-9 0 -14 5 -14 14v5c0 43 30 74 73 74c15 0 29 -5 38 -14zM168 312
h211l-108 311z" />
    <glyph glyph-name="Otilde" unicode="&#xd5;" horiz-adv-x="668" 
d="M334 -17c-187 0 -294 125 -294 345c0 221 107 347 296 347c188 0 292 -124 292 -350c0 -219 -106 -342 -294 -342zM338 817l8 -8l5 -5l7 -7c5 -5 12 -8 19 -8c15 0 23 9 23 28c0 10 4 14 13 14h14c9 0 14 -4 14 -13v-8c0 -44 -27 -72 -67 -72c-24 0 -37 6 -55 26l-6 6
c-6 7 -14 11 -22 11c-15 0 -23 -9 -23 -28c0 -11 -3 -15 -13 -15h-14c-9 0 -13 5 -13 14v5c0 43 30 74 72 74c15 0 29 -5 38 -14zM336 624c-151 0 -235 -104 -235 -294c0 -191 83 -296 234 -296c150 0 232 105 232 295s-83 295 -231 295z" />
    <glyph glyph-name="divide" unicode="&#xf7;" 
d="M206 516c0 24 20 44 44 44s44 -20 44 -44s-20 -44 -44 -43c-24 0 -44 19 -44 43zM206 147c0 24 20 43 44 43s44 -19 44 -43s-20 -44 -44 -44s-44 20 -44 44zM33 304v56h434v-56h-434z" />
    <glyph glyph-name="lozenge" unicode="&#x25ca;" horiz-adv-x="667" 
d="M74 334l259 359l260 -359l-260 -360zM523 334l-190 261l-190 -261l190 -262z" />
    <glyph glyph-name="ydieresis" unicode="&#xff;" horiz-adv-x="425" 
d="M138 -129l57 142l-187 458c-2 5 -3 9 -3 13c0 9 5 14 15 14h28c16 0 19 -2 26 -20l146 -383l138 388c4 13 7 15 22 15h21c10 0 15 -4 15 -13c0 -3 -2 -9 -4 -14l-218 -598c-28 -75 -44 -92 -87 -92h-21c-12 0 -18 5 -18 15v26c0 12 5 18 16 18h9c24 0 36 8 45 31z
M251 630v5c2 28 13 39 41 39c30 0 40 -11 40 -43c0 -29 -12 -42 -40 -42c-29 0 -41 12 -41 41zM93 630v5c2 28 13 39 40 39c31 0 41 -11 41 -43c0 -29 -12 -42 -40 -42c-29 0 -41 12 -41 41z" />
    <glyph glyph-name="Ydieresis" unicode="&#x178;" horiz-adv-x="527" 
d="M233 13v273l-219 356c-3 6 -5 9 -5 12c0 9 5 13 15 13h40c5 0 10 -3 12 -7l192 -319l190 318c2 5 7 8 12 8h28c10 0 15 -4 15 -11c0 -3 -2 -8 -5 -14l-215 -349v-280c0 -7 -5 -13 -13 -13h-34c-7 0 -13 6 -13 13zM319 783v5c2 28 13 38 40 38c31 0 41 -10 41 -41
c0 -30 -12 -43 -40 -43c-29 0 -41 12 -41 41zM124 783v5c2 28 13 38 40 38c31 0 41 -10 41 -41c0 -30 -12 -43 -40 -43c-29 0 -41 12 -41 41z" />
    <glyph glyph-name="Acircumflex" unicode="&#xc2;" horiz-adv-x="557" 
d="M486 9l-89 253h-246l-87 -253c-3 -7 -5 -9 -13 -9h-23c-13 0 -18 4 -18 13c0 2 1 7 2 11l212 611l6 18c5 17 14 22 35 22h22c18 0 22 -1 27 -5c4 -4 7 -9 9 -15c2 -4 4 -11 8 -20l215 -612c1 -3 2 -8 2 -10c0 -9 -6 -13 -18 -13h-32c-7 0 -10 2 -12 9zM383 720l-107 69
l-109 -69c-3 -1 -5 -2 -8 -2c-4 0 -8 2 -10 6l-8 11c-2 2 -3 5 -3 7c0 4 2 8 5 11l124 101c2 2 5 3 9 3c3 0 6 -1 8 -3l123 -101c3 -3 5 -6 5 -10c0 -3 -1 -6 -2 -8l-9 -12c-2 -3 -6 -5 -11 -5c-2 0 -5 1 -7 2zM168 312h211l-108 311z" />
    <glyph glyph-name="Ecircumflex" unicode="&#xca;" horiz-adv-x="456" 
d="M402 616h-270v-236h219c8 0 14 -6 14 -13v-25c0 -7 -6 -13 -14 -13h-219v-278h290c8 0 13 -6 13 -14v-24c0 -7 -6 -13 -13 -13h-338c-7 0 -13 6 -13 13v640c0 8 6 14 13 14h318c7 0 13 -6 13 -14v-24c0 -7 -6 -13 -13 -13zM336 720l-108 69l-109 -69c-2 -1 -4 -2 -7 -2
c-4 0 -8 2 -11 6l-8 11c-1 2 -2 5 -2 7c0 4 2 8 5 11l124 101c2 2 5 3 8 3s6 -1 9 -3l123 -101c3 -3 5 -6 5 -10c0 -3 -1 -6 -3 -8l-8 -12c-3 -3 -7 -5 -11 -5c-2 0 -5 1 -7 2z" />
    <glyph glyph-name="Aacute" unicode="&#xc1;" horiz-adv-x="557" 
d="M486 9l-89 253h-246l-87 -253c-3 -7 -5 -9 -13 -9h-23c-13 0 -18 4 -18 13c0 2 1 7 2 11l212 611l6 18c5 17 14 22 35 22h22c18 0 22 -1 27 -5c4 -4 7 -9 9 -15c2 -4 4 -11 8 -20l215 -612c1 -3 2 -8 2 -10c0 -9 -6 -13 -18 -13h-32c-7 0 -10 2 -12 9zM223 731
c0 7 3 10 13 19l90 79c15 14 31 22 40 22s19 -6 26 -16c4 -6 6 -11 6 -15c0 -11 -9 -19 -35 -34l-113 -63c-6 -3 -11 -5 -14 -5c-7 0 -13 6 -13 13zM168 312h211l-108 311z" />
    <glyph glyph-name="Edieresis" unicode="&#xcb;" horiz-adv-x="456" 
d="M402 616h-270v-236h219c8 0 14 -6 14 -13v-25c0 -7 -6 -13 -14 -13h-219v-278h290c8 0 13 -6 13 -14v-24c0 -7 -6 -13 -13 -13h-338c-7 0 -13 6 -13 13v640c0 8 6 14 13 14h318c7 0 13 -6 13 -14v-24c0 -7 -6 -13 -13 -13zM284 783v5c1 28 12 38 40 38
c30 0 41 -10 41 -41c0 -30 -12 -43 -40 -43c-30 0 -41 12 -41 41zM88 783c0 2 0 3 1 5c1 28 12 38 40 38c30 0 41 -10 41 -41c0 -30 -12 -43 -41 -43s-41 12 -41 41z" />
    <glyph glyph-name="Egrave" unicode="&#xc8;" horiz-adv-x="456" 
d="M402 616h-270v-236h219c8 0 14 -6 14 -13v-25c0 -7 -6 -13 -14 -13h-219v-278h290c8 0 13 -6 13 -14v-24c0 -7 -6 -13 -13 -13h-338c-7 0 -13 6 -13 13v640c0 8 6 14 13 14h318c7 0 13 -6 13 -14v-24c0 -7 -6 -13 -13 -13zM267 715c-6 0 -7 1 -19 7l-115 65
c-21 12 -27 18 -27 31c0 16 13 28 29 28c11 0 24 -6 37 -18l96 -82c9 -8 13 -14 13 -19c0 -6 -7 -12 -14 -12z" />
    <glyph glyph-name="Iacute" unicode="&#xcd;" horiz-adv-x="203" 
d="M84 0c-7 0 -13 6 -13 13v640c0 8 6 14 13 14h35c7 0 13 -6 13 -14v-640c0 -7 -6 -13 -13 -13h-35zM29 731c0 7 3 10 13 19l90 79c15 14 31 22 40 22s19 -6 26 -16c4 -6 6 -11 6 -15c0 -11 -8 -19 -35 -34l-113 -63c-5 -3 -11 -5 -14 -5c-7 0 -13 6 -13 13z" />
    <glyph glyph-name="Icircumflex" unicode="&#xce;" horiz-adv-x="202" 
d="M84 0c-7 0 -13 6 -13 13v640c0 8 6 14 13 14h34c8 0 14 -6 14 -14v-640c0 -7 -6 -13 -14 -13h-34zM180 723l-79 66l-78 -66c-2 -1 -4 -2 -6 -2c-3 0 -4 1 -8 6l-8 8c-2 3 -3 6 -3 10c0 2 1 4 4 8l93 101c2 2 4 3 6 3c3 0 5 -1 6 -3l94 -101c3 -4 4 -6 4 -8
c0 -4 -1 -7 -3 -10l-8 -8c-4 -5 -6 -6 -9 -6c-1 0 -3 1 -5 2z" />
    <glyph glyph-name="Idieresis" unicode="&#xcf;" horiz-adv-x="202" 
d="M84 0c-7 0 -13 6 -13 13v640c0 8 6 14 13 14h34c8 0 14 -6 14 -14v-640c0 -7 -6 -13 -14 -13h-34zM121 783c0 1 0 3 1 5c1 28 12 38 40 38c30 0 41 -10 41 -41c0 -30 -12 -43 -41 -43s-41 12 -41 41zM0 783v5c1 28 13 38 40 38c31 0 41 -10 41 -41c0 -30 -12 -43 -40 -43
c-30 0 -41 12 -41 41z" />
    <glyph glyph-name="Igrave" unicode="&#xcc;" horiz-adv-x="203" 
d="M84 0c-7 0 -13 6 -13 13v640c0 8 6 14 13 14h35c7 0 13 -6 13 -14v-640c0 -7 -6 -13 -13 -13h-35zM161 715c-6 0 -8 1 -20 7l-115 65c-21 12 -27 18 -27 31c0 16 13 28 29 28c11 0 24 -6 38 -18l95 -82c9 -8 13 -14 13 -19c0 -6 -6 -12 -13 -12z" />
    <glyph glyph-name="Oacute" unicode="&#xd3;" horiz-adv-x="668" 
d="M334 -17c-187 0 -294 125 -294 345c0 221 107 347 296 347c188 0 292 -124 292 -350c0 -219 -106 -342 -294 -342zM279 731c0 7 2 10 13 19l90 79c15 14 31 22 40 22s19 -6 26 -16c4 -6 6 -11 6 -15c0 -11 -9 -19 -35 -34l-114 -63c-5 -3 -10 -5 -13 -5
c-7 0 -13 6 -13 13zM336 624c-151 0 -235 -104 -235 -294c0 -191 83 -296 234 -296c150 0 232 105 232 295s-83 295 -231 295z" />
    <glyph glyph-name="Ocircumflex" unicode="&#xd4;" horiz-adv-x="668" 
d="M334 -17c-187 0 -294 125 -294 345c0 221 107 347 296 347c188 0 292 -124 292 -350c0 -219 -106 -342 -294 -342zM442 720l-107 69l-109 -69c-2 -1 -5 -2 -8 -2c-4 0 -8 2 -10 6l-8 11c-2 2 -3 5 -3 7c0 4 2 8 5 11l124 101c3 2 6 3 9 3s6 -1 8 -3l124 -101
c3 -3 4 -6 4 -10c0 -3 -1 -6 -2 -8l-9 -12c-2 -3 -6 -5 -11 -5c-2 0 -5 1 -7 2zM336 624c-151 0 -235 -104 -235 -294c0 -191 83 -296 234 -296c150 0 232 105 232 295s-83 295 -231 295z" />
    <glyph glyph-name="apple" unicode="&#xf8ff;" horiz-adv-x="667" 
d="M332 518c2 97 57 161 148 173v-10c0 -87 -69 -163 -148 -163zM479 528c61 0 109 -24 144 -71c-58 -45 -80 -84 -80 -140c0 -66 37 -122 99 -148c-50 -124 -112 -196 -169 -196c-13 0 -27 3 -40 9l-41 17c-5 2 -16 4 -33 4c-20 0 -45 -3 -51 -5l-43 -18
c-14 -5 -27 -8 -38 -8c-36 0 -75 29 -111 82c-53 78 -84 172 -84 252c0 130 77 220 187 220c24 0 45 -5 77 -18c22 -8 38 -12 48 -12s25 3 43 10c55 20 62 22 92 22z" />
    <glyph glyph-name="Ograve" unicode="&#xd2;" horiz-adv-x="668" 
d="M334 -17c-187 0 -294 125 -294 345c0 221 107 347 296 347c188 0 292 -124 292 -350c0 -219 -106 -342 -294 -342zM374 715c-6 0 -8 1 -20 7l-115 65c-21 12 -27 18 -27 31c0 16 13 28 29 28c11 0 24 -6 38 -18l95 -82c9 -8 13 -14 13 -19c0 -6 -6 -12 -13 -12zM336 624
c-151 0 -235 -104 -235 -294c0 -191 83 -296 234 -296c150 0 232 105 232 295s-83 295 -231 295z" />
    <glyph glyph-name="Uacute" unicode="&#xda;" horiz-adv-x="597" 
d="M61 653c0 8 6 14 13 14h34c8 0 13 -6 13 -14v-453c0 -110 63 -169 180 -169c53 0 98 13 130 37c39 30 55 68 55 132v453c0 8 6 14 13 14h24c8 0 14 -6 14 -14v-457c0 -133 -90 -213 -237 -213c-154 0 -239 76 -239 214v456zM243 731c0 7 3 10 13 19l90 79
c16 14 31 22 40 22s19 -6 26 -16c4 -6 6 -11 6 -15c0 -11 -8 -19 -35 -34l-113 -63c-5 -3 -11 -5 -14 -5c-7 0 -13 6 -13 13z" />
    <glyph glyph-name="Ucircumflex" unicode="&#xdb;" horiz-adv-x="597" 
d="M61 653c0 8 6 14 13 14h34c8 0 13 -6 13 -14v-453c0 -110 63 -169 180 -169c53 0 98 13 130 37c39 30 55 68 55 132v453c0 8 6 14 13 14h24c8 0 14 -6 14 -14v-457c0 -133 -90 -213 -237 -213c-154 0 -239 76 -239 214v456zM410 720l-108 69l-109 -69c-2 -1 -4 -2 -7 -2
c-4 0 -8 2 -10 6l-8 11c-2 2 -3 5 -3 7c0 4 2 8 5 11l124 101c2 2 5 3 8 3s6 -1 9 -3l123 -101c3 -3 5 -6 5 -10c0 -3 -1 -6 -2 -8l-9 -12c-3 -3 -7 -5 -11 -5c-2 0 -5 1 -7 2z" />
    <glyph glyph-name="Ugrave" unicode="&#xd9;" horiz-adv-x="597" 
d="M61 653c0 8 6 14 13 14h34c8 0 13 -6 13 -14v-453c0 -110 63 -169 180 -169c53 0 98 13 130 37c39 30 55 68 55 132v453c0 8 6 14 13 14h24c8 0 14 -6 14 -14v-457c0 -133 -90 -213 -237 -213c-154 0 -239 76 -239 214v456zM338 715c-6 0 -7 1 -19 7l-115 65
c-22 12 -27 18 -27 31c0 16 12 28 29 28c11 0 24 -6 37 -18l95 -82c10 -8 13 -14 13 -19c0 -6 -6 -12 -13 -12z" />
    </font>
</defs>
</svg>
