<?xml version="1.0" standalone="no"?>
<!DOCTYPE svg PUBLIC "-//W3C//DTD SVG 1.1//EN" "http://www.w3.org/Graphics/SVG/1.1/DTD/svg11.dtd" >
<svg>
<metadata>
Created by FontForge 20120731 at Fri Aug 10 17:26:55 2018
 By www
Praxis-Bold
</metadata>
<defs>
<font id="Praxis-Bold" horiz-adv-x="500" >
  <font-face 
    font-family="Praxis-Bold"
    font-weight="500"
    font-stretch="normal"
    units-per-em="1000"
    panose-1="0 0 0 0 0 0 0 0 0 0"
    ascent="800"
    descent="-200"
    x-height="508"
    cap-height="667"
    bbox="-170 -250 1029 877"
    underline-thickness="20"
    underline-position="-172"
    stemh="98"
    stemv="150"
    unicode-range="U+0020-FB02"
  />
<missing-glyph horiz-adv-x="280" 
 />
    <glyph glyph-name=".notdef" horiz-adv-x="280" 
 />
    <glyph glyph-name="space" unicode=" " horiz-adv-x="250" 
d="M0 0z" />
    <glyph glyph-name="exclam" unicode="!" horiz-adv-x="320" 
d="M268 595l-28 -424c0 -7 -6 -13 -13 -13h-94c-7 0 -13 6 -13 13l-28 423l-2 24v14c0 34 10 43 47 43h87c30 0 46 -13 46 -38c0 -5 0 -11 -1 -18zM90 50c0 44 31 67 94 67c55 0 86 -24 86 -67c0 -45 -30 -67 -92 -67c-57 0 -88 24 -88 67z" />
    <glyph glyph-name="quotedbl" unicode="&#x22;" horiz-adv-x="374" 
d="M141 399h-76l-19 268h115zM308 399h-76l-19 268h114z" />
    <glyph glyph-name="numbersign" unicode="#" horiz-adv-x="600" 
d="M563 287l-14 -93h-106l-30 -194h-106l30 194h-107l-31 -194h-105l31 194h-107l15 93h106l16 106h-105l14 93h106l28 181h105l-28 -181h107l29 181h106l-29 -181h104l-14 -93h-104l-16 -106h105zM368 393h-108l-16 -106h108z" />
    <glyph glyph-name="dollar" unicode="$" horiz-adv-x="533" 
d="M271 675v60c0 9 4 13 13 13h19c8 0 12 -4 12 -13v-60l11 -1c18 -1 32 -2 42 -3s25 -4 44 -8c17 -4 29 -7 37 -11c5 -1 7 -2 7 -2c15 -6 17 -9 17 -28v-83c0 -12 -4 -18 -11 -18c-5 0 -7 1 -14 5l-6 3c-49 26 -90 38 -139 38c-56 0 -90 -23 -90 -62c0 -25 16 -44 55 -69
l88 -54c92 -58 127 -111 127 -196c0 -119 -75 -184 -223 -194v-61c0 -8 -4 -12 -12 -12h-19c-9 0 -13 4 -13 12v61l-12 1c-59 6 -96 14 -135 30c-22 9 -26 13 -26 30v81c0 9 5 16 12 16c3 0 6 -1 10 -3c2 -1 5 -3 9 -6c45 -27 101 -41 159 -41c66 0 100 23 100 68
c0 8 -1 16 -4 24c-6 16 -17 26 -52 49l-121 82c-61 40 -93 100 -93 171c0 58 22 106 63 136c37 28 75 39 145 45z" />
    <glyph glyph-name="percent" unicode="%" horiz-adv-x="750" 
d="M161 -8c-8 0 -12 3 -12 9c0 3 1 6 4 10l397 658c2 4 5 6 11 6h30c10 0 15 -3 15 -9c0 -3 -1 -6 -4 -11l-396 -657c-3 -4 -6 -6 -12 -6h-33zM55 501c0 106 55 176 139 176s137 -69 137 -179c0 -107 -54 -175 -139 -175c-82 0 -137 71 -137 178zM420 167
c0 107 55 177 138 177c85 0 138 -69 138 -179c0 -107 -54 -175 -139 -175c-82 0 -137 71 -137 177zM144 500h-1c0 -78 16 -115 49 -115c34 0 51 37 51 111c0 81 -16 119 -50 119c-33 0 -50 -39 -49 -115zM508 168c0 -80 15 -116 49 -116s50 36 50 111c0 80 -16 118 -49 118
s-50 -38 -50 -113z" />
    <glyph glyph-name="ampersand" unicode="&#x26;" horiz-adv-x="737" 
d="M613 122l11 -10c7 -7 15 -15 26 -24l35 -35c29 -27 34 -33 34 -39c0 -9 -9 -14 -26 -14h-154c-11 0 -15 1 -22 8l-6 6l-13 13l-10 9c-21 -11 -30 -16 -48 -22c-43 -14 -95 -22 -148 -22c-168 0 -259 67 -259 192c0 48 14 84 44 115c24 26 42 36 97 55
c-61 50 -81 88 -81 153c0 110 72 168 207 168c129 0 203 -58 203 -160c0 -41 -11 -75 -34 -104c-22 -27 -40 -39 -91 -60l10 -10l38 -35l48 -46l43 -42l12 -11c19 26 24 46 24 89v24c0 7 6 13 13 13h114c7 0 13 -6 13 -13v-24c0 -35 -7 -70 -22 -101
c-13 -29 -25 -44 -58 -73zM324 404c44 40 59 69 59 110c0 45 -26 69 -77 69c-46 0 -73 -24 -73 -65c0 -26 10 -45 39 -69l16 -14zM227 299c-37 -26 -54 -55 -54 -93c0 -71 55 -115 141 -115c45 0 73 8 99 28l-11 11c-3 3 -15 14 -37 33c-32 29 -74 69 -96 93l-33 34z" />
    <glyph glyph-name="quoteright" unicode="&#x2019;" horiz-adv-x="221" 
d="M48 427c-12 0 -18 5 -18 13c0 5 2 9 10 17c24 25 40 56 40 78c0 4 -1 8 -3 11c-1 2 -3 4 -5 5c-1 1 -4 2 -9 3c-20 7 -33 28 -33 55c0 43 29 68 80 68c57 0 90 -34 90 -94c0 -46 -20 -95 -55 -138c-8 -11 -12 -14 -15 -16s-7 -2 -19 -2h-63z" />
    <glyph glyph-name="parenleft" unicode="(" horiz-adv-x="302" 
d="M262 717c11 0 16 -3 16 -10c0 -4 -1 -8 -11 -25c-26 -43 -51 -112 -65 -180c-15 -66 -24 -164 -24 -253c0 -77 7 -158 18 -224c14 -84 43 -170 71 -214c10 -15 11 -18 11 -24c0 -8 -5 -12 -15 -12h-66c-21 0 -27 5 -51 46c-30 53 -51 101 -70 159c-27 86 -38 164 -38 267
s11 183 36 263c16 55 42 112 70 159l12 20c14 23 20 28 35 28h71z" />
    <glyph glyph-name="parenright" unicode=")" horiz-adv-x="302" 
d="M134 -213c-5 -8 -15 -12 -29 -12h-63c-11 0 -19 5 -19 12c0 5 4 14 8 21c56 86 92 257 92 439c0 48 -2 97 -7 146c-4 41 -9 77 -16 109c-16 75 -45 154 -69 186c-4 7 -8 14 -8 18c0 7 7 11 21 11h61c17 0 24 -4 33 -16c34 -48 66 -116 89 -190c26 -85 36 -163 36 -271
c0 -102 -10 -171 -38 -259c-24 -76 -57 -149 -84 -184c-2 -3 -3 -4 -3 -5z" />
    <glyph glyph-name="asterisk" unicode="*" horiz-adv-x="413" 
d="M186 527l-61 -75c-3 -4 -7 -6 -10 -6s-6 2 -9 5l-26 23c-4 3 -6 6 -6 9c0 4 2 7 7 11l76 58l-97 -7h-1c-9 0 -12 3 -12 12v31c0 8 4 12 11 12h2l97 -7l-76 56c-4 3 -6 6 -6 10c0 3 1 6 6 10l25 24c2 2 5 3 8 3c4 0 7 -1 10 -5l62 -73l-9 93v3c0 8 3 11 12 11h35
c8 0 11 -3 11 -11v-3l-8 -93l62 73c3 3 6 5 9 5s6 -2 9 -4l25 -22c5 -4 6 -7 6 -10c0 -4 -2 -8 -6 -11l-74 -56l95 7h2c8 0 12 -3 12 -11v-33c0 -8 -4 -12 -12 -11h-2l-95 7l75 -58c4 -3 6 -7 6 -10c0 -4 -2 -8 -6 -10l-27 -23c-2 -3 -6 -4 -8 -4c-4 0 -7 2 -10 5l-61 75
l8 -97v-3c0 -7 -3 -10 -11 -10h-35c-9 0 -12 3 -12 10v3z" />
    <glyph glyph-name="plus" unicode="+" 
d="M33 385h165v161h104v-161h165v-96h-165v-162h-104v162h-165v96z" />
    <glyph glyph-name="comma" unicode="," horiz-adv-x="243" 
d="M54 -125c-11 0 -17 5 -17 13c0 5 2 9 10 17c24 25 40 56 40 78c0 4 -1 8 -3 11c-1 2 -3 4 -6 5c0 1 -3 2 -9 3c-20 7 -32 28 -32 54c0 44 29 69 80 69c57 0 90 -34 90 -95c0 -46 -19 -93 -55 -138c-8 -10 -12 -13 -16 -15c-3 -2 -5 -2 -18 -2h-64z" />
    <glyph glyph-name="hyphen" unicode="-" horiz-adv-x="280" 
d="M33 208c-7 0 -13 6 -13 13v74c0 7 6 13 13 13h214c7 0 13 -6 13 -13v-74c0 -7 -6 -13 -13 -13h-214z" />
    <glyph glyph-name="period" unicode="." horiz-adv-x="244" 
d="M37 54c0 47 28 71 84 71c57 0 86 -25 86 -72c0 -49 -25 -70 -85 -70c-59 0 -85 22 -85 71z" />
    <glyph glyph-name="slash" unicode="/" horiz-adv-x="280" 
d="M33 -208c-7 0 -13 6 -13 13v2l150 874c1 6 7 11 13 11h66c7 0 13 -6 13 -13v-3l-152 -873c-1 -7 -6 -11 -12 -11h-65z" />
    <glyph glyph-name="zero" unicode="0" horiz-adv-x="567" 
d="M33 329c0 222 90 346 250 346s250 -123 250 -341c0 -226 -89 -351 -252 -351c-159 0 -248 125 -248 346zM183 332c0 -152 35 -232 99 -232c68 0 101 79 101 240c0 141 -35 218 -100 218s-100 -78 -100 -226z" />
    <glyph glyph-name="one" unicode="1" horiz-adv-x="567" 
d="M233 522l-10 -4c-17 -7 -28 -11 -34 -13c-25 -8 -55 -13 -73 -13c-16 0 -23 5 -23 18v82c0 11 5 15 17 17l37 4c29 3 82 26 115 49c2 2 4 3 5 4l4 2c8 4 12 6 13 6c2 1 7 1 16 1h80c8 0 13 -6 13 -13v-649c0 -7 -6 -13 -13 -13h-134c-7 0 -13 6 -13 13v509z" />
    <glyph glyph-name="two" unicode="2" horiz-adv-x="567" 
d="M193 142h317c7 0 13 -6 13 -13v-116c0 -7 -6 -13 -13 -13h-464c-7 0 -13 6 -13 13v30c0 41 6 69 19 97s24 42 63 78l148 137c45 42 60 70 60 111c0 60 -38 92 -110 92c-49 0 -94 -13 -142 -40c-8 -5 -9 -6 -14 -6c-9 0 -14 8 -14 19v84c0 11 4 19 12 23l6 3l6 2
c38 19 106 32 172 32c178 0 264 -62 264 -189c0 -36 -8 -70 -24 -101c-14 -29 -33 -47 -85 -88z" />
    <glyph glyph-name="three" unicode="3" horiz-adv-x="567" 
d="M375 354c30 -7 37 -9 53 -16c53 -22 87 -79 87 -146c0 -125 -104 -200 -275 -200c-23 0 -48 1 -75 5c-38 5 -58 10 -93 22c-28 9 -32 12 -32 27v94c0 10 3 14 12 14c5 0 8 -1 19 -8c38 -23 94 -38 147 -38c83 0 132 36 132 96c0 55 -36 88 -97 88h-40c-7 0 -13 6 -13 13
v90c0 7 6 13 13 13h25c59 0 92 27 92 77s-36 73 -112 73c-21 0 -38 -1 -53 -4c-24 -5 -62 -20 -83 -33c-5 -3 -8 -4 -10 -5c-4 -2 -7 -4 -11 -4c-7 0 -11 6 -11 17v93c0 9 3 12 16 18c15 7 33 13 57 19c47 12 83 16 136 16c80 0 132 -12 172 -40c40 -27 64 -77 64 -132
c0 -36 -10 -69 -30 -95c-21 -29 -39 -40 -90 -54z" />
    <glyph glyph-name="four" unicode="4" horiz-adv-x="567" 
d="M337 150h-317c-7 0 -13 6 -13 13v124c0 3 1 5 3 8l313 379c2 4 6 5 10 5h131c7 0 13 -6 13 -13v-391h57c7 0 13 -6 13 -13v-99c0 -7 -6 -13 -13 -13h-57v-137c0 -7 -6 -13 -13 -13h-114c-7 0 -13 6 -13 13v137zM337 275v258l-215 -258h215z" />
    <glyph glyph-name="five" unicode="5" horiz-adv-x="567" 
d="M180 533v-116h1c5 0 6 0 12 3c30 15 60 22 103 22c140 0 219 -78 219 -216c0 -153 -94 -234 -271 -234c-63 0 -113 8 -165 28c-25 9 -29 13 -29 27v94c0 8 5 14 13 14c6 0 8 -1 18 -8c36 -25 83 -39 135 -39c91 0 144 46 144 123c0 70 -42 111 -113 111
c-33 0 -58 -8 -77 -22l-8 -7c-6 -4 -8 -5 -15 -5h-74c-7 0 -13 6 -13 13v333c0 7 6 13 13 13h404c7 0 13 -6 13 -13v-108c0 -7 -6 -13 -13 -13h-297z" />
    <glyph glyph-name="six" unicode="6" horiz-adv-x="567" 
d="M183 367c7 0 8 1 16 8c31 28 73 42 128 42c128 0 206 -79 206 -209c0 -134 -97 -225 -242 -225c-171 0 -258 109 -258 324c0 243 104 372 299 372c50 0 94 -8 133 -26c25 -10 28 -14 28 -30v-94c0 -11 -4 -17 -13 -17c-5 0 -9 2 -16 8c-30 25 -71 38 -115 38
c-51 0 -90 -16 -120 -49c-29 -32 -40 -65 -45 -132zM193 199c0 -67 37 -107 97 -107c59 0 93 38 93 107c0 71 -34 109 -95 109s-95 -39 -95 -109z" />
    <glyph glyph-name="seven" unicode="7" horiz-adv-x="567" 
d="M365 517h-302c-7 0 -13 6 -13 13v124c0 7 6 13 13 13h424c7 0 13 -6 13 -13v-72c0 -31 -3 -42 -26 -92l-40 -88c-4 -10 -11 -26 -20 -47c-13 -30 -24 -55 -33 -76c-38 -91 -51 -150 -51 -226v-40c0 -7 -6 -13 -13 -13h-144c-7 0 -13 6 -13 13v44c0 62 9 102 35 161
c34 78 83 169 117 220l43 64z" />
    <glyph glyph-name="eight" unicode="8" horiz-adv-x="567" 
d="M393 367c93 -44 130 -95 130 -175c0 -63 -23 -117 -68 -155c-44 -38 -96 -54 -180 -54c-144 0 -232 69 -232 184c0 83 54 151 136 171c-22 14 -29 19 -43 29c-43 34 -63 75 -63 131c0 113 79 177 218 177c127 0 202 -59 202 -159c0 -68 -35 -120 -100 -149zM321 400
c36 29 52 64 52 108c0 48 -30 77 -82 77c-45 0 -78 -29 -78 -70c0 -32 26 -66 71 -93zM238 292c-39 -35 -55 -69 -55 -115c0 -61 34 -94 97 -94c58 0 93 30 93 80c0 36 -21 67 -61 88z" />
    <glyph glyph-name="nine" unicode="9" horiz-adv-x="567" 
d="M383 292c-7 -1 -8 -2 -16 -8c-35 -29 -76 -42 -131 -42c-123 0 -203 82 -203 208c0 139 96 229 244 229c169 0 256 -110 256 -322c0 -235 -105 -365 -295 -365c-44 0 -90 8 -137 25c-23 8 -28 14 -28 30v89c0 13 4 18 13 18c6 0 8 -1 17 -8c29 -23 73 -38 115 -38
c54 0 94 18 124 56c27 34 36 61 41 128zM183 459c0 -68 36 -109 95 -109c61 0 95 38 95 107c0 70 -34 110 -94 110s-96 -40 -96 -108z" />
    <glyph glyph-name="colon" unicode=":" horiz-adv-x="263" 
d="M57 54c0 46 29 71 84 71s86 -24 86 -69c0 -50 -28 -73 -88 -73c-56 0 -82 23 -82 71zM57 440c0 50 27 73 87 73c54 0 83 -25 83 -70c0 -48 -29 -72 -86 -72c-58 0 -84 22 -84 69z" />
    <glyph glyph-name="semicolon" unicode=";" horiz-adv-x="263" 
d="M74 -125c-11 0 -17 5 -17 13c0 5 2 9 10 17c24 25 40 56 40 78c0 4 -1 8 -3 11c-1 2 -3 4 -6 5c0 1 -3 2 -9 3c-20 7 -32 28 -32 54c0 44 29 69 80 69c57 0 90 -34 90 -95c0 -46 -19 -93 -55 -138c-8 -10 -12 -13 -16 -15c-3 -2 -5 -2 -18 -2h-64zM57 450
c0 47 28 71 84 71c57 0 86 -25 86 -73s-25 -69 -85 -69c-59 0 -85 22 -85 71z" />
    <glyph glyph-name="less" unicode="&#x3c;" 
d="M467 588v-102l-324 -154l323 -154l1 -102l-434 212v88z" />
    <glyph glyph-name="equal" unicode="=" 
d="M33 468h434v-91h-434v91zM33 304h434v-90h-434v90z" />
    <glyph glyph-name="greater" unicode="&#x3e;" 
d="M33 76v102l324 154l-323 155l-1 101l434 -212v-88z" />
    <glyph glyph-name="question" unicode="?" 
d="M183 163c-7 0 -13 5 -13 13v46c0 53 17 89 60 129l32 30c34 32 48 59 48 96c0 54 -37 86 -103 86c-43 0 -97 -17 -127 -39c-8 -6 -12 -8 -16 -8c-9 0 -14 6 -14 16v91c0 13 4 17 27 26c50 20 102 30 158 30c68 0 131 -16 176 -45c47 -29 69 -79 69 -152
c0 -68 -21 -107 -87 -163l-69 -58c-31 -26 -34 -32 -34 -57v-28c0 -8 -6 -13 -13 -13h-94zM140 53c0 46 30 68 91 68c59 0 89 -24 89 -70c0 -45 -31 -68 -90 -68c-60 0 -90 24 -90 70z" />
    <glyph glyph-name="at" unicode="@" horiz-adv-x="733" 
d="M482 492l72 -1l-39 -199c-4 -22 -6 -36 -6 -43c0 -25 11 -40 29 -40c17 0 38 14 54 35c27 37 42 87 42 138c0 135 -103 230 -249 230c-159 0 -282 -124 -282 -284c0 -75 29 -148 78 -198c51 -53 116 -77 206 -77c72 0 136 12 196 37l18 -65c-61 -24 -135 -37 -214 -37
c-207 0 -354 141 -354 341c0 195 153 348 350 348c181 0 315 -125 315 -295c0 -123 -77 -232 -164 -232c-39 0 -69 24 -75 59c-28 -41 -75 -66 -125 -66c-80 0 -140 68 -140 159c0 109 80 201 175 201c48 0 83 -21 103 -61zM451 346c0 49 -29 82 -73 82
c-55 0 -102 -57 -102 -123c0 -53 31 -89 77 -89c54 0 98 58 98 130z" />
    <glyph glyph-name="A" unicode="A" horiz-adv-x="633" 
d="M193 200l-61 -191c-2 -5 -7 -9 -13 -9h-91c-11 0 -17 4 -17 12c0 3 0 5 4 16l198 604c7 23 9 26 20 34c9 7 18 9 41 9h78c35 0 40 -1 51 -13c5 -6 9 -13 12 -21c2 -4 4 -11 7 -21l194 -591l4 -10v-5c0 -9 -6 -14 -18 -14h-132c-6 0 -11 4 -13 9l-60 191h-204zM373 300
l-72 247l-81 -247h153z" />
    <glyph glyph-name="B" unicode="B" horiz-adv-x="628" 
d="M427 353c100 -16 155 -75 155 -170c0 -62 -27 -112 -79 -146c-44 -29 -81 -37 -169 -37h-244c-7 0 -13 6 -13 13v641c0 7 6 13 13 13h226c97 0 132 -8 174 -37c39 -27 64 -80 64 -135c0 -78 -43 -127 -127 -142zM237 392h46c72 0 104 29 104 93c0 61 -34 90 -104 90h-46
v-183zM237 92h61c46 0 69 7 89 27c18 19 30 48 30 78c0 26 -9 52 -25 71c-19 24 -44 32 -95 32h-60v-208z" />
    <glyph glyph-name="C" unicode="C" horiz-adv-x="620" 
d="M590 531c0 -12 -5 -19 -13 -19c-4 0 -8 2 -17 8c-37 23 -96 38 -150 38c-135 0 -210 -81 -210 -226c0 -141 77 -224 209 -224c51 0 97 13 147 39c10 5 16 7 20 7c9 0 14 -6 14 -16v-84c0 -14 -3 -19 -17 -26c-44 -24 -111 -36 -190 -36c-227 0 -348 118 -348 338
c0 219 129 345 353 345c70 0 131 -11 181 -32c17 -8 21 -12 21 -27v-85z" />
    <glyph glyph-name="D" unicode="D" horiz-adv-x="727" 
d="M90 0c-7 0 -13 6 -13 13v641c0 7 6 13 13 13h258c120 0 205 -31 264 -96c51 -56 80 -139 80 -233c0 -100 -33 -185 -95 -247c-63 -63 -145 -91 -270 -91h-237zM237 117h101c72 0 114 19 149 68c27 39 40 85 40 146c0 141 -65 219 -183 219h-107v-433z" />
    <glyph glyph-name="E" unicode="E" horiz-adv-x="543" 
d="M237 550v-142h197c7 0 13 -6 13 -13v-90c0 -7 -6 -13 -13 -13h-197v-175h267c7 0 13 -6 13 -13v-91c0 -7 -6 -13 -13 -13h-414c-7 0 -13 6 -13 13v641c0 7 6 13 13 13h394c7 0 13 -6 13 -13v-91c0 -7 -6 -13 -13 -13h-247z" />
    <glyph glyph-name="F" unicode="F" horiz-adv-x="497" 
d="M237 550v-158h187c7 0 13 -6 13 -13v-91c0 -7 -6 -13 -13 -13h-187v-262c0 -7 -6 -13 -13 -13h-134c-7 0 -13 6 -13 13v641c0 7 6 13 13 13h374c7 0 13 -6 13 -13v-91c0 -7 -6 -13 -13 -13h-227z" />
    <glyph glyph-name="G" unicode="G" horiz-adv-x="660" 
d="M450 114v190c0 7 6 13 13 13h134c7 0 13 -6 13 -13v-246c0 -13 -3 -17 -16 -24c-47 -26 -130 -42 -207 -42c-230 0 -352 117 -352 339c0 122 34 204 111 268c67 55 139 76 264 76c65 0 129 -10 176 -28c18 -7 24 -14 24 -32v-86c0 -10 -5 -17 -13 -17c-3 0 -7 2 -12 4
c-1 1 -4 2 -8 4c-51 27 -97 38 -155 38c-148 0 -222 -76 -222 -229c0 -142 69 -221 194 -221c19 0 37 2 56 6z" />
    <glyph glyph-name="H" unicode="H" horiz-adv-x="733" 
d="M237 400h260v254c0 7 5 13 13 13h134c7 0 13 -6 13 -13v-641c0 -7 -6 -13 -13 -13h-134c-8 0 -13 6 -13 13v270h-260v-270c0 -7 -6 -13 -13 -13h-134c-7 0 -13 6 -13 13v641c0 7 5 13 13 13h134c7 0 13 -6 13 -13v-254z" />
    <glyph glyph-name="I" unicode="I" horiz-adv-x="313" 
d="M90 0c-7 0 -13 6 -13 13v641c0 7 6 13 13 13h134c7 0 13 -6 13 -13v-641c0 -7 -6 -13 -13 -13h-134z" />
    <glyph glyph-name="J" unicode="J" horiz-adv-x="373" 
d="M147 654c0 7 6 13 13 13h134c7 0 13 -6 13 -13v-485c0 -115 -64 -177 -183 -177c-35 0 -63 5 -89 16c-17 7 -18 10 -18 28v66c0 12 5 19 14 19c3 0 6 -1 12 -4c14 -6 24 -9 40 -9c19 0 33 5 45 15c14 12 19 26 19 61v470z" />
    <glyph glyph-name="K" unicode="K" horiz-adv-x="643" 
d="M240 400h26l203 262c2 3 6 5 10 5h124c13 0 18 -3 18 -11c0 -2 0 -4 -1 -6l-5 -7c-1 -1 -2 -3 -3 -4l-40 -50l-59 -76c-20 -25 -52 -63 -117 -140l-6 -6l5 -7l60 -85c11 -17 30 -45 57 -85c21 -32 41 -62 59 -89c35 -52 46 -68 51 -76c2 -4 3 -8 3 -11
c0 -9 -7 -14 -19 -14h-153c-4 0 -8 2 -11 6l-186 294h-16v-287c0 -7 -6 -13 -13 -13h-134c-7 0 -13 6 -13 13v641c0 7 6 13 13 13h134c7 0 13 -6 13 -13v-254z" />
    <glyph glyph-name="L" unicode="L" horiz-adv-x="490" 
d="M237 117h227c7 0 13 -6 13 -13v-91c0 -7 -6 -13 -13 -13h-374c-7 0 -13 6 -13 13v641c0 7 6 13 13 13h134c7 0 13 -6 13 -13v-537z" />
    <glyph glyph-name="M" unicode="M" horiz-adv-x="903" 
d="M452 153l167 499c4 12 8 15 27 15h168c7 0 13 -6 13 -13v-641c0 -7 -6 -13 -13 -13h-134c-7 0 -13 6 -13 13v480l-164 -477c-4 -12 -10 -16 -25 -16h-97c-19 0 -25 4 -30 20l-154 473v-480c0 -7 -6 -13 -13 -13h-94c-7 0 -13 6 -13 13v641c0 7 6 13 13 13h177
c17 0 23 -4 27 -14z" />
    <glyph glyph-name="N" unicode="N" horiz-adv-x="693" 
d="M197 468v-455c0 -7 -6 -13 -13 -13h-94c-7 0 -13 6 -13 13v641c0 7 6 13 13 13h148c5 0 9 -3 11 -7l248 -470v464c0 7 6 13 13 13h94c7 0 13 -6 13 -13v-649c0 -7 -6 -13 -13 -13h-145c-5 0 -9 2 -12 6z" />
    <glyph glyph-name="O" unicode="O" horiz-adv-x="740" 
d="M35 330c0 107 35 202 96 262c59 57 133 83 240 83c105 0 177 -25 235 -81c64 -62 99 -156 99 -267c0 -109 -33 -198 -97 -261c-56 -56 -133 -83 -238 -83c-106 0 -178 26 -237 83c-62 61 -98 157 -98 264zM200 329c0 -94 14 -145 51 -184c28 -29 68 -45 116 -45
c49 0 91 16 121 46c37 36 52 94 52 198c0 141 -58 214 -169 214c-50 0 -90 -15 -120 -44c-36 -36 -51 -92 -51 -185z" />
    <glyph glyph-name="P" unicode="P" horiz-adv-x="600" 
d="M237 267v-254c0 -7 -6 -13 -13 -13h-134c-7 0 -13 6 -13 13v641c0 7 6 13 13 13h286c134 0 206 -69 206 -199c0 -131 -79 -201 -224 -201h-121zM237 358h69c71 0 111 39 111 108c0 31 -9 58 -27 78c-20 23 -43 31 -90 31h-63v-217z" />
    <glyph glyph-name="Q" unicode="Q" horiz-adv-x="740" 
d="M421 -8c0 -40 7 -55 30 -69c17 -10 38 -15 65 -15c37 0 79 11 119 30c7 3 9 4 14 4c7 0 11 -5 11 -15v-76c0 -14 -3 -18 -16 -24c-32 -15 -95 -27 -146 -27s-93 11 -127 32c-17 11 -32 25 -43 41c-21 29 -27 55 -27 119c-160 10 -266 145 -266 338c0 108 34 200 97 263
c54 55 132 82 238 82s179 -26 238 -83c62 -62 97 -158 97 -265c0 -199 -104 -321 -284 -335zM200 331c0 -156 55 -231 168 -231c50 0 90 15 119 45c38 39 53 96 53 199c0 141 -57 214 -169 214c-116 0 -171 -73 -171 -227z" />
    <glyph glyph-name="R" unicode="R" horiz-adv-x="640" 
d="M419 333l207 -303c4 -5 6 -10 6 -15c0 -9 -7 -15 -17 -15h-152c-5 0 -9 2 -11 6l-187 294h-28v-287c0 -7 -6 -13 -13 -13h-134c-7 0 -13 6 -13 13v641c0 7 6 13 13 13h248c84 0 125 -11 167 -45c35 -28 52 -69 52 -126c0 -92 -49 -150 -138 -163zM237 392h47
c78 0 113 29 113 93c0 61 -33 90 -102 90h-58v-183z" />
    <glyph glyph-name="S" unicode="S" horiz-adv-x="533" 
d="M356 382c92 -58 127 -111 127 -197c0 -123 -89 -193 -244 -193c-64 0 -119 10 -170 31c-23 9 -26 13 -26 30v81c0 9 5 16 12 16c3 0 6 -1 10 -3c2 -1 5 -3 9 -6c45 -27 101 -41 159 -41c66 0 100 23 100 68c0 8 -1 16 -4 24c-6 16 -17 26 -52 49l-121 82
c-61 40 -93 100 -93 171c0 118 83 181 240 181c24 0 46 -1 65 -4c27 -4 67 -13 81 -19c5 -1 7 -2 7 -2c15 -6 17 -9 17 -28v-83c0 -12 -4 -18 -11 -18c-5 0 -7 1 -14 5l-6 3c-49 26 -90 38 -139 38c-56 0 -90 -23 -90 -62c0 -25 16 -44 55 -69z" />
    <glyph glyph-name="T" unicode="T" horiz-adv-x="580" 
d="M210 550h-187c-7 0 -13 6 -13 13v91c0 7 6 13 13 13h534c7 0 13 -6 13 -13v-91c0 -7 -6 -13 -13 -13h-187v-537c0 -7 -6 -13 -13 -13h-134c-7 0 -13 6 -13 13v537z" />
    <glyph glyph-name="U" unicode="U" horiz-adv-x="693" 
d="M67 654c0 7 6 13 13 13h134c7 0 13 -6 13 -13v-402c0 -99 43 -144 138 -144c37 0 71 9 96 24c32 21 46 57 46 124v398c0 7 5 13 13 13h94c7 0 13 -6 13 -13v-449c0 -82 -35 -145 -101 -184c-46 -27 -93 -38 -173 -38c-99 0 -158 16 -212 57c-56 42 -74 89 -74 190v424z
" />
    <glyph glyph-name="V" unicode="V" horiz-adv-x="637" 
d="M339 117l159 541c2 5 7 9 12 9h96c13 0 17 -3 17 -12c0 -2 -1 -6 -3 -13l-198 -612c-3 -11 -6 -18 -8 -22c-7 -14 -13 -16 -49 -16h-92c-35 0 -43 5 -52 31l-206 621c-1 3 -2 7 -2 10c0 9 5 13 17 13h136c6 0 11 -5 14 -12z" />
    <glyph glyph-name="W" unicode="W" horiz-adv-x="1012" 
d="M508 517l-142 -492c-9 -30 -13 -33 -37 -33h-99c-9 0 -16 2 -21 6c-3 2 -6 7 -8 14c-2 5 -5 16 -9 32l-171 594c-2 6 -3 12 -3 15c0 10 6 14 23 14h121c8 0 13 -3 14 -10l135 -499l125 476c7 27 15 33 45 33h99c10 0 19 -2 25 -4c9 -4 12 -9 20 -38l127 -467l131 499
c1 6 6 10 12 10h82c17 0 24 -4 24 -13c0 -2 -1 -7 -2 -10l-174 -611c-11 -36 -16 -41 -41 -41h-105c-23 0 -30 6 -37 32z" />
    <glyph glyph-name="X" unicode="X" horiz-adv-x="677" 
d="M318 249l-164 -243c-3 -5 -5 -6 -11 -6h-106c-12 0 -19 5 -19 14c0 5 3 12 9 20l223 308l-215 298c-6 7 -7 10 -7 14c0 8 6 13 17 13h152c5 0 10 -2 12 -6l136 -204l147 204c2 4 6 6 10 6h108c12 0 18 -4 18 -12c0 -6 -2 -10 -9 -19l-203 -271l233 -332
c8 -12 11 -17 11 -22c0 -7 -6 -11 -18 -11h-154c-5 0 -9 2 -11 6z" />
    <glyph glyph-name="Y" unicode="Y" horiz-adv-x="652" 
d="M253 256l-232 392c-3 5 -3 6 -3 9c0 7 4 10 17 10h153c5 0 8 -2 11 -7l153 -280l152 279c3 6 6 8 11 8h106c11 0 16 -4 16 -10c0 -3 -1 -7 -4 -12l-220 -370v-262c0 -7 -6 -13 -13 -13h-134c-7 0 -13 6 -13 13v243z" />
    <glyph glyph-name="Z" unicode="Z" horiz-adv-x="600" 
d="M365 550h-302c-7 0 -13 6 -13 13v91c0 7 6 13 13 13h484c7 0 13 -6 13 -13v-74c0 -3 -1 -6 -2 -8l-333 -455h322c7 0 13 -6 13 -13v-91c0 -7 -6 -13 -13 -13h-494c-7 0 -13 6 -13 13v84c0 2 1 6 2 7z" />
    <glyph glyph-name="bracketleft" unicode="[" horiz-adv-x="302" 
d="M191 -117h67c7 0 13 -6 13 -13v-74c0 -7 -6 -13 -13 -13h-184c-7 0 -13 6 -13 13v908c0 7 6 13 13 13h184c7 0 13 -6 13 -13v-74c0 -7 -6 -13 -13 -13h-67v-734z" />
    <glyph glyph-name="backslash" unicode="\" 
d="M127 750l329 -833h-101l-329 833h101z" />
    <glyph glyph-name="bracketright" unicode="]" horiz-adv-x="302" 
d="M111 -117v734h-67c-7 0 -13 6 -13 13v74c0 7 6 13 13 13h184c7 0 13 -6 13 -13v-908c0 -7 -6 -13 -13 -13h-184c-7 0 -13 6 -13 13v74c0 7 6 13 13 13h67z" />
    <glyph glyph-name="asciicircum" unicode="^" 
d="M123 349h-109l168 321h136l168 -321h-110l-126 238z" />
    <glyph glyph-name="underscore" unicode="_" 
d="M0 -56h500v-93h-500v93z" />
    <glyph glyph-name="quoteleft" unicode="&#x2018;" horiz-adv-x="270" 
d="M202 677c11 0 18 -5 18 -13c0 -5 -2 -9 -10 -17c-24 -25 -40 -56 -40 -78c0 -4 1 -8 3 -11c1 -2 3 -4 5 -5c1 0 4 -2 9 -3c20 -7 33 -28 33 -54c0 -44 -29 -69 -80 -69c-57 0 -90 34 -90 95c0 46 19 94 55 138c8 10 12 14 15 15c3 2 6 2 19 2h63z" />
    <glyph glyph-name="a" unicode="a" horiz-adv-x="547" 
d="M343 25h-4c-6 0 -8 -1 -14 -3l-9 -3l-18 -8c-35 -14 -61 -19 -96 -19c-108 0 -169 53 -169 148c0 56 21 100 60 126c28 18 64 34 118 51l91 28c26 9 31 14 31 32c0 28 -23 40 -82 40c-63 0 -116 -14 -160 -41c-8 -4 -11 -5 -15 -5c-8 0 -13 6 -13 17v71c0 14 3 17 17 24
c48 22 111 34 183 34c146 0 220 -51 220 -151v-353c0 -7 -6 -13 -13 -13h-114c-7 0 -13 6 -13 13v12zM333 264l-59 -23c-3 -1 -13 -6 -29 -13c-12 -5 -22 -10 -30 -15c-21 -12 -32 -31 -32 -57c0 -41 27 -64 73 -64c52 0 77 23 77 71v101z" />
    <glyph glyph-name="b" unicode="b" horiz-adv-x="622" 
d="M223 488h3c6 0 12 1 20 5l21 8c23 10 56 16 89 16c143 0 232 -97 232 -253c0 -96 -24 -160 -79 -210c-46 -41 -103 -62 -168 -62c-32 0 -59 5 -86 18l-22 9c-8 4 -14 6 -18 6h-2v-12c0 -7 -6 -13 -13 -13h-114c-7 0 -13 6 -13 13v682c0 7 6 13 13 13h124
c7 0 13 -6 13 -13v-207zM223 172c0 -31 6 -43 25 -56c15 -11 36 -16 61 -16c83 0 124 54 124 163c0 98 -42 150 -122 150c-61 0 -88 -23 -88 -75v-166z" />
    <glyph glyph-name="c" unicode="c" horiz-adv-x="492" 
d="M432 385c-28 14 -68 23 -101 23c-92 0 -143 -53 -143 -151c0 -101 52 -157 144 -157c38 0 78 12 111 32c7 5 9 6 13 6c8 0 12 -5 12 -15v-74c0 -13 -1 -17 -11 -21c-12 -6 -27 -12 -48 -18c-45 -13 -78 -18 -122 -18c-163 0 -254 93 -254 260c0 175 90 265 266 265
c56 0 104 -7 148 -22c18 -6 21 -10 21 -25v-81c0 -10 -3 -14 -12 -14c-3 0 -8 1 -13 4z" />
    <glyph glyph-name="d" unicode="d" horiz-adv-x="622" 
d="M408 25h-2c-4 0 -11 -2 -19 -6l-16 -7c-27 -13 -62 -20 -99 -20c-148 0 -239 98 -239 258c0 81 20 138 65 188c46 51 108 79 175 79c37 0 69 -9 101 -26c12 -7 15 -8 22 -8h2v216c0 8 6 14 13 14h124c7 0 13 -6 13 -14v-686c0 -7 -6 -13 -13 -13h-114c-7 0 -13 6 -13 13
v12zM398 341c0 45 -28 67 -88 67c-82 0 -122 -51 -122 -155c0 -103 41 -153 125 -153c54 0 85 25 85 69v172z" />
    <glyph glyph-name="e" unicode="e" horiz-adv-x="552" 
d="M183 225v-10c0 -79 50 -123 139 -123c53 0 100 13 146 41c6 4 9 5 13 5c9 0 12 -4 12 -15v-69c0 -17 -5 -25 -22 -31c-55 -22 -113 -31 -182 -31c-88 0 -142 17 -186 61c-46 44 -70 111 -70 197c0 173 88 267 252 267c149 0 238 -94 238 -250v-29c0 -7 -6 -13 -13 -13
h-327zM374 317v6c0 39 -6 56 -24 75c-17 18 -42 27 -72 27c-32 0 -57 -10 -75 -29c-16 -18 -21 -37 -21 -79h192z" />
    <glyph glyph-name="f" unicode="f" horiz-adv-x="360" 
d="M90 408h-57c-7 0 -13 6 -13 13v74c0 7 6 13 13 13h57v68c0 91 55 145 149 145c59 0 101 -15 101 -36v-63c0 -9 -4 -14 -11 -14c-3 0 -6 1 -13 4c-14 6 -23 9 -34 9c-28 0 -42 -19 -42 -56v-57h87c7 0 13 -6 13 -13v-74c0 -7 -6 -13 -13 -13h-87v-395c0 -7 -6 -13 -13 -13
h-124c-7 0 -13 6 -13 13v395z" />
    <glyph glyph-name="g" unicode="g" horiz-adv-x="622" 
d="M398 33h-1c-7 0 -13 -2 -25 -8c-34 -18 -63 -25 -104 -25c-141 0 -235 101 -235 252c0 155 101 265 244 265c19 0 37 -2 55 -6c22 -5 27 -7 51 -20c11 -6 16 -8 24 -8h1v12c0 7 6 13 13 13h114c7 0 13 -6 13 -13v-489c0 -141 -95 -214 -278 -214c-70 0 -134 10 -182 29
c-25 10 -30 15 -30 34v67c0 10 5 16 14 16c5 0 9 -2 19 -8c47 -26 97 -38 155 -38c105 0 152 38 152 124v17zM398 338c0 47 -28 70 -84 70c-84 0 -126 -51 -126 -153c0 -94 44 -147 123 -147c59 0 87 23 87 70v160z" />
    <glyph glyph-name="h" unicode="h" horiz-adv-x="607" 
d="M223 483h2c6 0 11 2 20 7c39 21 76 31 121 31c108 0 177 -67 177 -170v-338c0 -7 -6 -13 -13 -13h-124c-7 0 -13 6 -13 13v292c0 67 -32 103 -91 103c-50 0 -79 -25 -79 -69v-326c0 -7 -6 -13 -13 -13h-124c-7 0 -13 6 -13 13v682c0 7 6 13 13 13h124c7 0 13 -6 13 -13
v-212z" />
    <glyph glyph-name="i" unicode="i" horiz-adv-x="297" 
d="M86 0c-7 0 -13 6 -13 13v482c0 7 6 13 13 13h124c7 0 13 -6 13 -13v-482c0 -7 -6 -13 -13 -13h-124zM63 642c0 42 33 66 88 66c50 0 82 -26 82 -67c0 -42 -31 -66 -86 -66c-54 0 -84 24 -84 67z" />
    <glyph glyph-name="j" unicode="j" horiz-adv-x="297" 
d="M210 508c7 0 13 -6 13 -13v-559c0 -60 -14 -95 -49 -122c-32 -23 -64 -31 -135 -31h-23c-7 0 -13 6 -13 13v74c0 7 6 13 13 13h4c36 0 53 22 53 65v547c0 7 6 13 13 13h124zM63 640c0 42 32 68 85 68c54 0 85 -24 85 -67c0 -41 -31 -66 -82 -66c-55 0 -88 24 -88 65z" />
    <glyph glyph-name="k" unicode="k" horiz-adv-x="560" 
d="M223 308h20l138 195c3 3 7 5 11 5h109c20 0 22 -1 22 -10c0 -6 -3 -13 -15 -27l-21 -27l-16 -22l-104 -142l93 -137l29 -42l30 -41c14 -19 21 -29 22 -29c6 -8 8 -11 8 -16c0 -10 -7 -15 -19 -15h-138c-4 0 -8 2 -10 6l-139 211h-20v-204c0 -7 -6 -13 -13 -13h-124
c-7 0 -13 6 -13 13v682c0 7 6 13 13 13h124c7 0 13 -6 13 -13v-387z" />
    <glyph glyph-name="l" unicode="l" horiz-adv-x="297" 
d="M86 0c-7 0 -13 6 -13 13v686c0 8 6 14 13 14h124c7 0 13 -6 13 -14v-686c0 -7 -6 -13 -13 -13h-124z" />
    <glyph glyph-name="m" unicode="m" horiz-adv-x="907" 
d="M213 483h2c7 0 11 1 16 4l26 13c20 10 59 17 101 17c40 0 72 -7 94 -19c11 -6 18 -11 41 -32h7c22 17 32 23 54 32c31 12 73 19 112 19c116 0 177 -64 177 -185v-319c0 -7 -6 -13 -13 -13h-124c-7 0 -13 6 -13 13v283c0 72 -31 112 -87 112c-46 0 -73 -26 -73 -70v-325
c0 -7 -6 -13 -13 -13h-124c-7 0 -13 6 -13 13v281c0 44 -5 65 -23 86c-16 19 -36 28 -60 28c-47 0 -77 -27 -77 -69v-326c0 -7 -6 -13 -13 -13h-124c-7 0 -13 6 -13 13v482c0 7 6 13 13 13h114c7 0 13 -6 13 -13v-12z" />
    <glyph glyph-name="n" unicode="n" horiz-adv-x="607" 
d="M213 483h2c8 0 12 1 22 6c39 20 76 28 127 28c58 0 99 -14 133 -44c34 -32 46 -69 46 -142v-318c0 -7 -6 -13 -13 -13h-124c-7 0 -13 6 -13 13v282c0 77 -29 113 -92 113c-50 0 -78 -25 -78 -70v-325c0 -7 -6 -13 -13 -13h-124c-7 0 -13 6 -13 13v482c0 7 6 13 13 13h114
c7 0 13 -6 13 -13v-12z" />
    <glyph glyph-name="o" unicode="o" horiz-adv-x="597" 
d="M33 250c0 86 29 161 80 208c45 41 101 59 187 59c85 0 136 -17 183 -60c53 -49 80 -120 80 -210c0 -89 -26 -154 -80 -203c-50 -44 -101 -61 -190 -61c-162 0 -260 100 -260 267zM188 254c0 -116 36 -171 110 -171s110 58 110 174c0 101 -40 160 -109 160
c-73 0 -111 -56 -111 -163z" />
    <glyph glyph-name="p" unicode="p" horiz-adv-x="622" 
d="M213 483h2c8 0 11 1 19 5c43 23 71 30 116 30c149 0 238 -98 238 -260c0 -88 -21 -145 -70 -194c-47 -46 -110 -72 -175 -72c-37 0 -59 6 -96 27c-9 5 -13 6 -22 6h-2v-220c0 -7 -6 -13 -13 -13h-124c-7 0 -13 6 -13 13v690c0 7 6 13 13 13h114c7 0 13 -6 13 -13v-12z
M223 169c0 -46 29 -69 87 -69c83 0 123 52 123 157c0 100 -41 151 -121 151c-59 0 -89 -23 -89 -72v-167z" />
    <glyph glyph-name="q" unicode="q" horiz-adv-x="622" 
d="M398 25h-1c-6 0 -10 -1 -17 -5c-11 -6 -18 -9 -20 -10c-27 -12 -56 -18 -90 -18c-145 0 -237 100 -237 260c0 157 99 265 243 265c43 0 74 -8 106 -26c10 -6 16 -8 24 -8h2v12c0 7 6 13 13 13h114c7 0 13 -6 13 -13v-690c0 -7 -6 -13 -13 -13h-124c-7 0 -13 6 -13 13v220
zM398 336c0 30 -4 42 -21 55c-16 12 -38 17 -67 17c-82 0 -122 -52 -122 -159c0 -97 43 -149 123 -149c59 0 87 23 87 72v164z" />
    <glyph glyph-name="r" unicode="r" horiz-adv-x="417" 
d="M213 479h3c12 0 16 1 31 8c31 13 54 19 82 20l26 1h6c33 0 42 -6 42 -29v-75c0 -14 -4 -21 -14 -21c-3 0 -7 1 -11 2c-26 8 -50 11 -79 11c-57 0 -76 -18 -76 -75v-308c0 -7 -6 -13 -13 -13h-124c-7 0 -13 6 -13 13v482c0 7 6 13 13 13h114c7 0 13 -6 13 -13v-16z" />
    <glyph glyph-name="s" unicode="s" horiz-adv-x="437" 
d="M295 300c75 -42 103 -82 103 -148c0 -96 -75 -160 -187 -160c-44 0 -100 11 -139 28c-30 12 -34 16 -34 31v61c0 11 5 17 13 17c3 0 7 -1 11 -3l9 -5c34 -19 84 -30 129 -30c38 0 58 13 58 39c0 7 -2 14 -6 19c-6 8 -11 11 -39 27l-67 37c-73 41 -98 77 -98 141
c0 102 72 163 192 163c44 0 84 -7 123 -22c21 -8 25 -13 25 -29v-69c0 -11 -4 -19 -12 -19c-4 0 -7 2 -15 6c-40 24 -73 34 -111 34c-40 0 -62 -14 -62 -39c0 -6 2 -11 4 -16c5 -8 9 -11 33 -24z" />
    <glyph glyph-name="t" unicode="t" horiz-adv-x="407" 
d="M90 408h-57c-7 0 -13 6 -13 13v74c0 7 6 13 13 13h57v112c0 7 6 13 13 13h124c7 0 13 -6 13 -13v-112h137c7 0 13 -6 13 -13v-74c0 -7 -6 -13 -13 -13h-137v-240c0 -47 17 -68 56 -68c20 0 39 7 65 22c10 6 12 7 17 7c6 0 12 -7 12 -15v-70c0 -16 -4 -21 -24 -29
c-38 -17 -71 -23 -113 -23c-49 0 -91 11 -120 32c-30 21 -43 56 -43 117v267z" />
    <glyph glyph-name="u" unicode="u" horiz-adv-x="607" 
d="M393 25h-2h-2c-6 0 -12 -2 -20 -5c-14 -6 -22 -9 -25 -10c-31 -12 -66 -18 -101 -18c-114 0 -180 65 -180 178v325c0 7 6 13 13 13h124c7 0 13 -6 13 -13v-287c0 -71 31 -108 90 -108c53 0 80 26 80 76v319c0 7 6 13 13 13h124c7 0 13 -6 13 -13v-482
c0 -7 -6 -13 -13 -13h-114c-7 0 -13 6 -13 13v12z" />
    <glyph glyph-name="v" unicode="v" horiz-adv-x="523" 
d="M275 116l107 383c1 5 6 9 12 9h97c10 0 16 -3 16 -8c0 -4 -1 -9 -5 -19l-145 -440l-7 -22c-7 -22 -14 -27 -38 -27h-104c-27 0 -31 4 -44 45l-146 449c-1 4 -2 8 -2 11c0 9 5 11 17 11h125c6 0 11 -3 13 -9z" />
    <glyph glyph-name="w" unicode="w" horiz-adv-x="833" 
d="M416 392l-77 -364c-7 -32 -11 -36 -39 -36h-105c-23 0 -29 4 -37 33l-140 462c-1 4 -1 7 -1 9c0 9 5 12 19 12h124c6 0 11 -4 12 -10l90 -398l75 372c6 31 12 36 40 36h110c12 0 21 -1 25 -3c6 -4 12 -19 17 -42l79 -358l80 393c2 6 7 10 13 10h94c14 0 21 -4 21 -12
c0 -3 0 -4 -3 -15l-124 -458c-7 -28 -12 -31 -40 -31h-107c-25 0 -32 5 -37 27z" />
    <glyph glyph-name="x" unicode="x" horiz-adv-x="503" 
d="M237 176l-94 -169c-3 -5 -6 -7 -13 -7h-96c-13 0 -20 5 -20 13c0 5 2 10 8 20l143 231l-149 218c-3 5 -5 10 -5 13c0 9 6 13 21 13h128c5 0 8 -2 11 -6l88 -139l84 139c3 4 7 6 11 6h91c13 0 20 -4 20 -12c0 -5 -2 -10 -7 -17l-133 -206l158 -240c4 -6 7 -10 8 -11
c1 -3 1 -5 1 -8c0 -10 -6 -14 -20 -14h-127c-7 0 -11 2 -14 7z" />
    <glyph glyph-name="y" unicode="y" horiz-adv-x="518" 
d="M210 1l-191 484c-2 3 -2 6 -2 9c0 9 7 14 19 14h123c6 0 11 -3 13 -9l104 -322l112 322c2 6 7 9 13 9h81c15 0 20 -3 20 -12c0 -2 -1 -6 -2 -10l-204 -548c-13 -36 -22 -60 -26 -71c-8 -17 -18 -33 -32 -47c-20 -19 -49 -28 -92 -28h-28c-7 0 -13 6 -13 13v74
c0 7 6 13 13 13h15c27 0 42 19 64 76z" />
    <glyph glyph-name="z" unicode="z" horiz-adv-x="494" 
d="M272 408h-212c-7 0 -13 6 -13 13v74c0 7 6 13 13 13h374c7 0 13 -6 13 -13v-68c0 -5 -1 -7 -3 -10l-243 -317h243c7 0 13 -6 13 -13v-74c0 -7 -6 -13 -13 -13h-394c-7 0 -13 6 -13 13v71c0 1 0 3 1 6c0 2 1 3 1 3z" />
    <glyph glyph-name="braceleft" unicode="{" 
d="M230 242c26 -16 35 -25 46 -45c10 -19 14 -44 14 -78v-141l1 -15c1 -33 7 -47 24 -55c12 -5 34 -9 59 -9c3 0 8 1 14 1v-91h-27c-13 0 -22 -1 -26 -1c-106 0 -148 42 -148 146v159c0 56 -15 81 -56 90v86c40 9 56 33 56 82v164c0 101 43 141 149 141h26l26 -1v-90h-11
c-28 0 -50 -3 -62 -9c-19 -9 -25 -25 -25 -68v-144c0 -27 -3 -51 -10 -70c-8 -22 -19 -33 -50 -52z" />
    <glyph glyph-name="bar" unicode="|" 
d="M198 750h104v-1000h-104v1000z" />
    <glyph glyph-name="braceright" unicode="}" 
d="M287 242c-26 16 -35 25 -45 46c-10 18 -15 44 -15 77v141v16c-1 32 -8 47 -25 54c-12 6 -34 9 -59 9h-14v90c12 0 21 0 27 1h26c106 0 148 -41 148 -145v-160c0 -56 15 -80 56 -89v-86c-39 -9 -56 -34 -56 -82v-165c0 -100 -43 -141 -148 -141c-5 0 -14 0 -26 1h-27v91
h12c27 0 49 3 62 9c18 8 24 24 24 68v144c0 25 4 50 11 70c7 21 18 32 49 51z" />
    <glyph glyph-name="asciitilde" unicode="~" horiz-adv-x="667" 
d="M150 570l-59 38l8 16c17 36 25 50 41 69c24 28 58 43 96 43c26 0 56 -8 108 -29c20 -9 36 -15 46 -19c15 -5 31 -9 45 -9c35 0 54 14 80 59l60 -35c-18 -38 -25 -50 -41 -70c-28 -33 -70 -53 -113 -53c-17 0 -54 10 -91 25l-51 20c-18 7 -37 11 -51 11
c-19 0 -39 -9 -53 -25c-9 -11 -13 -18 -25 -41z" />
    <glyph glyph-name="exclamdown" unicode="&#xa1;" horiz-adv-x="320" 
d="M52 64l28 424c0 7 6 12 13 12h94c7 0 13 -5 13 -12l28 -425l1 -23c1 -8 1 -14 1 -18c0 -25 -16 -39 -46 -39h-87c-37 0 -47 10 -47 43v14zM50 608c0 44 31 67 92 67c57 0 88 -23 88 -66c0 -45 -31 -67 -94 -67c-54 0 -86 24 -86 66z" />
    <glyph glyph-name="cent" unicode="&#xa2;" horiz-adv-x="492" 
d="M312 -7v-61c0 -8 -4 -12 -12 -12h-20c-8 0 -12 4 -12 12v61c-39 2 -54 4 -78 11c-100 31 -157 120 -157 247c0 164 86 259 242 267v60c0 8 4 13 12 13h20c8 0 12 -5 12 -13v-61c34 -2 72 -7 100 -14c15 -4 31 -9 38 -12c9 -4 11 -9 11 -21v-81c0 -10 -3 -14 -12 -14
c-3 0 -8 1 -13 4l-11 6c-28 14 -68 23 -101 23c-93 0 -143 -53 -143 -153s50 -155 140 -155c41 0 81 11 115 32c7 5 9 6 13 6c8 0 12 -5 12 -15v-74c0 -13 -1 -17 -11 -21c-31 -16 -87 -29 -145 -35z" />
    <glyph glyph-name="sterling" unicode="&#xa3;" horiz-adv-x="580" 
d="M220 125h307c7 0 13 -6 13 -13v-99c0 -7 -6 -13 -13 -13h-464c-7 0 -13 6 -13 13v77c0 10 2 14 12 22l6 4c22 16 28 23 33 40c6 16 9 38 9 64v72h-47c-7 0 -13 6 -13 13v90c0 7 6 13 13 13h47v64c0 138 72 203 225 203c55 0 126 -10 161 -23c21 -8 24 -11 24 -22v-95
c0 -9 -4 -14 -10 -14c-3 0 -8 1 -12 4l-10 5c-35 19 -74 28 -120 28c-34 0 -58 -5 -77 -18c-23 -15 -31 -37 -31 -89v-43h117c7 0 13 -6 13 -13v-90c0 -7 -6 -13 -13 -13h-117v-49c0 -44 -7 -69 -31 -104z" />
    <glyph glyph-name="fraction" unicode="&#x2044;" horiz-adv-x="110" 
d="M-158 -8c-8 0 -12 3 -12 9c0 3 1 6 4 10l397 658c3 4 5 6 11 6h31c9 0 14 -3 14 -9c0 -3 -1 -7 -4 -11l-396 -657c-3 -4 -6 -6 -11 -6h-34z" />
    <glyph glyph-name="yen" unicode="&#xa5;" horiz-adv-x="652" 
d="M184 373l-163 275c-3 5 -3 6 -3 9c0 7 4 10 17 10h153c5 0 8 -2 11 -7l153 -280l152 279c3 6 6 8 11 8h106c11 0 16 -4 16 -10c0 -3 -1 -7 -4 -12l-162 -272h90c7 0 13 -6 13 -13v-91c0 -7 -6 -13 -13 -13h-148v-243c0 -7 -6 -13 -13 -13h-134c-7 0 -13 6 -13 13v243
h-146c-7 0 -13 6 -13 13v91c0 7 6 13 13 13h77z" />
    <glyph glyph-name="florin" unicode="&#x192;" horiz-adv-x="513" 
d="M349 508h87c6 0 10 -4 10 -10v-3l-17 -90c-2 -7 -9 -13 -16 -13h-87l-88 -456c-12 -60 -33 -95 -74 -122c-36 -23 -70 -31 -141 -31h-22c-6 0 -11 5 -11 11v2l15 74c1 7 8 13 15 13h4c36 0 57 22 66 65l86 444h-77c-6 0 -11 4 -11 10c0 1 1 2 1 3l17 90c2 7 9 13 16 13
h77l15 80c18 92 83 145 178 145c49 0 94 -14 94 -29v-6l-13 -64c-2 -9 -6 -13 -13 -13c-3 0 -6 1 -12 4c-13 6 -22 8 -32 8c-29 0 -46 -18 -54 -55z" />
    <glyph glyph-name="section" unicode="&#xa7;" horiz-adv-x="527" 
d="M154 399c-22 15 -30 22 -40 33c-20 24 -31 53 -31 86c0 96 76 157 195 157c40 0 88 -8 130 -21c12 -4 23 -8 32 -13c11 -5 13 -9 13 -19v-78c0 -10 -3 -15 -11 -15c-4 0 -7 1 -17 6c-56 29 -97 40 -145 40c-42 0 -67 -15 -67 -41c0 -9 4 -17 9 -22c9 -9 30 -23 47 -32
l83 -43c99 -52 141 -104 141 -177c0 -77 -48 -144 -121 -166c51 -31 72 -66 72 -118c0 -98 -74 -159 -191 -159c-43 0 -87 7 -128 20c-46 15 -52 19 -52 36v76c0 10 4 14 12 14c5 0 9 -1 18 -6c22 -12 37 -19 65 -28c30 -9 46 -12 73 -12c48 0 72 13 72 39
c0 20 -13 33 -55 56l-57 30c-79 42 -86 47 -117 75c-34 30 -51 68 -51 118c0 75 45 136 121 164zM313 137c17 14 22 18 30 27c13 15 20 34 20 55c0 33 -15 55 -55 79l-96 55c-15 -12 -20 -16 -27 -24c-14 -15 -22 -34 -22 -55c0 -20 8 -40 20 -52c9 -9 28 -23 50 -36z" />
    <glyph glyph-name="currency" unicode="&#xa4;" horiz-adv-x="667" 
d="M37 131l98 99c-32 44 -47 89 -47 140c0 50 14 91 47 138l-100 100l57 57l100 -99c49 33 90 47 142 47s91 -13 140 -46l99 98l56 -57l-98 -98c34 -51 48 -91 48 -141s-13 -90 -47 -139l100 -99l-56 -57l-100 99c-46 -33 -91 -48 -142 -48c-50 0 -91 14 -142 47l-99 -98z
M334 521c-84 0 -151 -68 -151 -152c0 -83 67 -151 150 -151c84 0 151 67 151 151s-67 152 -150 152z" />
    <glyph glyph-name="quotesingle" unicode="'" horiz-adv-x="207" 
d="M141 399h-76l-19 268h115z" />
    <glyph glyph-name="quotedblleft" unicode="&#x201c;" horiz-adv-x="450" 
d="M402 677c12 0 18 -5 18 -13c0 -5 -2 -9 -10 -17c-24 -25 -40 -56 -40 -78c0 -4 1 -8 3 -11c1 -2 3 -4 5 -5c1 0 4 -2 9 -3c20 -7 33 -28 33 -55c0 -43 -29 -68 -80 -68c-57 0 -90 34 -90 95c0 45 20 95 55 138c8 10 12 14 15 15c3 2 6 2 19 2h63zM173 677
c11 0 18 -5 18 -13c0 -5 -2 -9 -11 -17c-23 -25 -39 -56 -39 -78c0 -4 1 -8 2 -11c2 -2 4 -4 6 -5c1 0 4 -2 9 -3c20 -7 33 -28 33 -54c0 -44 -29 -69 -80 -69c-57 0 -90 34 -90 95c0 46 19 94 55 138c8 10 12 14 15 15c3 2 6 2 18 2h64z" />
    <glyph glyph-name="guillemotleft" unicode="&#xab;" horiz-adv-x="490" 
d="M119 263l105 -177c5 -9 6 -12 6 -16c0 -8 -5 -12 -18 -12h-74c-4 0 -8 3 -11 7l-115 191c-2 2 -2 4 -2 7c0 2 0 4 2 6l115 191c3 4 7 7 11 7h75c12 0 18 -4 18 -12c0 -3 -2 -6 -5 -11zM306 263l106 -177c5 -8 6 -12 6 -16c0 -8 -5 -12 -18 -12h-74c-5 0 -9 3 -11 7
l-116 191c-1 2 -2 4 -2 7c0 2 1 4 2 6l116 191c2 4 6 7 11 7h75c12 0 17 -4 17 -12c0 -3 -1 -6 -4 -11z" />
    <glyph glyph-name="guilsinglleft" unicode="&#x2039;" horiz-adv-x="300" 
d="M119 263l105 -177c5 -9 6 -12 6 -16c0 -8 -5 -12 -18 -12h-74c-4 0 -8 3 -11 7l-115 191c-2 2 -2 4 -2 7c0 2 0 4 2 6l115 191c3 4 7 7 11 7h75c12 0 18 -4 18 -12c0 -3 -2 -6 -5 -11z" />
    <glyph glyph-name="guilsinglright" unicode="&#x203a;" horiz-adv-x="300" 
d="M182 262l-106 177c-5 8 -6 12 -6 16c0 8 5 12 18 12h74c4 0 9 -3 11 -7l116 -191c1 -2 1 -4 1 -7c0 -2 0 -4 -1 -6l-116 -191c-2 -4 -7 -7 -11 -7h-75c-12 0 -18 4 -18 12c0 3 2 6 5 11z" />
    <glyph glyph-name="fi" unicode="&#xfb01;" horiz-adv-x="633" 
d="M90 408h-57c-7 0 -13 6 -13 13v74c0 7 6 13 13 13h57v41c0 110 88 172 244 172c31 0 74 -3 110 -7c86 -10 126 -36 126 -81c0 -37 -29 -58 -78 -58c-32 0 -50 6 -70 23c-19 17 -39 23 -79 23c-17 0 -32 -2 -46 -5c-11 -3 -22 -9 -32 -16c-19 -15 -25 -32 -25 -73v-19h87
c7 0 13 -6 13 -13v-74c0 -7 -6 -13 -13 -13h-87v-395c0 -7 -6 -13 -13 -13h-124c-7 0 -13 6 -13 13v395zM423 0c-7 0 -13 6 -13 13v482c0 7 6 13 13 13h124c7 0 13 -6 13 -13v-482c0 -7 -6 -13 -13 -13h-124z" />
    <glyph glyph-name="fl" unicode="&#xfb02;" horiz-adv-x="633" 
d="M90 408h-57c-7 0 -13 6 -13 13v74c0 7 6 13 13 13h57v53c0 100 87 160 229 160c33 0 58 -2 109 -8h119c7 0 13 -6 13 -14v-686c0 -7 -6 -13 -13 -13h-124c-7 0 -13 6 -13 13v614c-24 13 -47 19 -75 19c-29 0 -53 -8 -70 -25c-19 -17 -25 -37 -25 -82v-31h87
c7 0 13 -6 13 -13v-74c0 -7 -6 -13 -13 -13h-87v-395c0 -7 -6 -13 -13 -13h-124c-7 0 -13 6 -13 13v395z" />
    <glyph glyph-name="endash" unicode="&#x2013;" 
d="M33 385h434v-96h-434v96z" />
    <glyph glyph-name="dagger" unicode="&#x2020;" horiz-adv-x="467" 
d="M291 417v-612c0 -7 -6 -13 -13 -13h-84c-7 0 -13 6 -13 13v612h-147c-7 0 -13 6 -13 13v65c0 7 6 13 13 13h147v187c0 7 6 13 13 13h84c7 0 13 -6 13 -13v-187h140c8 0 13 -5 13 -12v-68c0 -7 -4 -11 -13 -11h-140z" />
    <glyph glyph-name="daggerdbl" unicode="&#x2021;" horiz-adv-x="467" 
d="M291 417v-334h140c9 0 13 -4 13 -11v-68c0 -7 -5 -12 -13 -12h-140v-187c0 -7 -6 -13 -13 -13h-84c-7 0 -13 6 -13 13v187h-147c-7 0 -13 6 -13 13v65c0 7 6 13 13 13h147v334h-147c-7 0 -13 6 -13 13v65c0 7 6 13 13 13h147v187c0 7 6 13 13 13h84c7 0 13 -6 13 -13
v-187h140c8 0 13 -5 13 -12v-68c0 -7 -4 -11 -13 -11h-140z" />
    <glyph glyph-name="periodcentered" unicode="&#xb7;" horiz-adv-x="204" 
d="M0 354c0 56 34 84 101 84c68 0 103 -29 103 -87s-30 -83 -101 -83s-103 27 -103 86z" />
    <glyph glyph-name="paragraph" unicode="&#xb6;" horiz-adv-x="627" 
d="M218 -95v413h-13c-107 0 -181 70 -181 171c0 49 18 94 48 124c37 36 95 54 178 54h305v-80h-67v-682h-89v682h-93v-682h-88z" />
    <glyph glyph-name="bullet" unicode="&#x2022;" horiz-adv-x="667" 
d="M334 480c75 0 137 -63 137 -140s-62 -140 -137 -140c-76 0 -138 63 -138 140s62 140 138 140z" />
    <glyph glyph-name="quotesinglbase" unicode="&#x201a;" horiz-adv-x="221" 
d="M48 -125c-12 0 -18 5 -18 13c0 5 2 9 10 17c24 25 40 56 40 78c0 4 -1 8 -3 11c-1 2 -3 4 -5 5c-1 1 -4 2 -9 3c-20 7 -33 28 -33 54c0 44 29 69 80 69c57 0 90 -34 90 -95c0 -46 -19 -93 -55 -138c-8 -10 -12 -13 -15 -15s-6 -2 -19 -2h-63z" />
    <glyph glyph-name="quotedblbase" unicode="&#x201e;" horiz-adv-x="450" 
d="M277 -125c-11 0 -18 5 -18 13c0 5 2 9 11 17c23 25 39 56 39 78c0 4 -1 8 -2 11c-2 2 -4 4 -6 5c-1 1 -4 2 -9 3c-20 7 -33 28 -33 54c0 44 29 69 80 69c57 0 90 -34 90 -94c0 -46 -19 -95 -55 -139c-8 -10 -12 -13 -15 -15s-6 -2 -18 -2h-64zM48 -125
c-12 0 -18 5 -18 13c0 5 2 9 10 17c24 25 40 56 40 78c0 4 -1 8 -3 11c-1 2 -3 4 -5 5c-1 1 -4 2 -9 3c-20 7 -33 28 -33 54c0 44 29 69 80 69c57 0 90 -34 90 -95c0 -46 -19 -93 -55 -138c-8 -10 -12 -13 -15 -15s-6 -2 -19 -2h-63z" />
    <glyph glyph-name="quotedblright" unicode="&#x201d;" horiz-adv-x="450" 
d="M48 427c-12 0 -18 5 -18 13c0 5 2 9 10 17c24 25 40 56 40 78c0 4 -1 8 -3 11c-1 2 -3 4 -5 5c-1 1 -4 2 -9 3c-20 7 -33 28 -33 54c0 44 29 69 80 69c57 0 90 -34 90 -94c0 -47 -19 -94 -55 -138c-8 -11 -12 -14 -15 -16s-7 -2 -19 -2h-63zM277 427c-11 0 -18 5 -18 13
c0 5 3 9 11 17c23 25 39 56 39 78c0 4 -1 8 -2 11c-2 2 -4 4 -6 5c-1 1 -4 2 -9 3c-20 7 -33 28 -33 55c0 43 29 68 80 68c57 0 90 -34 90 -94c0 -46 -19 -95 -55 -138c-8 -11 -12 -14 -15 -16s-7 -2 -18 -2h-64z" />
    <glyph glyph-name="guillemotright" unicode="&#xbb;" horiz-adv-x="490" 
d="M369 262l-106 177c-4 8 -6 12 -6 16c0 8 5 12 19 12h73c5 0 9 -3 11 -7l116 -191c1 -2 2 -4 2 -7c0 -2 -1 -4 -2 -6l-116 -191c-2 -4 -6 -7 -11 -7h-75c-11 0 -17 4 -17 12c0 3 1 7 4 11zM182 262l-106 177c-5 8 -6 12 -6 16c0 8 5 12 18 12h74c4 0 9 -3 11 -7l116 -191
c1 -2 1 -4 1 -7c0 -2 0 -4 -1 -6l-116 -191c-2 -4 -7 -7 -11 -7h-75c-12 0 -18 4 -18 12c0 3 2 6 5 11z" />
    <glyph glyph-name="ellipsis" unicode="&#x2026;" horiz-adv-x="731" 
d="M37 54c0 47 28 71 84 71c57 0 86 -25 86 -72c0 -49 -25 -70 -85 -70c-59 0 -85 22 -85 71zM280 54c0 47 29 71 84 71c57 0 87 -25 87 -72c0 -49 -25 -70 -85 -70c-59 0 -86 22 -86 71zM524 54c0 47 28 71 84 71c57 0 86 -25 86 -72c0 -49 -25 -70 -84 -70
c-60 0 -86 22 -86 71z" />
    <glyph glyph-name="perthousand" unicode="&#x2030;" horiz-adv-x="1083" 
d="M161 -8c-8 0 -12 3 -12 9c0 3 1 6 4 10l397 658c2 4 5 6 11 6h30c10 0 15 -3 15 -9c0 -3 -1 -6 -4 -11l-396 -657c-3 -4 -6 -6 -12 -6h-33zM55 501c0 106 55 176 139 176s137 -69 137 -179c0 -107 -54 -175 -139 -175c-82 0 -137 71 -137 178zM420 167
c0 107 55 177 138 177c85 0 138 -69 138 -179c0 -107 -54 -175 -139 -175c-82 0 -137 71 -137 177zM753 167c0 107 55 177 139 177s137 -69 137 -179c0 -107 -54 -175 -139 -175c-82 0 -137 71 -137 177zM144 500h-1c0 -78 16 -115 49 -115c34 0 51 37 51 111
c0 81 -16 119 -50 119c-33 0 -50 -39 -49 -115zM508 168c0 -80 15 -116 49 -116s50 36 50 111c0 80 -16 118 -49 118s-50 -38 -50 -113zM841 168c0 -80 16 -116 49 -116c34 0 50 36 50 111c0 80 -15 118 -49 118c-33 0 -50 -38 -50 -113z" />
    <glyph glyph-name="questiondown" unicode="&#xbf;" 
d="M317 500c7 0 13 -6 13 -13v-46c0 -53 -17 -90 -60 -129l-32 -30c-34 -32 -48 -59 -48 -96c0 -55 37 -86 103 -86c43 0 97 16 127 39c8 6 12 7 16 7c9 0 14 -6 14 -16v-91c0 -13 -4 -17 -27 -26c-51 -20 -102 -30 -158 -30c-68 0 -132 17 -176 45c-47 29 -69 80 -69 152
c0 68 21 108 87 164l69 58c31 26 34 30 34 56v29c0 7 6 13 13 13h94zM360 609c0 -45 -30 -67 -91 -67c-59 0 -89 23 -89 69c0 45 31 68 90 68c60 0 90 -23 90 -70z" />
    <glyph glyph-name="grave" unicode="`" 
d="M290 610c17 -13 21 -19 21 -28c0 -15 -11 -25 -25 -25c-5 0 -9 1 -12 3l-142 71c-25 12 -36 26 -36 45c0 24 18 45 38 45c10 0 21 -5 33 -15z" />
    <glyph glyph-name="acute" unicode="&#xb4;" 
d="M226 560c-3 -2 -8 -3 -12 -3c-14 0 -25 11 -25 25c0 10 4 14 21 28l123 96c12 10 23 15 33 15c20 0 38 -21 38 -45c0 -19 -11 -33 -36 -45z" />
    <glyph glyph-name="circumflex" unicode="&#x2c6;" 
d="M250 616l-117 -70c-2 -1 -5 -2 -7 -2c-4 0 -8 2 -11 6l-15 23c-1 2 -2 4 -2 7c0 4 2 7 5 10l138 116c2 2 6 3 9 3s5 -1 8 -3l139 -116c3 -3 5 -6 5 -10c0 -3 -1 -5 -2 -7l-16 -23c-2 -4 -6 -6 -10 -6c-3 0 -5 1 -7 2z" />
    <glyph glyph-name="tilde" unicode="&#x2dc;" 
d="M138 575c-7 0 -13 6 -13 13v20c0 51 31 80 86 80c10 0 20 -2 29 -4c15 -5 19 -8 39 -29c8 -10 15 -13 26 -13c13 0 21 8 21 22v12c0 7 5 12 11 12h25c7 0 13 -6 13 -14v-21c0 -52 -27 -78 -82 -78c-30 0 -48 7 -69 28c-11 11 -16 14 -26 14c-14 0 -22 -9 -22 -23v-9
c0 -5 -4 -10 -9 -10h-29z" />
    <glyph glyph-name="macron" unicode="&#xaf;" 
d="M123 588c-8 0 -13 5 -13 13v38c0 7 5 13 13 13h254c8 0 13 -6 13 -13v-38c0 -8 -5 -13 -13 -13h-254z" />
    <glyph glyph-name="breve" unicode="&#x2d8;" 
d="M379 620c-28 -49 -76 -78 -130 -78c-43 0 -77 16 -109 52c-16 19 -29 41 -29 49c0 4 4 9 8 13l13 11c5 4 9 6 11 6s4 -1 7 -5c28 -29 58 -43 96 -43c36 0 68 13 90 36l8 7c3 3 5 5 8 5s8 -2 12 -6l21 -18c2 -3 4 -6 4 -8s-1 -5 -3 -8z" />
    <glyph glyph-name="dotaccent" unicode="&#x2d9;" 
d="M185 634c0 39 21 58 65 58c45 0 65 -19 65 -59s-21 -58 -66 -58c-43 0 -64 20 -64 59z" />
    <glyph glyph-name="dieresis" unicode="&#xa8;" 
d="M305 635c0 39 20 57 66 57c43 0 64 -19 64 -59c0 -39 -21 -58 -64 -58c-45 0 -66 19 -66 60zM65 634c0 39 21 58 65 58c45 0 65 -19 65 -59c0 -39 -20 -58 -64 -58s-66 19 -66 59z" />
    <glyph glyph-name="ring" unicode="&#x2da;" 
d="M160 631c0 54 33 86 91 86c57 0 89 -30 89 -82c0 -56 -32 -85 -92 -85c-56 0 -88 30 -88 81zM210 633c0 -24 13 -34 42 -34c25 0 38 12 38 34s-14 34 -41 34c-26 0 -39 -12 -39 -34z" />
    <glyph glyph-name="cedilla" unicode="&#xb8;" 
d="M219 1h57v-49c44 0 72 -27 72 -71c0 -56 -40 -84 -123 -84h-33c-8 0 -13 6 -13 13v23c0 7 5 13 13 13h22c39 0 57 12 57 39c0 20 -12 32 -32 34h-11c-6 1 -9 5 -9 12v70z" />
    <glyph glyph-name="hungarumlaut" unicode="&#x2dd;" 
d="M333 564c-10 -8 -15 -10 -23 -10c-9 0 -17 7 -17 16c0 7 3 14 13 29l63 97c9 14 22 21 38 21c24 0 44 -19 44 -43c0 -12 -6 -23 -18 -33zM182 564c-11 -8 -15 -10 -23 -10c-9 0 -17 7 -17 16c0 7 3 14 13 29l63 97c9 14 22 21 38 21c24 0 44 -19 44 -43
c0 -12 -6 -23 -18 -33z" />
    <glyph glyph-name="ogonek" unicode="&#x2db;" 
d="M400 0v-22c-42 -5 -66 -28 -66 -65c0 -35 20 -52 66 -52h23c12 0 17 -4 17 -16v-17c0 -10 -5 -14 -16 -14h-50c-72 0 -114 30 -114 80c0 60 56 106 130 106h10z" />
    <glyph glyph-name="caron" unicode="&#x2c7;" 
d="M250 637l117 70c2 1 5 2 7 2c4 0 8 -2 11 -6l15 -23c1 -2 2 -5 2 -7c0 -4 -2 -7 -5 -10l-138 -116c-3 -2 -6 -3 -9 -3s-5 1 -8 3l-139 116c-3 3 -5 6 -5 10c0 3 1 5 2 7l16 23c2 4 6 6 10 6c3 0 5 -1 7 -2z" />
    <glyph glyph-name="emdash" unicode="&#x2014;" horiz-adv-x="1000" 
d="M153 208c-7 0 -13 6 -13 13v74c0 7 6 13 13 13h694c7 0 13 -6 13 -13v-74c0 -7 -6 -13 -13 -13h-694z" />
    <glyph glyph-name="AE" unicode="&#xc6;" horiz-adv-x="841" 
d="M395 267h-168l-92 -258c-2 -6 -7 -9 -12 -9h-98c-8 0 -14 6 -14 13c0 3 1 5 3 12l228 597c15 37 25 45 68 45h458c7 0 13 -6 13 -13v-91c0 -7 -6 -13 -13 -13h-280l32 -158h188c7 0 13 -6 13 -13v-91c0 -7 -6 -13 -13 -13h-165l32 -158h233c7 0 13 -6 13 -13v-91
c0 -7 -6 -13 -13 -13h-350c-6 0 -11 4 -12 11zM379 367l-42 191l-79 -191h121z" />
    <glyph glyph-name="ordfeminine" unicode="&#xaa;" horiz-adv-x="373" 
d="M230 413h-3c-3 0 -7 -1 -13 -3l-10 -4c-19 -7 -35 -10 -55 -10c-61 0 -96 28 -96 77c0 48 24 70 101 92l52 15c15 4 18 7 18 15c0 16 -13 22 -47 22c-36 0 -66 -7 -91 -21c-5 -3 -6 -3 -9 -3c-5 0 -7 3 -7 9v37c0 16 50 30 114 30c83 0 125 -27 125 -79v-183
c0 -4 -3 -7 -7 -7h-65c-4 0 -7 3 -7 7v6zM309 330v-33h-253v33h253zM224 537l-34 -12c-41 -14 -52 -23 -52 -44s15 -33 42 -33c30 0 44 11 44 37v52z" />
    <glyph glyph-name="Oslash" unicode="&#xd8;" horiz-adv-x="740" 
d="M522 651l40 66c3 4 8 7 12 7c3 0 5 -1 7 -2l31 -21c8 -5 10 -7 10 -13c0 -3 -1 -6 -3 -8l-38 -64c11 -10 20 -17 25 -22c64 -62 99 -156 99 -266s-33 -199 -97 -262c-56 -56 -133 -83 -238 -83c-71 0 -96 5 -157 28l-41 -66c-4 -7 -6 -8 -13 -8c-3 0 -6 1 -8 3l-32 20
c-5 3 -7 6 -7 10c0 2 1 6 3 10l40 66c-10 9 -17 16 -22 20c-59 58 -98 156 -98 245v18v15c0 94 36 186 96 248c54 55 133 83 236 83c67 0 92 -4 155 -24zM453 540c-30 15 -48 19 -79 19c-28 0 -54 -5 -76 -14c-17 -7 -33 -18 -47 -33c-38 -40 -52 -89 -52 -180
c0 -25 1 -50 3 -75c4 -44 8 -57 29 -85zM504 493l-225 -372c37 -17 53 -21 89 -21c48 0 90 16 120 46c37 35 52 91 52 189c0 24 -1 48 -4 71c-4 35 -10 52 -32 87z" />
    <glyph glyph-name="OE" unicode="&#x152;" horiz-adv-x="900" 
d="M620 292v-175h247c7 0 13 -6 13 -13v-91c0 -7 -6 -13 -13 -13h-407c-10 -2 -17 -3 -22 -4c-8 -1 -20 -2 -34 -3c-19 -1 -34 -1 -46 -1c-201 0 -323 130 -323 344c0 109 33 195 99 259c60 57 128 80 239 80c25 0 42 -1 70 -6l17 -2h387c7 0 13 -6 13 -13v-91
c0 -7 -6 -13 -13 -13h-227v-142h177c7 0 13 -6 13 -13v-90c0 -7 -6 -13 -13 -13h-177zM460 537c-29 14 -59 21 -93 21c-49 0 -93 -17 -121 -49c-32 -37 -46 -91 -46 -182c0 -144 57 -219 168 -219c34 0 63 7 92 23v406z" />
    <glyph glyph-name="ordmasculine" unicode="&#xba;" horiz-adv-x="373" 
d="M36 530c0 90 53 139 152 139c96 0 150 -51 150 -140c0 -88 -55 -138 -154 -138c-93 0 -148 52 -148 139zM334 330v-33h-295v33h295zM124 532v-1c0 -59 20 -88 62 -88s63 31 63 91c0 52 -22 83 -62 83c-42 0 -63 -29 -63 -85z" />
    <glyph glyph-name="ae" unicode="&#xe6;" horiz-adv-x="842" 
d="M407 58h-8l-5 -4c-18 -14 -34 -25 -47 -32c-35 -19 -85 -30 -133 -30c-115 0 -181 54 -181 149c0 51 20 94 55 120c25 18 59 33 114 51l93 30c30 9 38 17 38 34c0 27 -26 41 -77 41c-57 0 -112 -13 -163 -40c-10 -5 -12 -6 -17 -6c-8 0 -13 6 -13 17v70c0 15 8 23 31 31
c52 19 104 28 171 28c83 0 128 -13 153 -42h10l5 3c15 10 26 16 32 19c25 12 65 20 106 20c151 0 242 -94 242 -248v-31c0 -7 -6 -13 -13 -13h-328c0 -54 9 -77 39 -102c25 -22 55 -31 99 -31c22 0 42 2 60 6c22 5 63 20 84 31l10 6c3 2 6 3 9 3c7 0 10 -5 10 -15v-73
c0 -13 -4 -18 -21 -25c-51 -21 -117 -33 -178 -33c-55 0 -101 10 -134 31c-16 10 -23 15 -43 35zM333 262l-57 -22c-36 -14 -47 -19 -61 -27c-21 -13 -32 -33 -32 -57c0 -39 28 -64 69 -64c53 0 81 24 81 69v101zM663 317c0 44 -6 63 -25 82c-16 17 -42 26 -72 26
s-53 -8 -70 -26c-19 -19 -24 -38 -24 -82h191z" />
    <glyph glyph-name="dotlessi" unicode="&#x131;" horiz-adv-x="297" 
d="M86 0c-7 0 -13 6 -13 13v482c0 7 6 13 13 13h124c7 0 13 -6 13 -13v-482c0 -7 -6 -13 -13 -13h-124z" />
    <glyph glyph-name="oslash" unicode="&#xf8;" horiz-adv-x="597" 
d="M416 499l35 58c3 5 5 7 10 7c3 0 6 -1 7 -2l27 -18c6 -4 7 -6 7 -9s-1 -6 -3 -9l-32 -55c66 -53 96 -124 96 -224c0 -165 -97 -264 -261 -264c-55 0 -74 3 -119 18l-35 -56c-3 -5 -7 -8 -10 -8c-2 0 -5 1 -8 3l-24 14c-7 4 -8 6 -8 10c0 2 1 5 3 8l33 55
c-10 7 -16 13 -21 17c-48 42 -80 119 -80 190v16v12c0 75 30 148 80 196c43 41 101 59 191 59c60 0 74 -3 112 -18zM355 398c-19 14 -32 19 -54 19c-32 0 -59 -11 -77 -32c-25 -27 -36 -70 -36 -145c0 -39 3 -56 18 -94zM393 349l-151 -250c21 -14 31 -17 55 -17
c75 0 111 58 111 175c0 35 -3 53 -15 92z" />
    <glyph glyph-name="oe" unicode="&#x153;" horiz-adv-x="926" 
d="M481 448c38 44 99 68 178 68c150 0 239 -94 239 -252v-21c0 -14 -4 -19 -17 -19h-325v-9c0 -77 52 -121 140 -121c45 0 101 16 144 41c6 4 11 6 15 6c7 0 12 -7 12 -17v-67c0 -16 -3 -21 -14 -27c-44 -23 -124 -40 -189 -40c-83 0 -140 21 -177 67h-11
c-41 -50 -100 -73 -187 -73c-78 0 -128 18 -175 61c-56 52 -81 116 -81 209c0 166 96 262 262 262c78 0 136 -23 175 -68h11zM184 253c0 -115 37 -170 114 -170c74 0 110 55 110 165s-38 169 -111 169c-74 0 -113 -57 -113 -164zM747 318c-1 40 -4 51 -15 69
c-13 21 -46 35 -80 35c-35 0 -67 -14 -81 -35c-12 -18 -15 -31 -15 -69h191z" />
    <glyph glyph-name="germandbls" unicode="&#xdf;" horiz-adv-x="672" 
d="M388 505l21 14c14 10 24 30 24 48c0 37 -36 58 -97 58c-78 0 -113 -31 -113 -102v-510c0 -7 -6 -13 -13 -13h-124c-7 0 -13 6 -13 13v478c0 93 24 146 85 185c44 28 96 41 175 41c159 0 239 -53 239 -156c0 -57 -24 -93 -82 -125l-26 -14c-33 -18 -41 -26 -41 -42
c0 -15 10 -28 27 -37l20 -10l63 -35c41 -23 55 -33 71 -56c19 -25 29 -58 29 -92c0 -97 -76 -158 -196 -158c-51 0 -94 10 -144 34c-17 7 -20 11 -20 22v64c0 12 4 18 13 18c5 0 8 -1 19 -7c34 -22 77 -32 126 -32c41 0 62 13 62 39c0 6 -1 13 -5 18c-4 8 -7 10 -31 23
l-79 44c-70 39 -95 77 -95 145c0 58 18 85 81 129z" />
    <glyph glyph-name="Adieresis" unicode="&#xc4;" horiz-adv-x="633" 
d="M193 200l-61 -191c-2 -5 -7 -9 -13 -9h-91c-11 0 -17 4 -17 12c0 3 0 5 4 16l198 604c7 23 9 26 20 34c9 7 18 9 41 9h78c35 0 40 -1 51 -13c5 -6 9 -13 12 -21c2 -4 4 -11 7 -21l194 -591l4 -10v-5c0 -9 -6 -14 -18 -14h-132c-6 0 -11 4 -13 9l-60 191h-204zM377 785
c0 39 20 58 65 58c44 0 65 -19 65 -58c0 -41 -21 -59 -66 -59c-43 0 -64 20 -64 59zM127 785c0 39 20 58 65 58c44 0 65 -19 65 -58c0 -41 -21 -59 -66 -59c-43 0 -64 20 -64 59zM373 300l-72 247l-81 -247h153z" />
    <glyph glyph-name="Aring" unicode="&#xc5;" horiz-adv-x="633" 
d="M193 200l-61 -191c-2 -5 -7 -9 -13 -9h-91c-11 0 -17 4 -17 12c0 3 0 5 4 16l198 604c7 23 9 26 20 34c9 7 18 9 41 9h78c35 0 40 -1 51 -13c5 -6 9 -13 12 -21c2 -4 4 -11 7 -21l194 -591l4 -10v-5c0 -9 -6 -14 -18 -14h-132c-6 0 -11 4 -13 9l-60 191h-204zM226 782
c0 54 34 85 91 85s89 -30 89 -82c0 -55 -32 -85 -92 -85c-55 0 -88 30 -88 82zM373 300l-72 247l-81 -247h153zM276 783c0 -23 13 -34 42 -34c25 0 38 12 38 34c0 23 -14 34 -41 34c-26 0 -39 -11 -39 -34z" />
    <glyph glyph-name="Ccedilla" unicode="&#xc7;" horiz-adv-x="620" 
d="M414 -8v-40c44 0 73 -27 73 -71c0 -56 -41 -84 -123 -84h-34c-7 0 -13 6 -13 13v23c0 7 6 13 13 13h23c39 0 56 12 56 39c0 20 -11 32 -32 34h-11c-5 1 -9 5 -9 12v61c-213 11 -322 126 -322 338c0 219 129 345 353 345c70 0 131 -11 181 -32c17 -8 21 -12 21 -27v-85
c0 -12 -5 -19 -13 -19c-4 0 -8 2 -17 8c-37 23 -96 38 -150 38c-135 0 -210 -81 -210 -226c0 -141 77 -224 209 -224c51 0 97 13 147 39c10 5 16 7 20 7c9 0 14 -6 14 -16v-84c0 -14 -3 -19 -17 -26c-38 -20 -92 -32 -159 -36z" />
    <glyph glyph-name="Eacute" unicode="&#xc9;" horiz-adv-x="543" 
d="M237 550v-142h197c7 0 13 -6 13 -13v-90c0 -7 -6 -13 -13 -13h-197v-175h267c7 0 13 -6 13 -13v-91c0 -7 -6 -13 -13 -13h-414c-7 0 -13 6 -13 13v641c0 7 6 13 13 13h394c7 0 13 -6 13 -13v-91c0 -7 -6 -13 -13 -13h-247zM252 716c-3 -2 -8 -3 -12 -3
c-14 0 -25 11 -25 25c0 10 4 15 21 29l123 96c12 9 23 14 33 14c20 0 38 -21 38 -45c0 -19 -11 -32 -36 -45z" />
    <glyph glyph-name="Ntilde" unicode="&#xd1;" horiz-adv-x="693" 
d="M197 468v-455c0 -7 -6 -13 -13 -13h-94c-7 0 -13 6 -13 13v641c0 7 6 13 13 13h148c5 0 9 -3 11 -7l248 -470v464c0 7 6 13 13 13h94c7 0 13 -6 13 -13v-649c0 -7 -6 -13 -13 -13h-145c-5 0 -9 2 -12 6zM235 731c-8 0 -13 6 -13 13v20c0 51 31 80 85 80c11 0 21 -2 30 -4
c15 -4 18 -7 38 -29c9 -10 16 -13 26 -13c13 0 22 9 22 22v12c0 7 4 12 11 12h25c7 0 13 -6 13 -13v-22c0 -52 -28 -78 -83 -78c-29 0 -47 8 -69 29c-11 10 -16 13 -25 13c-14 0 -23 -9 -23 -22v-9c0 -6 -4 -11 -9 -11h-28z" />
    <glyph glyph-name="Odieresis" unicode="&#xd6;" horiz-adv-x="740" 
d="M35 330c0 107 35 202 96 262c59 57 133 83 240 83c105 0 177 -25 235 -81c64 -62 99 -156 99 -267c0 -109 -33 -198 -97 -261c-56 -56 -133 -83 -238 -83c-106 0 -178 26 -237 83c-62 61 -98 157 -98 264zM430 785c0 39 21 58 65 58c45 0 65 -19 65 -58
c0 -41 -20 -59 -66 -59c-43 0 -64 20 -64 59zM180 785c0 39 21 58 65 58c45 0 65 -19 65 -58c0 -41 -20 -59 -66 -59c-43 0 -64 20 -64 59zM200 329c0 -94 14 -145 51 -184c28 -29 68 -45 116 -45c49 0 91 16 121 46c37 36 52 94 52 198c0 141 -58 214 -169 214
c-50 0 -90 -15 -120 -44c-36 -36 -51 -92 -51 -185z" />
    <glyph glyph-name="Udieresis" unicode="&#xdc;" horiz-adv-x="693" 
d="M67 654c0 7 6 13 13 13h134c7 0 13 -6 13 -13v-402c0 -99 43 -144 138 -144c37 0 71 9 96 24c32 21 46 57 46 124v398c0 7 5 13 13 13h94c7 0 13 -6 13 -13v-449c0 -82 -35 -145 -101 -184c-46 -27 -93 -38 -173 -38c-99 0 -158 16 -212 57c-56 42 -74 89 -74 190v424z
M417 785h-1c0 39 21 58 66 58c44 0 65 -19 65 -58c0 -41 -21 -59 -66 -59c-43 0 -65 20 -64 59zM167 785h-1c0 39 21 58 66 58c44 0 65 -19 65 -58c0 -41 -21 -59 -66 -59c-43 0 -65 20 -64 59z" />
    <glyph glyph-name="aacute" unicode="&#xe1;" horiz-adv-x="547" 
d="M343 25h-4c-6 0 -8 -1 -14 -3l-9 -3l-18 -8c-35 -14 -61 -19 -96 -19c-108 0 -169 53 -169 148c0 56 21 100 60 126c28 18 64 34 118 51l91 28c26 9 31 14 31 32c0 28 -23 40 -82 40c-63 0 -116 -14 -160 -41c-8 -4 -11 -5 -15 -5c-8 0 -13 6 -13 17v71c0 14 3 17 17 24
c48 22 111 34 183 34c146 0 220 -51 220 -151v-353c0 -7 -6 -13 -13 -13h-114c-7 0 -13 6 -13 13v12zM245 560c-4 -2 -8 -3 -13 -3c-14 0 -25 11 -25 25c0 10 4 14 22 28l122 96c12 10 23 15 34 15c19 0 37 -21 37 -45c0 -19 -11 -33 -35 -45zM333 264l-59 -23
c-3 -1 -13 -6 -29 -13c-12 -5 -22 -10 -30 -15c-21 -12 -32 -31 -32 -57c0 -41 27 -64 73 -64c52 0 77 23 77 71v101z" />
    <glyph glyph-name="agrave" unicode="&#xe0;" horiz-adv-x="547" 
d="M343 25h-4c-6 0 -8 -1 -14 -3l-9 -3l-18 -8c-35 -14 -61 -19 -96 -19c-108 0 -169 53 -169 148c0 56 21 100 60 126c28 18 64 34 118 51l91 28c26 9 31 14 31 32c0 28 -23 40 -82 40c-63 0 -116 -14 -160 -41c-8 -4 -11 -5 -15 -5c-8 0 -13 6 -13 17v71c0 14 3 17 17 24
c48 22 111 34 183 34c146 0 220 -51 220 -151v-353c0 -7 -6 -13 -13 -13h-114c-7 0 -13 6 -13 13v12zM308 610c17 -13 21 -19 21 -28c0 -15 -10 -25 -25 -25c-4 0 -9 1 -12 3l-142 71c-25 12 -35 26 -35 45c0 24 17 45 37 45c10 0 21 -5 34 -15zM333 264l-59 -23
c-3 -1 -13 -6 -29 -13c-12 -5 -22 -10 -30 -15c-21 -12 -32 -31 -32 -57c0 -41 27 -64 73 -64c52 0 77 23 77 71v101z" />
    <glyph glyph-name="acircumflex" unicode="&#xe2;" horiz-adv-x="547" 
d="M343 25h-4c-6 0 -8 -1 -14 -3l-9 -3l-18 -8c-35 -14 -61 -19 -96 -19c-108 0 -169 53 -169 148c0 56 21 100 60 126c28 18 64 34 118 51l91 28c26 9 31 14 31 32c0 28 -23 40 -82 40c-63 0 -116 -14 -160 -41c-8 -4 -11 -5 -15 -5c-8 0 -13 6 -13 17v71c0 14 3 17 17 24
c48 22 111 34 183 34c146 0 220 -51 220 -151v-353c0 -7 -6 -13 -13 -13h-114c-7 0 -13 6 -13 13v12zM268 616l-117 -70c-2 -1 -4 -2 -7 -2c-4 0 -8 2 -11 6l-14 23c-2 2 -3 4 -3 7c0 4 2 7 5 10l138 116c3 2 6 3 9 3s6 -1 8 -3l139 -116c3 -3 5 -6 5 -10c0 -3 -1 -5 -2 -7
l-15 -23c-3 -4 -7 -6 -11 -6c-2 0 -5 1 -7 2zM333 264l-59 -23c-3 -1 -13 -6 -29 -13c-12 -5 -22 -10 -30 -15c-21 -12 -32 -31 -32 -57c0 -41 27 -64 73 -64c52 0 77 23 77 71v101z" />
    <glyph glyph-name="adieresis" unicode="&#xe4;" horiz-adv-x="547" 
d="M343 25h-4c-6 0 -8 -1 -14 -3l-9 -3l-18 -8c-35 -14 -61 -19 -96 -19c-108 0 -169 53 -169 148c0 56 21 100 60 126c28 18 64 34 118 51l91 28c26 9 31 14 31 32c0 28 -23 40 -82 40c-63 0 -116 -14 -160 -41c-8 -4 -11 -5 -15 -5c-8 0 -13 6 -13 17v71c0 14 3 17 17 24
c48 22 111 34 183 34c146 0 220 -51 220 -151v-353c0 -7 -6 -13 -13 -13h-114c-7 0 -13 6 -13 13v12zM323 635c0 39 21 57 66 57c44 0 64 -19 64 -59c0 -39 -20 -58 -64 -58s-66 19 -66 60zM83 634c0 39 21 58 65 58c45 0 65 -19 65 -59c0 -39 -20 -58 -63 -58
c-45 0 -67 19 -67 59zM333 264l-59 -23c-3 -1 -13 -6 -29 -13c-12 -5 -22 -10 -30 -15c-21 -12 -32 -31 -32 -57c0 -41 27 -64 73 -64c52 0 77 23 77 71v101z" />
    <glyph glyph-name="atilde" unicode="&#xe3;" horiz-adv-x="547" 
d="M343 25h-4c-6 0 -8 -1 -14 -3l-9 -3l-18 -8c-35 -14 -61 -19 -96 -19c-108 0 -169 53 -169 148c0 56 21 100 60 126c28 18 64 34 118 51l91 28c26 9 31 14 31 32c0 28 -23 40 -82 40c-63 0 -116 -14 -160 -41c-8 -4 -11 -5 -15 -5c-8 0 -13 6 -13 17v71c0 14 3 17 17 24
c48 22 111 34 183 34c146 0 220 -51 220 -151v-353c0 -7 -6 -13 -13 -13h-114c-7 0 -13 6 -13 13v12zM156 575c-7 0 -13 6 -13 13v20c0 51 31 80 86 80c10 0 20 -2 30 -4c14 -5 18 -8 38 -29c9 -10 15 -13 26 -13c13 0 22 8 22 22v12c0 7 4 12 10 12h25c8 0 13 -6 13 -14
v-21c0 -52 -27 -78 -82 -78c-29 0 -47 7 -69 28c-11 11 -16 14 -26 14c-13 0 -22 -9 -22 -23v-9c0 -5 -4 -10 -9 -10h-29zM333 264l-59 -23c-3 -1 -13 -6 -29 -13c-12 -5 -22 -10 -30 -15c-21 -12 -32 -31 -32 -57c0 -41 27 -64 73 -64c52 0 77 23 77 71v101z" />
    <glyph glyph-name="aring" unicode="&#xe5;" horiz-adv-x="547" 
d="M343 25h-4c-6 0 -8 -1 -14 -3l-9 -3l-18 -8c-35 -14 -61 -19 -96 -19c-108 0 -169 53 -169 148c0 56 21 100 60 126c28 18 64 34 118 51l91 28c26 9 31 14 31 32c0 28 -23 40 -82 40c-63 0 -116 -14 -160 -41c-8 -4 -11 -5 -15 -5c-8 0 -13 6 -13 17v71c0 14 3 17 17 24
c48 22 111 34 183 34c146 0 220 -51 220 -151v-353c0 -7 -6 -13 -13 -13h-114c-7 0 -13 6 -13 13v12zM169 631c0 54 34 86 91 86s89 -30 89 -82c0 -56 -32 -85 -92 -85c-56 0 -88 30 -88 81zM333 264l-59 -23c-3 -1 -13 -6 -29 -13c-12 -5 -22 -10 -30 -15
c-21 -12 -32 -31 -32 -57c0 -41 27 -64 73 -64c52 0 77 23 77 71v101zM219 633c0 -24 13 -34 42 -34c25 0 38 12 38 34s-14 34 -41 34c-26 0 -39 -12 -39 -34z" />
    <glyph glyph-name="ccedilla" unicode="&#xe7;" horiz-adv-x="492" 
d="M311 -8v-40c44 0 72 -27 72 -71c0 -56 -40 -84 -123 -84h-33c-8 0 -13 6 -13 13v23c0 7 5 13 13 13h22c39 0 57 12 57 39c0 20 -12 32 -32 34h-11c-6 1 -9 5 -9 12v62c-143 13 -221 104 -221 259c0 175 90 265 266 265c56 0 104 -7 148 -22c18 -6 21 -10 21 -25v-81
c0 -10 -3 -14 -12 -14c-3 0 -8 1 -13 4l-11 6c-28 14 -68 23 -101 23c-92 0 -143 -53 -143 -151c0 -101 52 -157 144 -157c38 0 78 12 111 32c7 5 9 6 13 6c8 0 12 -5 12 -15v-74c0 -16 -2 -18 -22 -26c-42 -17 -93 -29 -135 -31z" />
    <glyph glyph-name="eacute" unicode="&#xe9;" horiz-adv-x="552" 
d="M183 225v-10c0 -79 50 -123 139 -123c53 0 100 13 146 41c6 4 9 5 13 5c9 0 12 -4 12 -15v-69c0 -17 -5 -25 -22 -31c-55 -22 -113 -31 -182 -31c-88 0 -142 17 -186 61c-46 44 -70 111 -70 197c0 173 88 267 252 267c149 0 238 -94 238 -250v-29c0 -7 -6 -13 -13 -13
h-327zM257 560c-3 -2 -8 -3 -12 -3c-14 0 -25 11 -25 25c0 10 4 14 21 28l122 96c13 10 24 15 34 15c20 0 37 -21 37 -45c0 -19 -10 -33 -35 -45zM374 317v6c0 39 -6 56 -24 75c-17 18 -42 27 -72 27c-32 0 -57 -10 -75 -29c-16 -18 -21 -37 -21 -79h192z" />
    <glyph glyph-name="egrave" unicode="&#xe8;" horiz-adv-x="552" 
d="M183 225v-10c0 -79 50 -123 139 -123c53 0 100 13 146 41c6 4 9 5 13 5c9 0 12 -4 12 -15v-69c0 -17 -5 -25 -22 -31c-55 -22 -113 -31 -182 -31c-88 0 -142 17 -186 61c-46 44 -70 111 -70 197c0 173 88 267 252 267c149 0 238 -94 238 -250v-29c0 -7 -6 -13 -13 -13
h-327zM320 610c18 -13 22 -19 22 -28c0 -15 -11 -25 -25 -25c-5 0 -9 1 -13 3l-142 71c-24 12 -35 26 -35 45c0 24 18 45 38 45c10 0 21 -5 33 -15zM374 317v6c0 39 -6 56 -24 75c-17 18 -42 27 -72 27c-32 0 -57 -10 -75 -29c-16 -18 -21 -37 -21 -79h192z" />
    <glyph glyph-name="ecircumflex" unicode="&#xea;" horiz-adv-x="552" 
d="M183 225v-10c0 -79 50 -123 139 -123c53 0 100 13 146 41c6 4 9 5 13 5c9 0 12 -4 12 -15v-69c0 -17 -5 -25 -22 -31c-55 -22 -113 -31 -182 -31c-88 0 -142 17 -186 61c-46 44 -70 111 -70 197c0 173 88 267 252 267c149 0 238 -94 238 -250v-29c0 -7 -6 -13 -13 -13
h-327zM280 616l-116 -70c-2 -1 -5 -2 -7 -2c-4 0 -9 2 -11 6l-15 23c-1 2 -2 4 -2 7c0 4 2 7 5 10l138 116c2 2 5 3 9 3c3 0 5 -1 8 -3l139 -116c3 -3 5 -6 5 -10c0 -3 -1 -5 -2 -7l-16 -23c-2 -4 -6 -6 -11 -6c-2 0 -4 1 -6 2zM374 317v6c0 39 -6 56 -24 75
c-17 18 -42 27 -72 27c-32 0 -57 -10 -75 -29c-16 -18 -21 -37 -21 -79h192z" />
    <glyph glyph-name="edieresis" unicode="&#xeb;" horiz-adv-x="552" 
d="M183 225v-10c0 -79 50 -123 139 -123c53 0 100 13 146 41c6 4 9 5 13 5c9 0 12 -4 12 -15v-69c0 -17 -5 -25 -22 -31c-55 -22 -113 -31 -182 -31c-88 0 -142 17 -186 61c-46 44 -70 111 -70 197c0 173 88 267 252 267c149 0 238 -94 238 -250v-29c0 -7 -6 -13 -13 -13
h-327zM336 635c0 39 20 57 66 57c43 0 64 -19 64 -59c0 -39 -21 -58 -64 -58c-45 0 -66 19 -66 60zM96 634c0 39 21 58 65 58c45 0 65 -19 65 -59c0 -39 -20 -58 -64 -58s-66 19 -66 59zM374 317v6c0 39 -6 56 -24 75c-17 18 -42 27 -72 27c-32 0 -57 -10 -75 -29
c-16 -18 -21 -37 -21 -79h192z" />
    <glyph glyph-name="iacute" unicode="&#xed;" horiz-adv-x="297" 
d="M86 0c-7 0 -13 6 -13 13v482c0 7 6 13 13 13h124c7 0 13 -6 13 -13v-482c0 -7 -6 -13 -13 -13h-124zM118 560c-4 -2 -8 -3 -12 -3c-15 0 -25 11 -25 25c0 10 3 14 21 28l122 96c13 10 24 15 34 15c20 0 37 -21 37 -45c0 -19 -10 -33 -35 -45z" />
    <glyph glyph-name="igrave" unicode="&#xec;" horiz-adv-x="297" 
d="M86 0c-7 0 -13 6 -13 13v482c0 7 6 13 13 13h124c7 0 13 -6 13 -13v-482c0 -7 -6 -13 -13 -13h-124zM195 610c17 -13 21 -19 21 -28c0 -15 -11 -25 -25 -25c-5 0 -9 1 -12 3l-142 71c-25 12 -36 26 -36 45c0 24 18 45 38 45c10 0 21 -5 33 -15z" />
    <glyph glyph-name="icircumflex" unicode="&#xee;" horiz-adv-x="297" 
d="M86 0c-7 0 -13 6 -13 13v482c0 7 6 13 13 13h124c7 0 13 -6 13 -13v-482c0 -7 -6 -13 -13 -13h-124zM148 616l-117 -70c-2 -1 -4 -2 -7 -2c-4 0 -8 2 -10 6l-15 23c-2 2 -3 4 -3 7c0 4 2 7 5 10l139 116c2 2 5 3 8 3s6 -1 8 -3l139 -116c4 -3 5 -6 5 -10
c0 -3 -1 -5 -2 -7l-15 -23c-3 -4 -7 -6 -11 -6c-2 0 -5 1 -7 2z" />
    <glyph glyph-name="idieresis" unicode="&#xef;" horiz-adv-x="297" 
d="M86 0c-7 0 -13 6 -13 13v482c0 7 6 13 13 13h124c7 0 13 -6 13 -13v-482c0 -7 -6 -13 -13 -13h-124zM175 635c0 36 20 54 62 54s62 -18 62 -56c0 -37 -20 -55 -61 -55c-42 0 -63 18 -63 57zM-2 634c0 37 20 55 62 55s62 -18 62 -55c0 -38 -20 -56 -61 -56
c-42 0 -63 18 -63 56z" />
    <glyph glyph-name="ntilde" unicode="&#xf1;" horiz-adv-x="607" 
d="M213 483h2c8 0 12 1 22 6c39 20 76 28 127 28c58 0 99 -14 133 -44c34 -32 46 -69 46 -142v-318c0 -7 -6 -13 -13 -13h-124c-7 0 -13 6 -13 13v282c0 77 -29 113 -92 113c-50 0 -78 -25 -78 -70v-325c0 -7 -6 -13 -13 -13h-124c-7 0 -13 6 -13 13v482c0 7 6 13 13 13h114
c7 0 13 -6 13 -13v-12zM191 575c-7 0 -13 6 -13 13v20c0 51 31 80 86 80c10 0 20 -2 30 -4c14 -5 18 -8 38 -29c9 -10 15 -13 26 -13c13 0 22 8 22 22v12c0 7 4 12 10 12h25c8 0 13 -6 13 -14v-21c0 -52 -27 -78 -82 -78c-29 0 -47 7 -69 28c-11 11 -16 14 -26 14
c-13 0 -22 -9 -22 -23v-9c0 -5 -4 -10 -9 -10h-29z" />
    <glyph glyph-name="oacute" unicode="&#xf3;" horiz-adv-x="597" 
d="M33 250c0 86 29 161 80 208c45 41 101 59 187 59c85 0 136 -17 183 -60c53 -49 80 -120 80 -210c0 -89 -26 -154 -80 -203c-50 -44 -101 -61 -190 -61c-162 0 -260 100 -260 267zM275 560c-4 -2 -8 -3 -13 -3c-14 0 -25 11 -25 25c0 10 4 14 22 28l122 96
c13 10 24 15 34 15c19 0 37 -21 37 -45c0 -19 -11 -33 -35 -45zM188 254c0 -116 36 -171 110 -171s110 58 110 174c0 101 -40 160 -109 160c-73 0 -111 -56 -111 -163z" />
    <glyph glyph-name="ograve" unicode="&#xf2;" horiz-adv-x="597" 
d="M33 250c0 86 29 161 80 208c45 41 101 59 187 59c85 0 136 -17 183 -60c53 -49 80 -120 80 -210c0 -89 -26 -154 -80 -203c-50 -44 -101 -61 -190 -61c-162 0 -260 100 -260 267zM338 610c18 -13 21 -19 21 -28c0 -15 -10 -25 -25 -25c-4 0 -8 1 -12 3l-142 71
c-25 12 -35 26 -35 45c0 24 17 45 37 45c10 0 21 -5 34 -15zM188 254c0 -116 36 -171 110 -171s110 58 110 174c0 101 -40 160 -109 160c-73 0 -111 -56 -111 -163z" />
    <glyph glyph-name="ocircumflex" unicode="&#xf4;" horiz-adv-x="597" 
d="M33 250c0 86 29 161 80 208c45 41 101 59 187 59c85 0 136 -17 183 -60c53 -49 80 -120 80 -210c0 -89 -26 -154 -80 -203c-50 -44 -101 -61 -190 -61c-162 0 -260 100 -260 267zM298 616l-117 -70c-2 -1 -4 -2 -7 -2c-4 0 -8 2 -10 6l-15 23c-2 2 -2 4 -2 7
c0 4 1 7 4 10l139 116c2 2 5 3 8 3s6 -1 8 -3l140 -116c3 -3 4 -6 4 -10c0 -3 -1 -5 -2 -7l-15 -23c-3 -4 -7 -6 -11 -6c-2 0 -5 1 -7 2zM188 254c0 -116 36 -171 110 -171s110 58 110 174c0 101 -40 160 -109 160c-73 0 -111 -56 -111 -163z" />
    <glyph glyph-name="odieresis" unicode="&#xf6;" horiz-adv-x="597" 
d="M33 250c0 86 29 161 80 208c45 41 101 59 187 59c85 0 136 -17 183 -60c53 -49 80 -120 80 -210c0 -89 -26 -154 -80 -203c-50 -44 -101 -61 -190 -61c-162 0 -260 100 -260 267zM353 635c0 39 21 57 66 57c44 0 64 -19 64 -59c0 -39 -20 -58 -64 -58s-66 19 -66 60z
M114 634c0 39 20 58 64 58c45 0 66 -19 66 -59c0 -39 -21 -58 -64 -58c-45 0 -66 19 -66 59zM188 254c0 -116 36 -171 110 -171s110 58 110 174c0 101 -40 160 -109 160c-73 0 -111 -56 -111 -163z" />
    <glyph glyph-name="otilde" unicode="&#xf5;" horiz-adv-x="597" 
d="M33 250c0 86 29 161 80 208c45 41 101 59 187 59c85 0 136 -17 183 -60c53 -49 80 -120 80 -210c0 -89 -26 -154 -80 -203c-50 -44 -101 -61 -190 -61c-162 0 -260 100 -260 267zM186 575c-7 0 -13 6 -13 13v20c0 51 31 80 86 80c11 0 21 -2 30 -4c14 -5 18 -8 38 -29
c9 -10 16 -13 26 -13c13 0 22 8 22 22v12c0 7 4 12 11 12h24c8 0 13 -6 13 -14v-21c0 -52 -27 -78 -82 -78c-29 0 -47 7 -69 28c-11 11 -16 14 -25 14c-14 0 -23 -9 -23 -23v-9c0 -5 -4 -10 -9 -10h-29zM188 254c0 -116 36 -171 110 -171s110 58 110 174
c0 101 -40 160 -109 160c-73 0 -111 -56 -111 -163z" />
    <glyph glyph-name="uacute" unicode="&#xfa;" horiz-adv-x="607" 
d="M393 25h-2h-2c-6 0 -12 -2 -20 -5c-14 -6 -22 -9 -25 -10c-31 -12 -66 -18 -101 -18c-114 0 -180 65 -180 178v325c0 7 6 13 13 13h124c7 0 13 -6 13 -13v-287c0 -71 31 -108 90 -108c53 0 80 26 80 76v319c0 7 6 13 13 13h124c7 0 13 -6 13 -13v-482
c0 -7 -6 -13 -13 -13h-114c-7 0 -13 6 -13 13v12zM280 560c-4 -2 -8 -3 -13 -3c-14 0 -25 11 -25 25c0 10 4 14 22 28l122 96c13 10 24 15 34 15c19 0 37 -21 37 -45c0 -19 -11 -33 -35 -45z" />
    <glyph glyph-name="ugrave" unicode="&#xf9;" horiz-adv-x="607" 
d="M393 25h-2h-2c-6 0 -12 -2 -20 -5c-14 -6 -22 -9 -25 -10c-31 -12 -66 -18 -101 -18c-114 0 -180 65 -180 178v325c0 7 6 13 13 13h124c7 0 13 -6 13 -13v-287c0 -71 31 -108 90 -108c53 0 80 26 80 76v319c0 7 6 13 13 13h124c7 0 13 -6 13 -13v-482
c0 -7 -6 -13 -13 -13h-114c-7 0 -13 6 -13 13v12zM343 610c18 -13 21 -19 21 -28c0 -15 -10 -25 -25 -25c-4 0 -8 1 -12 3l-142 71c-25 12 -35 26 -35 45c0 24 17 45 37 45c10 0 21 -5 34 -15z" />
    <glyph glyph-name="ucircumflex" unicode="&#xfb;" horiz-adv-x="607" 
d="M393 25h-2h-2c-6 0 -12 -2 -20 -5c-14 -6 -22 -9 -25 -10c-31 -12 -66 -18 -101 -18c-114 0 -180 65 -180 178v325c0 7 6 13 13 13h124c7 0 13 -6 13 -13v-287c0 -71 31 -108 90 -108c53 0 80 26 80 76v319c0 7 6 13 13 13h124c7 0 13 -6 13 -13v-482
c0 -7 -6 -13 -13 -13h-114c-7 0 -13 6 -13 13v12zM303 616l-117 -70c-2 -1 -4 -2 -7 -2c-4 0 -8 2 -10 6l-15 23c-2 2 -2 4 -2 7c0 4 1 7 4 10l139 116c2 2 5 3 8 3s6 -1 8 -3l140 -116c3 -3 4 -6 4 -10c0 -3 -1 -5 -2 -7l-15 -23c-3 -4 -7 -6 -11 -6c-2 0 -5 1 -7 2z" />
    <glyph glyph-name="udieresis" unicode="&#xfc;" horiz-adv-x="607" 
d="M393 25h-2h-2c-6 0 -12 -2 -20 -5c-14 -6 -22 -9 -25 -10c-31 -12 -66 -18 -101 -18c-114 0 -180 65 -180 178v325c0 7 6 13 13 13h124c7 0 13 -6 13 -13v-287c0 -71 31 -108 90 -108c53 0 80 26 80 76v319c0 7 6 13 13 13h124c7 0 13 -6 13 -13v-482
c0 -7 -6 -13 -13 -13h-114c-7 0 -13 6 -13 13v12zM358 635c0 39 21 57 66 57c44 0 64 -19 64 -59c0 -39 -20 -58 -64 -58s-66 19 -66 60zM119 634c0 39 20 58 64 58c45 0 66 -19 66 -59c0 -39 -21 -58 -64 -58c-45 0 -66 19 -66 59z" />
    <glyph glyph-name="degree" unicode="&#xb0;" 
d="M102 519c0 80 66 145 148 145s148 -65 148 -145s-66 -146 -148 -146s-148 66 -148 146zM165 519c0 -46 38 -84 85 -84s85 38 85 84s-38 83 -85 83s-85 -37 -85 -83z" />
    <glyph glyph-name="registered" unicode="&#xae;" 
d="M450 563c0 -110 -90 -200 -200 -200s-200 90 -200 200c0 111 89 200 200 200s200 -89 200 -200zM424 563c0 97 -78 174 -174 174s-174 -78 -174 -174s78 -174 174 -174s174 78 174 174zM282 563l64 -94c1 -1 2 -3 2 -4c0 -3 -2 -5 -5 -5h-47c-2 0 -3 1 -4 2l-58 91h-9
v-89c0 -2 -1 -4 -4 -4h-41c-2 0 -4 2 -4 4v199c0 2 2 4 4 4h77c46 0 68 -17 68 -53c0 -29 -16 -47 -43 -51zM225 581h15c24 0 35 9 35 29c0 19 -10 28 -31 28h-19v-57z" />
    <glyph glyph-name="copyright" unicode="&#xa9;" horiz-adv-x="758" 
d="M725 329c0 -191 -155 -346 -346 -346s-346 155 -346 346s155 346 346 346s346 -155 346 -346zM656 329c0 157 -124 284 -277 284s-277 -127 -277 -284c0 -156 124 -283 277 -283s277 126 277 283zM541 448c0 -7 -3 -11 -8 -11c-3 0 -5 1 -11 4c-24 14 -63 23 -98 23
c-88 0 -136 -49 -136 -136c0 -84 50 -134 135 -134c33 0 66 8 96 23c6 3 10 5 13 5c6 0 9 -4 9 -10v-50c0 -7 -1 -9 -4 -12c-18 -15 -74 -26 -131 -26c-147 0 -226 71 -226 203s84 207 230 207c46 0 93 -8 121 -20c8 -5 10 -7 10 -15v-51z" />
    <glyph glyph-name="trademark" unicode="&#x2122;" horiz-adv-x="838" 
d="M128 600h-107c-4 0 -7 4 -7 8v51c0 4 3 8 7 8h305c4 0 7 -4 7 -8v-51c0 -4 -3 -8 -7 -8h-107v-306c0 -4 -3 -7 -7 -7h-77c-4 0 -7 3 -7 7v306zM581 374l96 284c2 7 4 9 15 9h96c4 0 7 -4 7 -8v-365c0 -4 -3 -7 -7 -7h-77c-4 0 -7 3 -7 7v274l-94 -272c-2 -7 -6 -9 -14 -9
h-55c-11 0 -14 2 -17 11l-88 270v-274c0 -4 -4 -7 -8 -7h-53c-4 0 -8 3 -8 7v365c0 4 4 8 8 8h101c10 0 13 -2 15 -8z" />
    <glyph glyph-name="notequal" unicode="&#x2260;" 
d="M267 458l54 110h83l-54 -110h117v-93h-159l-39 -78h198v-93h-240l-52 -104h-82l51 104h-110v93h152l39 78h-192v93h234z" />
    <glyph glyph-name="infinity" unicode="&#x221e;" horiz-adv-x="667" 
d="M336 272c-48 -61 -100 -91 -161 -91c-93 0 -158 66 -158 159c0 92 67 158 158 158c58 0 112 -31 156 -90c44 59 99 90 160 90c93 0 158 -65 158 -159c0 -92 -65 -158 -156 -158c-61 0 -114 31 -157 91zM385 340c32 -47 59 -66 92 -66c38 0 66 28 66 66
c0 37 -29 65 -67 65c-32 0 -60 -19 -91 -65zM282 339c-32 47 -59 66 -92 66c-38 0 -66 -28 -66 -66c0 -37 29 -65 66 -65c33 0 61 20 92 65z" />
    <glyph glyph-name="plusminus" unicode="&#xb1;" 
d="M33 447h165v162h104v-162h165v-96h-165v-161h-104v161h-165v96zM33 153h434v-95h-434v95z" />
    <glyph glyph-name="lessequal" unicode="&#x2264;" 
d="M467 640v-97l-324 -150l323 -149l1 -97l-434 203v87zM467 118v-93h-434v93h434z" />
    <glyph glyph-name="greaterequal" unicode="&#x2265;" 
d="M33 147v97l324 150l-323 149l-1 97l434 -203v-88zM33 25v93h434v-93h-434z" />
    <glyph glyph-name="mu" unicode="&#xb5;" 
d="M36 -170v650h103v-262c0 -52 4 -74 18 -97c19 -31 54 -50 93 -50c24 0 47 7 65 22c10 8 19 18 26 29c16 27 21 51 21 102v256h102v-480h-102v70c-14 -29 -21 -39 -35 -52c-21 -19 -50 -29 -79 -29s-56 9 -77 26c-12 10 -19 19 -32 40v-225h-103z" />
    <glyph glyph-name="partialdiff" unicode="&#x2202;" 
d="M65 577l13 90c128 -16 203 -45 271 -106c82 -73 128 -181 128 -303c0 -161 -94 -268 -234 -268c-126 0 -228 102 -228 227c0 121 91 216 207 216c34 0 68 -8 92 -23c15 -9 23 -15 42 -35c-18 39 -23 49 -35 66c-19 28 -49 57 -80 76c-25 16 -69 36 -100 45
c-23 7 -38 10 -76 15zM236 346c-66 -4 -115 -61 -115 -132c0 -74 54 -131 123 -131s121 59 121 135c0 75 -50 128 -122 129c-2 0 -5 -1 -7 -1z" />
    <glyph glyph-name="summation" unicode="&#x2211;" horiz-adv-x="667" 
d="M610 750v-237h-93l-11 144h-365l250 -389l-251 -425h376l6 146h97v-239h-595v104l246 414l-246 378v104h586z" />
    <glyph glyph-name="product" unicode="&#x220f;" horiz-adv-x="717" 
d="M38 750h641v-93h-81v-814h81v-93h-266v93h81v814h-270v-814h79v-93h-265v93h82v814h-82v93z" />
    <glyph glyph-name="pi" unicode="&#x3c0;" horiz-adv-x="627" 
d="M109 0v400h-76v93h560v-93h-74v-400h-103v400h-204v-400h-103z" />
    <glyph glyph-name="integral" unicode="&#x222b;" 
d="M69 -239l20 92c25 -9 33 -11 51 -11c25 0 45 13 51 32c4 12 6 29 6 54v42v540v48c1 59 2 73 10 100c16 57 70 92 143 92c26 0 42 -2 81 -11l-20 -92c-25 9 -33 11 -51 11c-25 0 -45 -13 -51 -32c-3 -9 -5 -21 -5 -33c-1 -13 -1 -32 -1 -54v-60v-489c0 -34 0 -62 -1 -84
c-1 -46 -10 -77 -28 -101c-27 -36 -69 -54 -129 -54c-30 0 -52 3 -76 10z" />
    <glyph glyph-name="Omega" unicode="&#x3a9;" horiz-adv-x="666" 
d="M28 0v93h157c-36 22 -50 32 -71 52c-57 56 -86 129 -86 220c0 181 132 318 305 318c174 0 305 -137 305 -318c0 -61 -14 -118 -40 -162c-11 -18 -24 -35 -40 -52c-23 -24 -38 -35 -76 -58h156v-93h-265v83c10 6 17 10 22 13c38 24 67 52 89 86c31 48 46 106 46 171
c0 133 -86 237 -196 237c-48 0 -95 -21 -132 -58c-45 -46 -66 -103 -66 -181c0 -121 52 -209 159 -268v-83h-267z" />
    <glyph glyph-name="logicalnot" unicode="&#xac;" 
d="M363 0v174h-330v93h434v-267h-104z" />
    <glyph glyph-name="radical" unicode="&#x221a;" horiz-adv-x="667" 
d="M667 827v-93h-187l-188 -734h-134l-69 284h-89v93h174l27 -105c1 -3 2 -9 3 -16c3 -16 6 -34 8 -52c1 -3 3 -22 8 -60l1 -14h9c4 30 6 40 12 79c17 98 22 124 51 235l98 383h276z" />
    <glyph glyph-name="approxequal" unicode="&#x2248;" 
d="M66 342l-58 38c40 93 80 128 145 128c25 0 55 -9 107 -30c21 -9 37 -15 46 -18c15 -6 31 -9 46 -9c35 0 53 13 80 59l60 -35c-19 -39 -26 -51 -42 -70c-27 -34 -69 -54 -112 -54c-18 0 -54 10 -91 25l-51 20c-18 7 -38 12 -52 12c-19 0 -39 -10 -52 -26
c-10 -11 -14 -18 -26 -40zM66 155l-58 38c40 93 80 128 145 128c25 0 54 -8 107 -29c21 -9 36 -15 46 -19c16 -6 31 -9 45 -9c36 0 55 14 81 59l60 -35c-19 -38 -26 -50 -42 -70c-27 -33 -69 -53 -112 -53c-18 0 -54 10 -91 25l-51 20c-18 7 -38 11 -52 11
c-19 0 -39 -9 -52 -25c-10 -11 -14 -18 -26 -41z" />
    <glyph glyph-name="Delta" unicode="&#x394;" horiz-adv-x="667" 
d="M22 0l254 667h111l258 -667h-623zM169 94h326l-163 447z" />
    <glyph glyph-name="nbspace" unicode="&#xa0;" horiz-adv-x="333" 
d="M0 0z" />
    <glyph glyph-name="Agrave" unicode="&#xc0;" horiz-adv-x="633" 
d="M193 200l-61 -191c-2 -5 -7 -9 -13 -9h-91c-11 0 -17 4 -17 12c0 3 0 5 4 16l198 604c7 23 9 26 20 34c9 7 18 9 41 9h78c35 0 40 -1 51 -13c5 -6 9 -13 12 -21c2 -4 4 -11 7 -21l194 -591l4 -10v-5c0 -9 -6 -14 -18 -14h-132c-6 0 -11 4 -13 9l-60 191h-204zM356 767
c17 -14 21 -19 21 -29c0 -14 -11 -25 -25 -25c-5 0 -9 1 -12 3l-142 71c-25 13 -36 26 -36 45c0 24 18 45 38 45c10 0 21 -5 33 -14zM373 300l-72 247l-81 -247h153z" />
    <glyph glyph-name="Atilde" unicode="&#xc3;" horiz-adv-x="633" 
d="M193 200l-61 -191c-2 -5 -7 -9 -13 -9h-91c-11 0 -17 4 -17 12c0 3 0 5 4 16l198 604c7 23 9 26 20 34c9 7 18 9 41 9h78c35 0 40 -1 51 -13c5 -6 9 -13 12 -21c2 -4 4 -11 7 -21l194 -591l4 -10v-5c0 -9 -6 -14 -18 -14h-132c-6 0 -11 4 -13 9l-60 191h-204zM205 731
c-8 0 -13 6 -13 13v20c0 51 31 80 85 80c11 0 21 -2 30 -4c15 -4 18 -7 38 -29c9 -10 16 -13 26 -13c13 0 22 9 22 22v12c0 7 4 12 11 12h25c7 0 13 -6 13 -13v-22c0 -52 -28 -78 -83 -78c-29 0 -47 8 -69 29c-11 10 -16 13 -25 13c-14 0 -23 -9 -23 -22v-9
c0 -6 -4 -11 -9 -11h-28zM373 300l-72 247l-81 -247h153z" />
    <glyph glyph-name="Otilde" unicode="&#xd5;" horiz-adv-x="740" 
d="M35 330c0 107 35 202 96 262c59 57 133 83 240 83c105 0 177 -25 235 -81c64 -62 99 -156 99 -267c0 -109 -33 -198 -97 -261c-56 -56 -133 -83 -238 -83c-106 0 -178 26 -237 83c-62 61 -98 157 -98 264zM258 731c-7 0 -13 6 -13 13v20c0 51 31 80 86 80
c10 0 20 -2 29 -4c15 -4 19 -7 39 -29c9 -10 15 -13 26 -13c13 0 21 9 21 22v12c0 7 5 12 11 12h25c8 0 13 -6 13 -13v-22c0 -52 -27 -78 -82 -78c-30 0 -48 8 -69 29c-11 10 -16 13 -26 13c-13 0 -22 -9 -22 -22v-9c0 -6 -4 -11 -9 -11h-29zM200 329c0 -94 14 -145 51 -184
c28 -29 68 -45 116 -45c49 0 91 16 121 46c37 36 52 94 52 198c0 141 -58 214 -169 214c-50 0 -90 -15 -120 -44c-36 -36 -51 -92 -51 -185z" />
    <glyph glyph-name="divide" unicode="&#xf7;" 
d="M250 575c34 0 62 -28 62 -63c0 -34 -28 -62 -62 -62c-35 0 -63 28 -63 62c0 35 28 63 63 63zM250 224c34 0 62 -28 62 -63c0 -34 -28 -63 -62 -63c-35 0 -63 29 -63 63c0 35 28 63 63 63zM33 385h434v-96h-434v96z" />
    <glyph glyph-name="lozenge" unicode="&#x25ca;" horiz-adv-x="667" 
d="M333 693l260 -359l-260 -360l-259 360zM333 525l-139 -191l139 -191l139 191z" />
    <glyph glyph-name="ydieresis" unicode="&#xff;" horiz-adv-x="518" 
d="M210 1l-191 484c-2 3 -2 6 -2 9c0 9 7 14 19 14h123c6 0 11 -3 13 -9l104 -322l112 322c2 6 7 9 13 9h81c15 0 20 -3 20 -12c0 -2 -1 -6 -2 -10l-204 -548c-13 -36 -22 -60 -26 -71c-8 -17 -18 -33 -32 -47c-20 -19 -49 -28 -92 -28h-28c-7 0 -13 6 -13 13v74
c0 7 6 13 13 13h15c27 0 42 19 64 76zM321 635c0 39 20 57 66 57c43 0 64 -19 64 -59c0 -39 -21 -58 -64 -58c-45 0 -66 19 -66 60zM81 634c0 39 21 58 65 58c45 0 65 -19 65 -59c0 -39 -20 -58 -64 -58s-66 19 -66 59z" />
    <glyph glyph-name="Ydieresis" unicode="&#x178;" horiz-adv-x="652" 
d="M253 256l-232 392c-3 5 -3 6 -3 9c0 7 4 10 17 10h153c5 0 8 -2 11 -7l153 -280l152 279c3 6 6 8 11 8h106c11 0 16 -4 16 -10c0 -3 -1 -7 -4 -12l-220 -370v-262c0 -7 -6 -13 -13 -13h-134c-7 0 -13 6 -13 13v243zM399 785c0 39 21 58 65 58c45 0 65 -19 65 -58
c0 -41 -20 -59 -66 -59c-43 0 -64 20 -64 59zM149 785c0 39 21 58 65 58c45 0 65 -19 65 -58c0 -41 -20 -59 -66 -59c-43 0 -64 20 -64 59z" />
    <glyph glyph-name="Acircumflex" unicode="&#xc2;" horiz-adv-x="633" 
d="M193 200l-61 -191c-2 -5 -7 -9 -13 -9h-91c-11 0 -17 4 -17 12c0 3 0 5 4 16l198 604c7 23 9 26 20 34c9 7 18 9 41 9h78c35 0 40 -1 51 -13c5 -6 9 -13 12 -21c2 -4 4 -11 7 -21l194 -591l4 -10v-5c0 -9 -6 -14 -18 -14h-132c-6 0 -11 4 -13 9l-60 191h-204zM316 783
l-117 -70c-2 -2 -5 -2 -7 -2c-4 0 -8 2 -11 6l-15 22c-1 2 -2 5 -2 7c0 4 2 8 5 10l138 117c2 2 6 3 9 3s5 -1 8 -3l139 -117c3 -2 5 -6 5 -9s-1 -6 -2 -8l-16 -23c-2 -3 -6 -5 -10 -5c-3 0 -5 0 -7 2zM373 300l-72 247l-81 -247h153z" />
    <glyph glyph-name="Ecircumflex" unicode="&#xca;" horiz-adv-x="543" 
d="M237 550v-142h197c7 0 13 -6 13 -13v-90c0 -7 -6 -13 -13 -13h-197v-175h267c7 0 13 -6 13 -13v-91c0 -7 -6 -13 -13 -13h-414c-7 0 -13 6 -13 13v641c0 7 6 13 13 13h394c7 0 13 -6 13 -13v-91c0 -7 -6 -13 -13 -13h-247zM276 783l-117 -70c-2 -2 -5 -2 -7 -2
c-4 0 -8 2 -11 6l-15 22c-1 2 -2 5 -2 7c0 4 2 8 5 10l138 117c2 2 6 3 9 3s5 -1 8 -3l139 -117c3 -2 5 -6 5 -9s-1 -6 -2 -8l-16 -23c-2 -3 -6 -5 -10 -5c-3 0 -5 0 -7 2z" />
    <glyph glyph-name="Aacute" unicode="&#xc1;" horiz-adv-x="633" 
d="M193 200l-61 -191c-2 -5 -7 -9 -13 -9h-91c-11 0 -17 4 -17 12c0 3 0 5 4 16l198 604c7 23 9 26 20 34c9 7 18 9 41 9h78c35 0 40 -1 51 -13c5 -6 9 -13 12 -21c2 -4 4 -11 7 -21l194 -591l4 -10v-5c0 -9 -6 -14 -18 -14h-132c-6 0 -11 4 -13 9l-60 191h-204zM292 716
c-3 -2 -8 -3 -12 -3c-14 0 -25 11 -25 25c0 10 4 15 21 29l123 96c12 9 23 14 33 14c20 0 38 -21 38 -45c0 -19 -11 -32 -36 -45zM373 300l-72 247l-81 -247h153z" />
    <glyph glyph-name="Edieresis" unicode="&#xcb;" horiz-adv-x="543" 
d="M237 550v-142h197c7 0 13 -6 13 -13v-90c0 -7 -6 -13 -13 -13h-197v-175h267c7 0 13 -6 13 -13v-91c0 -7 -6 -13 -13 -13h-414c-7 0 -13 6 -13 13v641c0 7 6 13 13 13h394c7 0 13 -6 13 -13v-91c0 -7 -6 -13 -13 -13h-247zM337 785c0 39 20 58 65 58c44 0 65 -19 65 -58
c0 -41 -21 -59 -66 -59c-43 0 -64 20 -64 59zM87 785c0 39 20 58 65 58c44 0 65 -19 65 -58c0 -41 -21 -59 -66 -59c-43 0 -64 20 -64 59z" />
    <glyph glyph-name="Egrave" unicode="&#xc8;" horiz-adv-x="543" 
d="M237 550v-142h197c7 0 13 -6 13 -13v-90c0 -7 -6 -13 -13 -13h-197v-175h267c7 0 13 -6 13 -13v-91c0 -7 -6 -13 -13 -13h-414c-7 0 -13 6 -13 13v641c0 7 6 13 13 13h394c7 0 13 -6 13 -13v-91c0 -7 -6 -13 -13 -13h-247zM316 767c17 -14 21 -19 21 -29
c0 -14 -11 -25 -25 -25c-5 0 -9 1 -12 3l-142 71c-25 13 -36 26 -36 45c0 24 18 45 38 45c10 0 21 -5 33 -14z" />
    <glyph glyph-name="Iacute" unicode="&#xcd;" horiz-adv-x="313" 
d="M90 0c-7 0 -13 6 -13 13v641c0 7 6 13 13 13h134c7 0 13 -6 13 -13v-641c0 -7 -6 -13 -13 -13h-134zM132 716c-3 -2 -8 -3 -12 -3c-14 0 -25 11 -25 25c0 10 4 15 21 29l122 96c13 9 24 14 34 14c20 0 38 -21 38 -45c0 -19 -11 -32 -36 -45z" />
    <glyph glyph-name="Icircumflex" unicode="&#xce;" horiz-adv-x="313" 
d="M90 0c-7 0 -13 6 -13 13v641c0 7 6 13 13 13h134c7 0 13 -6 13 -13v-641c0 -7 -6 -13 -13 -13h-134zM155 783l-116 -70c-2 -2 -5 -2 -7 -2c-4 0 -9 2 -11 6l-15 22c-1 2 -2 5 -2 7c0 4 2 8 5 10l138 117c2 2 6 3 9 3s5 -1 8 -3l139 -117c3 -2 5 -6 5 -9s-1 -6 -2 -8
l-16 -23c-2 -3 -6 -5 -10 -5c-3 0 -5 0 -7 2z" />
    <glyph glyph-name="Idieresis" unicode="&#xcf;" horiz-adv-x="313" 
d="M90 0c-7 0 -13 6 -13 13v641c0 7 6 13 13 13h134c7 0 13 -6 13 -13v-641c0 -7 -6 -13 -13 -13h-134zM183 785c0 39 21 58 65 58c45 0 65 -19 65 -58c0 -41 -20 -59 -66 -59c-43 0 -64 20 -64 59zM0 785c0 39 21 58 65 58s65 -19 65 -58c0 -41 -21 -59 -66 -59
c-43 0 -64 20 -64 59z" />
    <glyph glyph-name="Igrave" unicode="&#xcc;" horiz-adv-x="313" 
d="M90 0c-7 0 -13 6 -13 13v641c0 7 6 13 13 13h134c7 0 13 -6 13 -13v-641c0 -7 -6 -13 -13 -13h-134zM197 767c17 -14 21 -19 21 -29c0 -14 -10 -25 -25 -25c-4 0 -9 1 -12 3l-142 71c-25 13 -35 26 -35 45c0 24 17 45 37 45c10 0 21 -5 34 -14z" />
    <glyph glyph-name="Oacute" unicode="&#xd3;" horiz-adv-x="740" 
d="M35 330c0 107 35 202 96 262c59 57 133 83 240 83c105 0 177 -25 235 -81c64 -62 99 -156 99 -267c0 -109 -33 -198 -97 -261c-56 -56 -133 -83 -238 -83c-106 0 -178 26 -237 83c-62 61 -98 157 -98 264zM346 716c-4 -2 -8 -3 -13 -3c-14 0 -25 11 -25 25
c0 10 4 15 22 29l122 96c13 9 24 14 34 14c19 0 37 -21 37 -45c0 -19 -11 -32 -35 -45zM200 329c0 -94 14 -145 51 -184c28 -29 68 -45 116 -45c49 0 91 16 121 46c37 36 52 94 52 198c0 141 -58 214 -169 214c-50 0 -90 -15 -120 -44c-36 -36 -51 -92 -51 -185z" />
    <glyph glyph-name="Ocircumflex" unicode="&#xd4;" horiz-adv-x="740" 
d="M35 330c0 107 35 202 96 262c59 57 133 83 240 83c105 0 177 -25 235 -81c64 -62 99 -156 99 -267c0 -109 -33 -198 -97 -261c-56 -56 -133 -83 -238 -83c-106 0 -178 26 -237 83c-62 61 -98 157 -98 264zM369 783l-117 -70c-2 -2 -4 -2 -7 -2c-4 0 -8 2 -10 6l-15 22
c-2 2 -2 5 -2 7c0 4 1 8 4 10l139 117c2 2 5 3 8 3s6 -1 8 -3l140 -117c3 -2 4 -6 4 -9s-1 -6 -2 -8l-15 -23c-3 -3 -7 -5 -11 -5c-2 0 -5 0 -7 2zM200 329c0 -94 14 -145 51 -184c28 -29 68 -45 116 -45c49 0 91 16 121 46c37 36 52 94 52 198c0 141 -58 214 -169 214
c-50 0 -90 -15 -120 -44c-36 -36 -51 -92 -51 -185z" />
    <glyph glyph-name="apple" unicode="&#xf8ff;" horiz-adv-x="667" 
d="M480 691v-10c0 -87 -69 -163 -148 -163c2 97 57 161 148 173zM623 457c-58 -45 -80 -84 -80 -139c0 -67 37 -123 99 -149c-19 -47 -27 -63 -44 -91c-43 -69 -86 -105 -127 -105c-12 0 -25 3 -38 9l-41 17c-5 2 -16 4 -33 4c-20 0 -45 -3 -51 -5l-43 -18
c-13 -5 -27 -8 -40 -8c-34 0 -74 29 -109 82c-52 77 -84 172 -84 252c0 130 76 220 187 220c24 0 45 -5 77 -18c22 -8 38 -12 48 -12s25 3 43 10c55 20 62 22 91 22c62 0 110 -24 145 -71z" />
    <glyph glyph-name="Ograve" unicode="&#xd2;" horiz-adv-x="740" 
d="M35 330c0 107 35 202 96 262c59 57 133 83 240 83c105 0 177 -25 235 -81c64 -62 99 -156 99 -267c0 -109 -33 -198 -97 -261c-56 -56 -133 -83 -238 -83c-106 0 -178 26 -237 83c-62 61 -98 157 -98 264zM409 767c18 -14 21 -19 21 -29c0 -14 -10 -25 -25 -25
c-4 0 -8 1 -12 3l-142 71c-25 13 -35 26 -35 45c0 24 17 45 37 45c10 0 21 -5 34 -14zM200 329c0 -94 14 -145 51 -184c28 -29 68 -45 116 -45c49 0 91 16 121 46c37 36 52 94 52 198c0 141 -58 214 -169 214c-50 0 -90 -15 -120 -44c-36 -36 -51 -92 -51 -185z" />
    <glyph glyph-name="Uacute" unicode="&#xda;" horiz-adv-x="693" 
d="M67 654c0 7 6 13 13 13h134c7 0 13 -6 13 -13v-402c0 -99 43 -144 138 -144c37 0 71 9 96 24c32 21 46 57 46 124v398c0 7 5 13 13 13h94c7 0 13 -6 13 -13v-449c0 -82 -35 -145 -101 -184c-46 -27 -93 -38 -173 -38c-99 0 -158 16 -212 57c-56 42 -74 89 -74 190v424z
M332 716c-3 -2 -8 -3 -12 -3c-14 0 -25 11 -25 25c0 10 4 15 21 29l122 96c13 9 24 14 34 14c20 0 38 -21 38 -45c0 -19 -11 -32 -36 -45z" />
    <glyph glyph-name="Ucircumflex" unicode="&#xdb;" horiz-adv-x="693" 
d="M67 654c0 7 6 13 13 13h134c7 0 13 -6 13 -13v-402c0 -99 43 -144 138 -144c37 0 71 9 96 24c32 21 46 57 46 124v398c0 7 5 13 13 13h94c7 0 13 -6 13 -13v-449c0 -82 -35 -145 -101 -184c-46 -27 -93 -38 -173 -38c-99 0 -158 16 -212 57c-56 42 -74 89 -74 190v424z
M355 783l-116 -70c-2 -2 -5 -2 -7 -2c-4 0 -9 2 -11 6l-15 22c-1 2 -2 5 -2 7c0 4 2 8 5 10l138 117c2 2 6 3 9 3s5 -1 8 -3l139 -117c3 -2 5 -6 5 -9s-1 -6 -2 -8l-16 -23c-2 -3 -6 -5 -10 -5c-3 0 -5 0 -7 2z" />
    <glyph glyph-name="Ugrave" unicode="&#xd9;" horiz-adv-x="693" 
d="M67 654c0 7 6 13 13 13h134c7 0 13 -6 13 -13v-402c0 -99 43 -144 138 -144c37 0 71 9 96 24c32 21 46 57 46 124v398c0 7 5 13 13 13h94c7 0 13 -6 13 -13v-449c0 -82 -35 -145 -101 -184c-46 -27 -93 -38 -173 -38c-99 0 -158 16 -212 57c-56 42 -74 89 -74 190v424z
M395 767c18 -14 22 -19 22 -29c0 -14 -11 -25 -25 -25c-5 0 -9 1 -13 3l-142 71c-24 13 -35 26 -35 45c0 24 18 45 38 45c10 0 21 -5 33 -14z" />
    </font>
</defs>
</svg>
